<?xml version="1.0" standalone="no"?>
<!DOCTYPE svg PUBLIC "-//W3C//DTD SVG 1.1//EN" "http://www.w3.org/Graphics/SVG/1.1/DTD/svg11.dtd" >
<svg>
<metadata>
Created by FontForge 20120731 at Sat Mar 23 04:48:05 2024
 By ffonts
Copyright (c) 2024 by Khurasan. All rights reserved.
</metadata>
<defs>
<font id="Ohyou" horiz-adv-x="250" >
  <font-face 
    font-family="Ohyou"
    font-weight="400"
    font-stretch="normal"
    units-per-em="1000"
    panose-1="0 0 0 0 0 0 0 0 0 0"
    ascent="800"
    descent="-200"
    x-height="707"
    cap-height="742"
    bbox="-8.57143 -198.211 1077.07 889"
    underline-thickness="0"
    underline-position="0"
    unicode-range="U+000D-2212"
  />
<missing-glyph 
 />
    <glyph glyph-name=".notdef" 
 />
    <glyph glyph-name="controlLF" horiz-adv-x="0" 
 />
    <glyph glyph-name="controlLF" horiz-adv-x="0" 
 />
    <glyph glyph-name="nonmarkingreturn" unicode="&#xd;" 
 />
    <glyph glyph-name="space" unicode=" " 
 />
    <glyph glyph-name="exclam" unicode="!" horiz-adv-x="377" 
d="M191 213q-20 -1 -40.5 1t-37.5 11q-12 6 -21.5 16.5t-14.5 22.5q-5 11 -9 32.5t-7.5 48t-5.5 56t-3 56.5t-1.5 49t-0.5 34q1 26 3.5 51.5t8.5 50.5q5 17 13 34.5t22 29.5q14 13 32.5 20t37.5 11q23 4 45.5 5t45.5 -2q15 -2 29 -8.5t24 -17.5q11 -14 15.5 -32t4.5 -36
q1 -22 -1 -43.5t-4 -43.5q-1 -12 -3.5 -35.5t-6.5 -52.5t-8.5 -61t-10 -60.5t-11 -51.5t-10.5 -34q-13 -27 -38 -40q-11 -5 -23 -7.5t-24 -3.5zM222 679q-9 -18 -3 -33.5t19.5 -24t30 -7t29.5 17.5q14 17 9 38t-25 31q-17 8 -34.5 1.5t-25.5 -23.5zM281 89q6 -32 -6.5 -57.5
t-36.5 -40.5t-54.5 -17.5t-59.5 11.5q-13 7 -23.5 17.5t-16.5 23.5q0 1 -1.5 5t-2.5 5q-13 22 -10 46.5t21 41.5q14 14 32 25t38 15q20 3 39.5 -0.5t36 -13.5t28.5 -25.5t16 -35.5z" />
    <glyph glyph-name="quotedbl" unicode="&#x22;" horiz-adv-x="347" 
d="M138 501q-5 -5 -14.5 -7t-20.5 -2.5t-21.5 0t-17.5 0.5q-8 1 -14 8t-7 15q-2 44 -4 87t-7 86q-1 7 0 14t6 12q3 3 10.5 5.5t16 3.5t16 1.5t12.5 0.5q10 0 20.5 -0.5t19.5 -3t15 -8t6 -15.5q0 -9 -1 -34.5t-3 -54t-4 -54t-3 -34.5q0 -5 -0.5 -10.5t-4.5 -9.5zM300 498
q-5 -5 -14.5 -7.5t-21 -3t-22 0t-17.5 0.5q-8 1 -14 8t-6 16q-3 43 -5 86t-6 87q-1 7 0 13.5t5 11.5q3 4 10.5 6t16 3t16 1.5t12.5 0.5h21t20 -3t14.5 -8.5t5.5 -15.5q0 -9 -1 -34.5t-3 -54t-3.5 -54t-2.5 -34.5q-1 -5 -1.5 -10t-3.5 -9z" />
    <glyph glyph-name="quotedbl" unicode="&#x201f;" horiz-adv-x="347" 
d="M138 501q-5 -5 -14.5 -7t-20.5 -2.5t-21.5 0t-17.5 0.5q-8 1 -14 8t-7 15q-2 44 -4 87t-7 86q-1 7 0 14t6 12q3 3 10.5 5.5t16 3.5t16 1.5t12.5 0.5q10 0 20.5 -0.5t19.5 -3t15 -8t6 -15.5q0 -9 -1 -34.5t-3 -54t-4 -54t-3 -34.5q0 -5 -0.5 -10.5t-4.5 -9.5zM300 498
q-5 -5 -14.5 -7.5t-21 -3t-22 0t-17.5 0.5q-8 1 -14 8t-6 16q-3 43 -5 86t-6 87q-1 7 0 13.5t5 11.5q3 4 10.5 6t16 3t16 1.5t12.5 0.5h21t20 -3t14.5 -8.5t5.5 -15.5q0 -9 -1 -34.5t-3 -54t-3.5 -54t-2.5 -34.5q-1 -5 -1.5 -10t-3.5 -9z" />
    <glyph glyph-name="quotedbl" unicode="&#x201e;" horiz-adv-x="347" 
d="M138 501q-5 -5 -14.5 -7t-20.5 -2.5t-21.5 0t-17.5 0.5q-8 1 -14 8t-7 15q-2 44 -4 87t-7 86q-1 7 0 14t6 12q3 3 10.5 5.5t16 3.5t16 1.5t12.5 0.5q10 0 20.5 -0.5t19.5 -3t15 -8t6 -15.5q0 -9 -1 -34.5t-3 -54t-4 -54t-3 -34.5q0 -5 -0.5 -10.5t-4.5 -9.5zM300 498
q-5 -5 -14.5 -7.5t-21 -3t-22 0t-17.5 0.5q-8 1 -14 8t-6 16q-3 43 -5 86t-6 87q-1 7 0 13.5t5 11.5q3 4 10.5 6t16 3t16 1.5t12.5 0.5h21t20 -3t14.5 -8.5t5.5 -15.5q0 -9 -1 -34.5t-3 -54t-3.5 -54t-2.5 -34.5q-1 -5 -1.5 -10t-3.5 -9z" />
    <glyph glyph-name="quotedbl" unicode="&#xbb;" horiz-adv-x="347" 
d="M138 501q-5 -5 -14.5 -7t-20.5 -2.5t-21.5 0t-17.5 0.5q-8 1 -14 8t-7 15q-2 44 -4 87t-7 86q-1 7 0 14t6 12q3 3 10.5 5.5t16 3.5t16 1.5t12.5 0.5q10 0 20.5 -0.5t19.5 -3t15 -8t6 -15.5q0 -9 -1 -34.5t-3 -54t-4 -54t-3 -34.5q0 -5 -0.5 -10.5t-4.5 -9.5zM300 498
q-5 -5 -14.5 -7.5t-21 -3t-22 0t-17.5 0.5q-8 1 -14 8t-6 16q-3 43 -5 86t-6 87q-1 7 0 13.5t5 11.5q3 4 10.5 6t16 3t16 1.5t12.5 0.5h21t20 -3t14.5 -8.5t5.5 -15.5q0 -9 -1 -34.5t-3 -54t-3.5 -54t-2.5 -34.5q-1 -5 -1.5 -10t-3.5 -9z" />
    <glyph glyph-name="quotedbl" unicode="&#xab;" horiz-adv-x="347" 
d="M138 501q-5 -5 -14.5 -7t-20.5 -2.5t-21.5 0t-17.5 0.5q-8 1 -14 8t-7 15q-2 44 -4 87t-7 86q-1 7 0 14t6 12q3 3 10.5 5.5t16 3.5t16 1.5t12.5 0.5q10 0 20.5 -0.5t19.5 -3t15 -8t6 -15.5q0 -9 -1 -34.5t-3 -54t-4 -54t-3 -34.5q0 -5 -0.5 -10.5t-4.5 -9.5zM300 498
q-5 -5 -14.5 -7.5t-21 -3t-22 0t-17.5 0.5q-8 1 -14 8t-6 16q-3 43 -5 86t-6 87q-1 7 0 13.5t5 11.5q3 4 10.5 6t16 3t16 1.5t12.5 0.5h21t20 -3t14.5 -8.5t5.5 -15.5q0 -9 -1 -34.5t-3 -54t-3.5 -54t-2.5 -34.5q-1 -5 -1.5 -10t-3.5 -9z" />
    <glyph glyph-name="numbersign" unicode="#" horiz-adv-x="845" 
d="M555 24q-11 -12 -27 -18t-33.5 -6t-33.5 5.5t-27 17.5q-8 8 -12.5 20.5t-6.5 23.5q-5 34 0.5 68.5t12.5 67.5q-30 2 -60.5 2.5t-60.5 0.5q-3 -10 -10 -34.5t-14.5 -51.5t-15 -50.5t-13.5 -32.5q-5 -7 -11 -12t-13 -10q-13 -8 -28.5 -11t-30.5 -1.5t-28 8t-22 18.5
q-8 11 -11 24t-4 27q-2 30 2 60.5t10 59.5q-12 1 -24.5 2t-23.5 6q-18 6 -27.5 20.5t-9.5 30.5t8.5 31t26.5 23t38 8.5t40 1.5q2 9 5 18t5 18q-17 1 -33.5 4t-30.5 13q-11 9 -17 21t-6 25t5.5 25t17.5 20q23 17 51.5 22.5t56.5 8.5q3 7 9.5 26t15 39.5t16 39t12.5 24.5
q11 16 27 26.5t35 12.5q38 5 74 -8q16 -6 30 -15.5t22 -23.5q5 -10 6.5 -21.5t-0.5 -22.5q-1 -4 -4.5 -14t-8 -22t-8.5 -22t-5 -14l90 -3q3 7 9.5 25.5t14.5 39t15.5 38.5t12.5 24q23 32 62 38q22 2 44.5 -1t42.5 -14q12 -5 22.5 -14t16.5 -21q6 -11 7 -24t-3 -24
q-2 -4 -6 -16t-9.5 -25t-10 -25t-5.5 -16q14 -2 27.5 -4.5t25.5 -7.5q9 -4 16.5 -9.5t12.5 -13.5q8 -13 8 -28.5t-5 -29.5q-4 -11 -11.5 -20.5t-18.5 -12.5q-9 -3 -18.5 -4t-19.5 -2q-17 0 -33.5 1t-33.5 3q-5 -11 -8.5 -22.5t-8.5 -22.5q13 -2 25.5 -3t25.5 -5
q9 -3 17.5 -7t14.5 -12q14 -17 12 -42t-19 -41q-18 -15 -46 -20q-20 -5 -39.5 -4t-39.5 3q-3 -11 -9 -33.5t-13 -47.5t-15.5 -46.5t-15.5 -29.5zM647 551q12 -16 29 -17t30.5 7t20 24t-2.5 34q-8 17 -26.5 23t-35.5 -2q-20 -10 -24.5 -31t9.5 -38zM350 322q26 -1 52.5 -1
h52.5l15 51q-26 0 -50.5 -0.5t-50.5 -1.5q-5 -12 -9.5 -24t-9.5 -24z" />
    <glyph glyph-name="dollar" unicode="$" horiz-adv-x="601" 
d="M365 -46q-22 -11 -47.5 -10.5t-48.5 9.5q-11 5 -22 12.5t-16 19.5q-5 11 -3 23.5t4 24.5q-32 2 -65.5 6.5t-63.5 18.5q-28 13 -43 37q-10 15 -12 33.5t3 35.5t16 32t27 23q13 7 29 7t30 -3q18 -5 35 -12l34 -14q11 -5 24 -7.5t24 2.5q10 4 14 14t-3 19q-3 4 -13 10
t-21 12t-21.5 11t-14.5 8q-32 18 -63.5 38.5t-55.5 48.5q-27 31 -38.5 68.5t-8 74.5t22 70.5t52.5 56.5q27 18 57.5 30.5t62.5 20.5q-2 12 -3 24t-1 24q0 15 8.5 24t21.5 14t28.5 7t30.5 2q14 0 28.5 -4t22.5 -15q11 -14 10.5 -33.5t-2.5 -36.5q22 -4 43.5 -10t40.5 -17
q18 -10 33.5 -25t26.5 -32q17 -26 25 -57.5t6 -62.5q-2 -41 -24 -74q-12 -20 -35 -31t-50.5 -13.5t-52.5 4.5q-15 4 -29 14t-19 24q-3 8 -6 24.5t-6.5 34.5t-8.5 33t-11 21t-14 5t-16 -5t-16 -10.5t-14 -12.5q-21 -20 -12.5 -47t28.5 -48q22 -25 50 -40q32 -18 65.5 -31
t64.5 -33q17 -11 32 -25t26 -32q9 -15 14 -33t3 -36q-2 -32 -21 -58q-20 -26 -51 -41t-63 -23q2 -14 3 -28.5t-3 -28.5q-7 -22 -28 -32zM456 615q-21 -5 -31 -19t-9 -30t12 -29t32 -16q3 0 10.5 1.5t10.5 3.5q12 6 21 19t9 27q0 21 -16.5 34.5t-38.5 8.5z" />
    <glyph glyph-name="percent" unicode="%" horiz-adv-x="1107" 
d="M449 -29q-23 -5 -47.5 -3t-47.5 10q-15 7 -28.5 16.5t-23.5 23.5q-16 22 -18 53q-5 47 6.5 93.5t27.5 90.5q19 54 43.5 105t52.5 101q32 60 68.5 117t76.5 113q15 20 32.5 40t40.5 32q22 12 49 15t52 -4q26 -6 50 -17.5t46 -27.5q13 -9 24 -19.5t19 -24.5
q14 -25 14.5 -57t-13.5 -58q-5 -8 -17.5 -27t-29.5 -42.5t-36.5 -49.5t-36.5 -49.5t-30.5 -41.5l-19.5 -26q-49 -69 -90.5 -142.5t-82.5 -148.5q-8 -16 -19.5 -30.5t-26.5 -25.5t-35 -16zM259 372q-28 -5 -56.5 -1t-54.5 16q-33 15 -59.5 41.5t-41.5 59.5q-14 29 -17 62.5
t5 64.5q11 42 41.5 78t68.5 56q49 25 102 19q38 -4 73 -23t60 -50q27 -33 38 -72t6.5 -78t-24 -74.5t-53.5 -60.5q-38 -29 -88 -38zM761 594q10 -6 21 -7t20.5 3t17 12.5t11.5 19.5q6 17 -2.5 32t-25.5 21q-20 7 -38 -3t-23 -31q-3 -14 2 -26.5t17 -20.5zM193 512
q37 -11 63 15q16 15 19 34.5t-4.5 36t-23.5 27.5t-38 9q-9 -1 -18.5 -3t-17.5 -7q-17 -12 -23 -33q-8 -25 5 -48t38 -31zM911 6q-28 -5 -57 -1t-55 15q-33 16 -59 42t-42 60q-14 31 -17 66.5t7 67.5q13 40 42 73.5t66 52.5q23 12 49.5 17.5t52.5 2.5q38 -5 73.5 -24
t59.5 -49q27 -33 38 -72t7 -78t-23.5 -74.5t-53.5 -60.5q-20 -14 -42.5 -24t-45.5 -14zM845 145q17 -5 33 -1.5t29 16.5q16 16 19 35.5t-4.5 36t-23.5 27t-38 8.5q-9 -1 -18 -3t-17 -7q-9 -5 -15 -14t-9 -18q-8 -26 5 -48.5t39 -31.5z" />
    <glyph glyph-name="ampersand" unicode="&#x26;" horiz-adv-x="802" 
d="M501 -27q-60 -19 -124.5 -20t-124.5 16q-67 19 -118 62q-22 18 -39 41t-29 49q-8 17 -13.5 36t-5.5 38q0 34 18 63q12 20 32 34.5t41 24.5q-29 24 -50.5 57.5t-29.5 70.5q-11 52 2.5 107t43.5 99q23 33 59 55t75 34q48 14 99 16t99 -10q24 -6 46.5 -18.5t39.5 -29.5
q25 -25 43.5 -56.5t27.5 -66.5q6 -20 7.5 -41.5t-3.5 -41.5q-5 -25 -20 -43q-13 -16 -33.5 -29t-43.5 -20.5t-46.5 -8t-42.5 7.5q-7 3 -13 7.5t-9 11.5q-3 6 -4 13t-1 14q2 23 -1 42q-1 10 -3.5 19.5t-10.5 16.5q-9 8 -24 8t-25 -8q-11 -7 -17 -22.5t-9 -34t-3.5 -36.5
t0.5 -31q2 -11 4.5 -22t8.5 -20q5 -8 14 -11.5t18 -4.5q15 0 30.5 3t29.5 -2q13 -4 20 -17.5t8 -27.5q0 -11 -2.5 -22t-8.5 -19.5t-15 -13t-20 -2.5q-18 4 -37 2.5t-35 -11.5q-7 -5 -12 -12t-6 -15q0 -11 7 -21.5t16 -17.5q20 -15 45 -22t50 -5q12 1 24.5 4.5t21.5 11.5
q11 9 16.5 22.5t6.5 27.5q1 20 -6.5 39.5t-8.5 39.5q0 19 8 31q12 20 38 29.5t56.5 12.5t62 1t54.5 -5q19 -3 37.5 -10t32.5 -20q23 -21 28.5 -48t-4 -52t-31.5 -43.5t-53 -21.5q-3 0 -9.5 -0.5l-13 -1t-12.5 -2t-9 -3.5q-4 -3 -6.5 -13.5t-3.5 -15.5q-5 -18 -11.5 -35.5
t-17.5 -33.5q-18 -27 -45.5 -48t-59.5 -31zM438 610q14 -11 29.5 -10t27 10t16.5 23.5t-3 31.5t-26.5 23t-35.5 -2q-11 -6 -17.5 -15.5t-7.5 -20.5t3 -22t14 -18z" />
    <glyph glyph-name="quotesingle" unicode="'" horiz-adv-x="186" 
d="M138 501q-5 -5 -14.5 -7t-20.5 -2.5t-21.5 0t-17.5 0.5q-8 1 -14 8t-7 15q-2 44 -4 87t-7 86q-1 7 0 14t6 12q3 3 10.5 5.5t16 3.5t16 1.5t12.5 0.5q10 0 20.5 -0.5t19.5 -3t15 -8t6 -15.5q0 -9 -1 -34.5t-3 -54t-4 -54t-3 -34.5q0 -5 -0.5 -10.5t-4.5 -9.5z" />
    <glyph glyph-name="quotesingle" unicode="&#x203a;" horiz-adv-x="186" 
d="M138 501q-5 -5 -14.5 -7t-20.5 -2.5t-21.5 0t-17.5 0.5q-8 1 -14 8t-7 15q-2 44 -4 87t-7 86q-1 7 0 14t6 12q3 3 10.5 5.5t16 3.5t16 1.5t12.5 0.5q10 0 20.5 -0.5t19.5 -3t15 -8t6 -15.5q0 -9 -1 -34.5t-3 -54t-4 -54t-3 -34.5q0 -5 -0.5 -10.5t-4.5 -9.5z" />
    <glyph glyph-name="quotesingle" unicode="&#x2039;" horiz-adv-x="186" 
d="M138 501q-5 -5 -14.5 -7t-20.5 -2.5t-21.5 0t-17.5 0.5q-8 1 -14 8t-7 15q-2 44 -4 87t-7 86q-1 7 0 14t6 12q3 3 10.5 5.5t16 3.5t16 1.5t12.5 0.5q10 0 20.5 -0.5t19.5 -3t15 -8t6 -15.5q0 -9 -1 -34.5t-3 -54t-4 -54t-3 -34.5q0 -5 -0.5 -10.5t-4.5 -9.5z" />
    <glyph glyph-name="quotesingle" unicode="&#x201b;" horiz-adv-x="186" 
d="M138 501q-5 -5 -14.5 -7t-20.5 -2.5t-21.5 0t-17.5 0.5q-8 1 -14 8t-7 15q-2 44 -4 87t-7 86q-1 7 0 14t6 12q3 3 10.5 5.5t16 3.5t16 1.5t12.5 0.5q10 0 20.5 -0.5t19.5 -3t15 -8t6 -15.5q0 -9 -1 -34.5t-3 -54t-4 -54t-3 -34.5q0 -5 -0.5 -10.5t-4.5 -9.5z" />
    <glyph glyph-name="quotesingle" unicode="&#x201a;" horiz-adv-x="186" 
d="M138 501q-5 -5 -14.5 -7t-20.5 -2.5t-21.5 0t-17.5 0.5q-8 1 -14 8t-7 15q-2 44 -4 87t-7 86q-1 7 0 14t6 12q3 3 10.5 5.5t16 3.5t16 1.5t12.5 0.5q10 0 20.5 -0.5t19.5 -3t15 -8t6 -15.5q0 -9 -1 -34.5t-3 -54t-4 -54t-3 -34.5q0 -5 -0.5 -10.5t-4.5 -9.5z" />
    <glyph glyph-name="parenleft" unicode="(" horiz-adv-x="561" 
d="M403 -43q-24 -4 -48.5 -3t-48.5 6q-41 7 -80 25t-70 46q-33 30 -56 71t-34 85q-17 69 -19.5 141.5t9.5 142.5q9 47 25 92t41 85q17 26 38 49.5t47 41.5q34 24 74 38t82 18q24 2 48.5 -1t46.5 -14q28 -13 41 -38q11 -20 15 -43.5t4 -46.5q1 -25 -2.5 -50.5t-16.5 -46.5
q-10 -17 -26 -30t-36 -18q-12 -3 -25 -3.5t-26 -0.5t-25.5 -1.5t-24.5 -6.5q-15 -7 -26 -23q-14 -19 -23 -41q-10 -25 -11.5 -52.5t2.5 -53.5q3 -26 15 -51.5t35 -37.5q6 -3 23 -7t37 -7.5t38 -6.5t24 -5q17 -6 31.5 -18.5t22.5 -29.5q11 -23 13 -49.5t-4.5 -52t-20.5 -48
t-35 -36.5q-12 -8 -26 -12.5t-28 -6.5zM292 708q-4 -18 3.5 -31.5t21 -19.5t29 -3.5t26.5 16.5q14 17 9 38t-24 31q-20 10 -40 0t-25 -31z" />
    <glyph glyph-name="parenright" unicode=")" horiz-adv-x="561" 
d="M257 -40q-24 -4 -49 -5.5t-49 2.5q-15 2 -29.5 7t-27.5 14q-20 13 -33.5 35.5t-19.5 48t-4 52t13 48.5q8 17 23.5 30.5t34.5 18.5q7 2 24 5t36 6t36 7t23 7q23 14 34.5 39.5t14.5 51.5q3 27 1.5 54.5t-12.5 52.5q-7 16 -15.5 30.5t-22.5 25.5q-8 6 -18 8l-20 4
q-17 2 -33.5 1.5t-33.5 2.5q-18 3 -34.5 14t-27.5 25q-11 16 -16.5 35.5t-7.5 39.5q-5 46 6 90q5 17 14.5 33.5t23.5 27.5q21 15 48 20t53 4q45 -2 88.5 -16.5t79.5 -40.5q29 -22 53 -50.5t41 -60.5q28 -51 42.5 -107t19.5 -113q5 -58 0 -116t-21 -114q-11 -42 -33 -79.5
t-54 -66.5q-30 -28 -68.5 -45.5t-79.5 -25.5zM277 646q8 -9 22 -10t25 3q8 3 13 8.5t9 12.5q7 11 5.5 27t-8.5 27q-10 16 -28.5 17.5t-34.5 -9.5q-10 -6 -14 -18t-5 -23q-2 -10 3.5 -19t12.5 -16z" />
    <glyph glyph-name="asterisk" unicode="*" horiz-adv-x="265" 
d="M156 513q-3 -8 -10 -11t-13.5 -2.5t-12.5 5.5t-7 14q-2 11 -0.5 23t1.5 24q-10 -8 -19.5 -16.5t-22.5 -11.5q-8 -2 -13.5 2t-8 10t-0.5 13t8 13q8 7 16 13.5t16 13.5q-29 13 -53 27q-8 5 -9.5 12t2.5 13.5t11.5 10t16.5 1.5q15 -4 29.5 -9t28.5 -11q-1 8 -1 15t-1 15
q-1 10 -1.5 20t4.5 18q5 9 16 8.5t16 -10.5q0 -1 2 -3q2 -3 3.5 -10.5t2.5 -15.5t1.5 -15.5t0.5 -11.5q1 1 5.5 4.5t9.5 7.5t9 7.5t6 4.5q8 5 16 5q14 1 20.5 -11t-1.5 -23q-2 -3 -8 -8t-13 -10t-13 -10t-9 -7q3 -1 9 -4t12.5 -6t12.5 -6.5t8 -6.5q3 -4 7 -8t6 -9
q4 -9 -1 -18t-15 -11q-8 -2 -15.5 0.5t-13.5 5.5q-3 2 -15 7.5t-14 7.5q0 -14 -0.5 -28t-5.5 -28z" />
    <glyph glyph-name="plus" unicode="+" horiz-adv-x="476" 
d="M291 73q-20 -14 -48.5 -14t-49.5 11q-22 13 -32 36q-7 18 -7.5 37.5t0.5 39.5q-23 -1 -47 -0.5t-44 12.5q-13 7 -21 20t-11 28t-1 31t8 30q11 24 34 36q18 10 39 13.5t41 5.5q-1 21 0.5 43t12.5 40q7 13 20 21t28 11t31 1t30 -8q24 -11 36 -34q9 -17 12.5 -36t5.5 -39
q17 -1 35 -2.5t35 -7.5q10 -4 19 -10.5t15 -15.5q14 -20 14 -48t-11 -50q-10 -18 -31 -29q-17 -9 -37 -10t-40 0q-1 -20 -2.5 -38.5t-7.5 -36.5q-4 -11 -10.5 -20.5t-15.5 -16.5zM210 375q6 -13 17 -19.5t23.5 -6.5t23.5 6.5t17 19.5q6 12 5 25t-8 22.5t-18 15t-24 4.5
q-12 -1 -21 -7.5t-14 -16t-5.5 -21t4.5 -22.5z" />
    <glyph glyph-name="comma" unicode="," horiz-adv-x="285" 
d="M160 -90q-6 -4 -13.5 -7t-13.5 0q-9 5 -9.5 19t1.5 24q2 14 5 28t5 28q-27 4 -53.5 18.5t-40.5 39.5t-12 57t17 57t41 38.5t54.5 14t55 -12t42.5 -37.5q10 -15 13.5 -34t2.5 -37q0 -30 -7.5 -59.5t-20.5 -56.5q-12 -23 -29 -44t-38 -36zM155 121q9 -8 20 -11t22 -0.5
t19.5 9.5t13.5 18q4 13 1.5 25t-10 21t-19 13.5t-24.5 1.5q-14 -3 -23 -12t-12.5 -20t-0.5 -23.5t13 -21.5z" />
    <glyph glyph-name="hyphen" unicode="-" horiz-adv-x="471" 
d="M226 187q-26 -1 -52 -2.5t-52 -2.5q-16 0 -31.5 2.5t-29.5 10.5q-13 7 -21 20t-11 28t-1 31t8 30q11 24 34 36q18 10 39 14t42 5h41h63.5t63.5 -1t41 -2q19 -3 39 -10.5t31 -23.5q14 -20 14 -48t-11 -50q-10 -18 -31 -29q-11 -6 -25 -8t-27 -2q-32 -1 -62.5 1t-61.5 1z
M305 271q4 -14 14.5 -21t23 -8.5t24 4t19.5 17.5q9 13 7.5 27.5t-10 25t-22 15.5t-28.5 0q-18 -7 -26.5 -24.5t-1.5 -35.5z" />
    <glyph glyph-name="period" unicode="." horiz-adv-x="283" 
d="M206 21q-29 -21 -67 -19q-18 1 -36 8t-33.5 18.5t-26.5 26.5t-13 33q-2 20 0.5 41.5t11.5 40.5q6 11 14.5 20.5t19.5 16.5q20 14 46.5 18t50.5 -2q8 -2 15.5 -4t13.5 -7q11 -7 20.5 -15.5t16.5 -19.5q11 -18 14 -40t-1.5 -43.5t-16 -40.5t-29.5 -32zM140 153q0 -12 6 -22
t16 -16t21.5 -7t23.5 5q14 7 20 19.5t4.5 26t-10.5 24.5t-24 14q-22 5 -39.5 -8t-17.5 -36z" />
    <glyph glyph-name="slash" unicode="/" horiz-adv-x="558" 
d="M238 -23q-18 -15 -41 -21t-47.5 -3.5t-47.5 12t-40 24.5q-22 19 -30 50q-4 16 -3 32.5t4 32.5q4 17 8.5 32.5t9.5 32.5l34 96t35 96q0 1 1 1q22 67 48 132.5t58 128.5q15 30 30.5 60t36.5 56q8 11 18.5 21t23.5 16t27.5 8t28.5 0q24 -2 47.5 -9.5t44.5 -19.5
q13 -8 24 -19.5t17 -25.5q9 -21 8 -45t-6 -46l-4 -12l-4 -12q-1 -6 -7 -20.5t-13.5 -30t-14 -29.5t-9.5 -20q-26 -51 -50 -103t-47 -105q-14 -35 -26.5 -69.5t-24.5 -69.5q-11 -30 -22.5 -59.5t-26.5 -58.5q-16 -32 -40 -53zM450 625q23 -5 41.5 8t18.5 36q0 16 -10 28
t-25 16q-23 5 -41.5 -8.5t-18.5 -36.5q0 -16 10 -28t25 -15z" />
    <glyph glyph-name="zero" unicode="0" horiz-adv-x="736" 
d="M529 26q-45 -26 -98.5 -35.5t-104.5 -4.5q-48 5 -94.5 21t-84.5 45q-15 11 -28.5 24.5t-24.5 29.5q-14 22 -24 46.5t-16 50.5q-14 54 -10 110.5t15 110.5q2 8 2.5 16t2.5 16q8 32 18.5 64t25.5 61q11 24 26 46t35 40q17 16 36 28t39 21q24 10 50.5 13t52.5 4q23 1 45 0.5
t44 -3.5q8 -2 14.5 -3.5t13.5 -3.5q34 -8 66 -23.5t58 -39.5q28 -26 48 -59.5t33 -69.5q12 -35 17 -71.5t6 -72.5q0 -24 -1 -47.5t-4 -46.5q-8 -54 -28 -106.5t-54 -94.5q-33 -41 -76 -66zM500 566q7 -8 17.5 -9.5t20.5 -0.5q11 2 19.5 9t13.5 16t5 20.5t-4 21.5
q-3 9 -11.5 15.5t-18.5 9.5q-9 3 -19.5 0t-18.5 -8q-9 -6 -14 -17t-7 -22q-1 -10 4 -19t13 -16zM361 239q16 -2 31.5 -1t29.5 7q19 8 31.5 26.5t19 41t6.5 46.5t-4 45q-3 15 -8.5 30t-16.5 26q-11 13 -28 20.5t-34 6.5q-14 0 -28 -5.5t-27 -13.5q-14 -8 -26 -20t-18 -27
q-8 -18 -11.5 -41t-2 -45.5t9.5 -42.5t23 -32q11 -9 25 -14t28 -7z" />
    <glyph glyph-name="one" unicode="1" horiz-adv-x="492" 
d="M337 -20q-31 -6 -64.5 -3t-61.5 19q-24 14 -39 40q-12 20 -16 43.5t-5 46.5q-1 28 2 55t7 55l8 60t9 61q-14 -7 -28.5 -11.5t-29.5 -4.5q-15 -1 -30 3t-27 13q-18 13 -26 33q-5 12 -6.5 25.5t0.5 27.5q6 28 22 59q4 9 19 34t32 53t32.5 53t20.5 33q11 18 24.5 34.5
t31.5 26.5q15 8 31.5 10.5t33.5 2.5q23 0 46 -4t43 -14q16 -8 30 -20.5t23 -27.5q13 -24 16 -52.5t2 -55.5q-2 -38 -6.5 -76t-7.5 -76q-2 -37 -1.5 -74t2.5 -74q2 -40 5.5 -79.5t2.5 -79.5q0 -23 -4.5 -45.5t-16.5 -42.5q-12 -19 -32 -31.5t-42 -16.5zM330 675
q-15 -8 -21 -21.5t-3.5 -28t13 -25.5t27.5 -13q29 -3 44 21q9 15 7 30.5t-11.5 26t-24.5 14.5t-31 -4z" />
    <glyph glyph-name="two" unicode="2" horiz-adv-x="696" 
d="M590 -13q-17 -5 -35 -4.5t-36 2.5q-12 1 -45.5 1.5t-72 1t-72 1t-45.5 0.5h-29t-44.5 -0.5t-44.5 -1.5t-29 -2q-23 -5 -44 4q-18 7 -28 26q-12 19 -14.5 44.5t2 51.5t16 50t28.5 40q16 17 37.5 25.5t44.5 13.5q36 9 73 14t72 19q18 7 33.5 19.5t28 28t21 34t12.5 36.5
q7 32 2 64t-22 60q-5 8 -10.5 14.5t-13.5 10.5q-10 5 -20 2t-16 -11q-5 -6 -7 -14t-3 -16q0 -5 -0.5 -20t-0.5 -31.5v-31.5v-20q-1 -17 -4.5 -34t-11.5 -32q-12 -21 -32.5 -33t-45 -16.5t-50 -2t-47.5 11.5q-35 15 -55 45.5t-27.5 68.5t-5 79t13.5 77q10 33 26.5 64.5
t40.5 56.5q18 20 40.5 33.5t46.5 23.5q50 20 104.5 24t107.5 -5q29 -5 56 -14.5t51 -25.5q56 -35 85 -96q11 -23 17 -48.5t8 -51.5q2 -48 -11 -94t-40 -86q-22 -32 -49.5 -60t-53.5 -57q22 2 45 2t43 -8q19 -8 33 -24.5t22 -35.5q10 -26 11 -55.5t-4 -57.5q-4 -21 -18 -37
t-34 -23zM457 624q13 -5 25 -2t20.5 11.5t12.5 20t1 25.5q-5 20 -22.5 29.5t-37.5 2.5q-15 -5 -22.5 -17.5t-7.5 -26t8 -26t23 -17.5z" />
    <glyph glyph-name="three" unicode="3" horiz-adv-x="669" 
d="M405 -16q-50 -7 -101 -7t-99 14q-26 8 -50.5 20.5t-44.5 31.5q-18 17 -32.5 38t-20.5 45q-8 34 4 61.5t37 45.5t58.5 25.5t67.5 0.5q16 -3 29.5 -12t22.5 -22q14 -17 29 -24q20 -7 40.5 0.5t28.5 26.5q6 13 2 23t-14 18.5t-23.5 14.5t-26.5 10q-2 0 -8 1.5t-13 3.5
t-13 3.5t-8 2.5q-8 4 -13 13t-7 18q-2 14 4.5 29t20.5 20q19 7 39.5 6t40.5 3q18 3 31.5 13.5t21 25.5t9 32.5t-4.5 34.5q-5 12 -12 23t-18 17q-21 11 -44 2.5t-36 -28.5q-9 -17 -13 -36t-12 -36q-6 -13 -16.5 -23.5t-23.5 -17.5q-23 -12 -50 -12q-27 1 -53.5 11t-47.5 27
q-8 7 -16 15t-13 18q-8 14 -10.5 30t-1.5 33q2 26 9.5 50.5t19.5 47.5q9 18 21.5 34.5t27.5 29.5q21 17 45 29.5t49 20.5q47 16 97.5 19t98.5 -8q39 -9 76.5 -29t63.5 -51q20 -24 32 -54.5t18 -61.5q11 -55 0.5 -114t-42.5 -106q21 -20 36.5 -46t22.5 -55q7 -31 1 -66
q-5 -23 -16.5 -44.5t-26.5 -39.5q-32 -38 -78 -63.5t-95 -31.5zM419 664q-9 -19 -3 -35t19.5 -25t30 -8t29.5 17q12 15 11 35t-17 32q-17 13 -38.5 8t-31.5 -24z" />
    <glyph glyph-name="four" unicode="4" horiz-adv-x="732" 
d="M554 -32q-22 -3 -47 -0.5t-48.5 11t-41 22.5t-24.5 35q-5 14 -5.5 29t0.5 30.5t1.5 31t-2.5 30.5q-5 1 -17 1.5t-25.5 0.5h-26h-17.5q-45 0 -89 1t-88 11q-16 4 -31.5 12t-26.5 19q-13 14 -21 32.5t-11 37.5q-5 33 1.5 67t21.5 63q25 48 57 91.5t64 88.5q16 23 31 46.5
t32 46.5q12 16 26 30t31 25q17 10 38 13t42.5 -1.5t40.5 -14.5t33 -25q17 28 46 42q32 14 66 8q20 -3 39.5 -13.5t33.5 -24.5t23 -32.5t14 -38.5q8 -38 4 -76.5t-7 -76.5q-8 -81 -10 -162.5t9 -162.5q3 -27 3.5 -55.5t-8.5 -54.5q-12 -36 -42 -59.5t-69 -27.5zM525 658
q-5 -11 -4.5 -22t5.5 -20t14.5 -15.5t21.5 -7.5q23 -3 38.5 15t10.5 41q-4 16 -15.5 24.5t-25 10t-26 -4.5t-19.5 -21zM290 355q3 -10 13 -15t22.5 -6.5t25.5 -1.5t23 1l16 2t15 4q6 2 9.5 8.5t6 14.5t3.5 16t2 14q1 9 0.5 31t-1.5 47t-3 47.5t-3 31.5q-22 -15 -40.5 -34.5
t-35.5 -39.5q-8 -10 -19 -25.5t-20 -32.5t-14 -33.5t0 -28.5z" />
    <glyph glyph-name="five" unicode="5" horiz-adv-x="680" 
d="M386 -41q-45 -5 -90.5 -5t-90.5 4q-30 3 -61 11.5t-54 28.5q-17 14 -27 36t-12 45q-1 41 16 82q7 17 18 32.5t27 25.5q12 7 26.5 9t28.5 0q23 -4 45.5 -10t46.5 -8q12 -1 29 0.5t33.5 5.5t29.5 11.5t19 18.5q9 16 -2 31.5t-28 22.5q-20 8 -41 11t-41 5q-30 2 -60 -0.5
t-59 0.5q-16 2 -31.5 9t-24.5 21q-10 13 -15.5 28.5t-8.5 31.5q-6 33 -7.5 66t0.5 66q2 26 6.5 52t12.5 51q6 19 16 36t24 30q17 15 39.5 22t45.5 9q3 0 11.5 1t17.5 1.5t17.5 0.5h11.5q4 0 15.5 1t24.5 2t24.5 2t15.5 1q32 3 63.5 4.5t63.5 0.5q20 -1 39.5 -2t38.5 -6
q17 -4 32 -11.5t26 -20.5q8 -9 13 -20.5t8 -22.5q7 -25 4.5 -51t-13.5 -49q-6 -13 -16 -24t-23 -17q-17 -8 -36 -10.5t-38 -0.5q-32 3 -64 9l-64 12q-5 1 -20 3.5t-32.5 5.5t-32.5 5.5t-20 2.5q1 -20 1 -39t2 -38q35 1 70.5 2.5t70.5 -1.5t68.5 -11.5t63.5 -25.5
q17 -8 30.5 -21t24.5 -28q14 -20 21.5 -44.5t11.5 -49.5q8 -52 1.5 -105.5t-29.5 -100.5q-22 -46 -62 -79q-31 -26 -71 -38t-80 -17zM464 683q-5 -15 -1 -28t14 -21t24 -10.5t28 4.5q13 6 19 17.5t6 23.5t-6 23t-19 17q-19 10 -38.5 2t-26.5 -28z" />
    <glyph glyph-name="six" unicode="6" horiz-adv-x="672" 
d="M462 17q-73 -26 -148 -22q-41 2 -81.5 13.5t-74.5 34.5q-40 28 -65 71q-25 46 -35 98.5t-12 105.5q-2 50 2.5 99t17.5 97q11 37 28.5 72t43.5 64q35 36 81 60.5t95 32.5q46 8 92 10.5t92 -3.5q12 -2 24 -6.5t22 -13.5q12 -12 19.5 -28t11.5 -33q3 -18 0.5 -37t-10.5 -35
q-13 -26 -38 -37q-13 -6 -27.5 -7.5t-28.5 -1.5q-26 0 -51.5 2t-51.5 -2q-17 -2 -34 -9t-28 -20q-11 -11 -14.5 -26.5t-5.5 -31.5q45 14 92.5 20.5t94.5 -1.5q30 -5 59.5 -19.5t49.5 -37.5q18 -20 28.5 -45t15.5 -51q9 -48 2 -98t-28 -94q-18 -38 -49 -67q-19 -18 -42 -31.5
t-47 -22.5zM449 650q10 -10 22 -13t23.5 0t20.5 11.5t12 22.5q5 22 -9 38.5t-37 16.5q-15 0 -25.5 -8t-15.5 -19.5t-3.5 -25t12.5 -23.5zM271 266q-2 -20 6.5 -35.5t22.5 -24t32 -9t35 10.5q13 8 20 21.5t7.5 28.5t-5.5 29.5t-19 23.5q-15 10 -31.5 11t-30.5 -5.5
t-24.5 -19.5t-12.5 -31z" />
    <glyph glyph-name="seven" unicode="7" horiz-adv-x="619" 
d="M289 -42q-24 -1 -47.5 4.5t-45.5 14.5q-16 7 -31.5 15.5t-27.5 20.5q-8 7 -12.5 16t-6.5 19q-11 42 -4.5 85.5t20.5 83.5q25 73 61.5 140.5t74.5 133.5q-27 -3 -54 -6.5t-55 -1.5q-20 2 -41 7t-38 16q-16 9 -28 26q-8 12 -12.5 26.5t-6.5 28.5q-8 55 12 104q10 24 31 45
q20 19 48.5 27.5t56.5 7.5q42 -2 84.5 -4.5t84.5 -5.5q23 -2 46.5 -1.5t46.5 -0.5q22 0 43.5 -1t41.5 -8q14 -5 27 -15t21 -24q11 -20 12.5 -43t-2.5 -46q-5 -28 -13.5 -54.5t-19.5 -52.5q-15 -33 -27 -67t-25 -68q-22 -61 -42 -122t-38 -124q-8 -29 -16.5 -58.5
t-22.5 -56.5q-8 -14 -17.5 -26.5t-23.5 -20.5q-12 -8 -26 -10.5t-28 -3.5zM440 630q8 -5 17 -5t17 1t14.5 6t11.5 10q8 8 9 22t-3 25q-3 9 -11.5 15.5t-18.5 9.5q-10 4 -21.5 1t-20.5 -9q-8 -5 -12.5 -15t-5.5 -20q-2 -12 6 -23.5t18 -17.5z" />
    <glyph glyph-name="eight" unicode="8" horiz-adv-x="670" 
d="M472 -7q-60 -24 -126.5 -24.5t-128.5 17.5q-34 11 -66 27t-56 42q-29 31 -42 74t-11.5 88.5t16 89.5t41.5 77q14 17 31.5 30t37.5 22q-24 20 -39.5 49t-21.5 61t-0.5 63.5t23.5 57.5q15 22 36.5 37.5t44.5 26.5q41 18 85.5 25.5t88.5 3.5q26 -2 52.5 -8.5t50.5 -17.5
q23 -11 43 -26.5t34 -36.5q26 -42 23 -94q-2 -42 -19.5 -82.5t-43.5 -72.5q24 -14 43.5 -35t32.5 -47q18 -36 23 -78.5t-1 -82.5q-5 -29 -15.5 -56t-27.5 -50q-20 -27 -48 -47.5t-60 -32.5zM429 674q-8 -16 -3.5 -31t16 -24t27 -10t29.5 10q26 21 15 53q-5 14 -16 21.5
t-24 7.5t-25 -7t-19 -20zM332 479q12 -2 24 -0.5t22 6.5q18 11 21 32t-13 35q-5 4 -13 6.5t-17 4t-17.5 1t-14.5 -1.5q-22 -5 -34.5 -23.5t-0.5 -37.5q7 -10 19 -15t24 -7zM310 219q10 -2 24.5 -2.5t29 1t27 6.5t19.5 13q14 16 14 37t-19 31q-15 8 -32 10t-34 2
q-9 1 -20 -1.5t-21 -7.5t-17 -12t-10 -16t-3 -19.5t5 -18.5q6 -9 16 -14.5t21 -8.5z" />
    <glyph glyph-name="nine" unicode="9" horiz-adv-x="671" 
d="M332 -1q-47 -5 -94 -4.5t-93 10.5q-13 2 -25.5 8.5t-21.5 17.5q-12 15 -18.5 34.5t-6.5 39.5t6.5 39t20.5 33q23 23 55 25q28 2 56 -2.5t56 -5.5q16 0 32 2t30 8q19 8 31 23q8 11 11.5 23t5.5 25q-46 -11 -94 -13.5t-94 8.5q-30 8 -58 24t-47 41q-16 20 -24.5 44.5
t-12.5 50.5q-5 43 2 87t26 83q11 24 27 46t36 39q32 26 76 42q45 17 94 20.5t97 -5.5q36 -7 71 -22t64 -39q34 -30 53 -70q23 -48 29 -101.5t4 -106.5q-2 -51 -10.5 -101.5t-25.5 -98.5q-13 -34 -32 -65.5t-45 -56.5q-37 -34 -84 -55.5t-97 -26.5zM447 599q6 -10 17.5 -14
t23 -2.5t21.5 8t14 17.5q2 5 3 9.5t2 9.5q2 18 -11.5 31t-32.5 15q-5 0 -10 -1t-10 -3q-9 -4 -15.5 -13t-9.5 -19q-4 -9 -0.5 -19.5t8.5 -18.5zM304 434q12 -11 27 -13.5t29.5 2t26 15t16.5 26.5q7 20 0.5 38t-20 29t-32.5 13.5t-37 -7.5q-14 -8 -22 -21t-9.5 -27.5t4 -29.5
t17.5 -25z" />
    <glyph glyph-name="colon" unicode=":" horiz-adv-x="313" 
d="M225 337q-29 -21 -66 -20q-18 1 -36.5 8t-34 18.5t-26 27t-12.5 32.5q-3 21 -0.5 42.5t12.5 39.5q10 22 33 38q21 13 47 17t50 -1q8 -2 15.5 -4t14.5 -7q11 -8 20 -16.5t16 -19.5q12 -18 15 -40t-1.5 -43.5t-16.5 -40.5t-30 -31zM160 469q0 -13 6 -23t15.5 -15.5
t21.5 -6.5t23 4q14 7 20 20t4.5 26t-10 24t-24.5 15q-21 5 -38.5 -8.5t-17.5 -35.5zM218 21q-29 -21 -67 -19q-18 1 -36 8t-33.5 18.5t-26.5 26.5t-13 33q-2 20 0.5 41.5t11.5 40.5q6 11 14.5 20.5t19.5 16.5q20 14 46.5 18t50.5 -2q8 -2 15.5 -4t13.5 -7q11 -7 20.5 -15.5
t16.5 -19.5q11 -18 14 -40t-1.5 -43.5t-16 -40.5t-29.5 -32zM152 153q0 -12 6 -22t16 -16t21.5 -7t23.5 5q14 7 20 19.5t4.5 26t-10.5 24.5t-24 14q-22 5 -39.5 -8t-17.5 -36z" />
    <glyph glyph-name="semicolon" unicode=";" horiz-adv-x="314" 
d="M225 337q-29 -22 -67 -20q-18 1 -36 8t-33.5 18.5t-26.5 27t-13 32.5q-2 21 0.5 42.5t11.5 39.5q12 22 34 38q20 13 46.5 17t50.5 -1q8 -2 15.5 -4t13.5 -7q11 -8 20.5 -16.5t16.5 -19.5q11 -18 14 -40t-1.5 -43.5t-16 -40.5t-29.5 -31zM159 469q0 -13 6 -23t16 -15.5
t21.5 -6.5t23.5 4q14 7 20 20t4.5 26t-10 24t-24.5 15q-22 5 -39.5 -8.5t-17.5 -35.5zM171 -90q-6 -4 -13.5 -7t-13.5 0q-9 5 -9.5 19t1.5 24q2 14 5 28t5 28q-27 4 -53.5 18.5t-40.5 39.5t-12 57t17 57t41 38.5t54.5 14t55 -12t42.5 -37.5q10 -15 13.5 -34t2.5 -37
q0 -30 -7.5 -59.5t-20.5 -56.5q-12 -23 -29 -44t-38 -36zM166 121q9 -8 20 -11t22 -0.5t19.5 9.5t13.5 18q4 13 1.5 25t-10 21t-19 13.5t-24.5 1.5q-14 -3 -23 -12t-12.5 -20t-0.5 -23.5t13 -21.5z" />
    <glyph glyph-name="less" unicode="&#x3c;" horiz-adv-x="481" 
d="M337 52q-20 -1 -40.5 4.5t-40.5 12.5q-39 12 -76 31.5t-69 45.5q-20 15 -37.5 32t-27.5 40q-14 32 -12 70t18 70q12 25 32 45l4 4l4 4q14 20 34 35t40 28q23 14 47 25.5t49 20.5q22 8 46 13t47 0q26 -5 46 -22t31 -42q4 -10 5 -20t1 -21q0 -14 -1.5 -27.5t-8.5 -25.5
q-6 -11 -15 -19t-19 -14q-4 -2 -14.5 -8t-22.5 -12.5t-22.5 -12t-14.5 -7.5q17 -8 34.5 -14.5t34.5 -14.5t29 -23t17 -33t4 -37.5t-6.5 -38.5t-15.5 -36t-23 -29q-24 -22 -57 -24zM277 465q-10 -12 -10 -26.5t7 -25.5t19.5 -17.5t28.5 -2.5q23 5 32.5 26.5t-3.5 41.5
q-6 10 -15.5 15.5t-20 6t-21 -4t-17.5 -13.5z" />
    <glyph glyph-name="equal" unicode="=" horiz-adv-x="497" 
d="M153 348q-17 -1 -33 -0.5t-32 5.5q-17 5 -28.5 16.5t-17 27t-5 33t6.5 34.5q10 26 33 40q18 11 40 15.5t44 4.5q7 0 23 0.5t36.5 0.5t43 -0.5t43 -0.5t36.5 -0.5t23 -1.5q20 -2 41 -9.5t33 -24.5q14 -20 14 -48t-11 -50q-13 -23 -36 -32q-17 -7 -36.5 -7.5t-38.5 -0.5
q-48 3 -96 3l-42 -2t-41 -3zM320 454q-2 -19 10 -33t31 -16q20 -2 34.5 12.5t16.5 34.5q2 19 -11.5 31.5t-32.5 14.5q-5 1 -9.5 -0.5t-9.5 -3.5q-12 -4 -19.5 -16t-9.5 -24zM160 115q-17 -1 -33 -1t-32 5q-18 5 -30 17.5t-17.5 29t-4 35t9.5 35.5q11 23 33 36q19 10 40 14
t42 5q13 0 44.5 0.5t67.5 0t67.5 -2t44.5 -4.5q15 -3 30 -10t25 -20q14 -20 14 -48.5t-11 -50.5q-11 -20 -33 -30q-12 -5 -25 -7t-26 -2q-23 -1 -46.5 0t-47.5 2q-28 1 -56 -0.5t-56 -3.5z" />
    <glyph glyph-name="greater" unicode="&#x3e;" horiz-adv-x="481" 
d="M203 61q-16 -5 -32 -7.5t-32 -0.5q-19 2 -36.5 13t-29.5 26q-15 19 -22 43t-9 48q-1 20 5.5 39.5t20.5 33.5q18 19 44 27t50 19q-4 2 -14.5 7.5t-22.5 12t-22.5 12t-13.5 7.5q-11 6 -20.5 14.5t-15.5 19.5t-8 23.5t-2 25.5q0 11 1 22t5 21q12 31 39.5 50t59.5 18
q20 0 38.5 -5t36.5 -11q22 -8 42.5 -18.5t40.5 -21.5q23 -14 45 -30t38 -38l3.5 -3.5l3.5 -3.5q19 -17 31.5 -42t17.5 -52t1.5 -54.5t-16.5 -48.5q-14 -22 -33 -39t-39 -32q-35 -26 -74 -44t-81 -31zM155 441q-2 -19 12.5 -32t34.5 -15q12 -1 23 6.5t18 18.5q10 16 3 33.5
t-23 27.5q-9 6 -20 5.5t-21 -4.5q-11 -4 -18 -16t-9 -24z" />
    <glyph glyph-name="question" unicode="?" horiz-adv-x="556" 
d="M398 237q-7 -15 -20.5 -23.5t-30 -12t-34.5 -2.5t-33 6q-12 3 -23 11t-16 19q-5 10 -4.5 21.5t2.5 22.5q5 17 13.5 31.5t19.5 28.5q17 24 34.5 47t29.5 49q8 16 11.5 35t-4.5 34q-10 20 -31.5 20t-33.5 -18q-3 -4 -4.5 -12.5t-3 -18.5t-2 -19t-0.5 -13q-2 -20 -6.5 -40.5
t-17.5 -36.5q-14 -16 -33 -25.5t-40.5 -11.5t-43 2.5t-39.5 16.5q-16 11 -26.5 28.5t-15.5 35.5q-8 28 -8.5 57.5t-1.5 58.5q-1 28 8 55t23 51q13 24 32 43.5t42 33.5q26 17 55 26t59 12q36 3 76.5 -5.5t77 -27t64 -46t37.5 -62.5q12 -40 11.5 -83.5t-16.5 -81.5
q-14 -32 -36.5 -58.5t-39.5 -57.5q-11 -21 -16 -44.5t-15 -45.5zM363 685q-17 -14 -18 -31.5t8 -31t26 -19t35 6.5q18 11 22 31.5t-9 36.5q-12 15 -30.5 17t-33.5 -10zM402 89q6 -32 -6.5 -57.5t-36.5 -40.5t-54.5 -17.5t-59.5 11.5q-26 14 -39 41q-1 1 -2 5t-2 5
q-14 22 -10.5 46.5t21.5 41.5q14 14 31.5 25t37.5 15q20 3 39.5 -0.5t36 -13.5t28.5 -25.5t16 -35.5z" />
    <glyph glyph-name="at" unicode="@" horiz-adv-x="857" 
d="M538 -69q-35 -3 -71 -2.5t-71 4.5q-25 2 -49.5 5.5t-48.5 10.5q-37 10 -72.5 26t-64.5 42q-24 21 -42 47.5t-32 55.5q-13 28 -22.5 56.5t-14.5 58.5q-8 44 -7.5 88t8.5 88q11 62 44.5 118.5t80.5 98.5q63 56 144 89.5t166 35.5q43 1 86.5 -8.5t81.5 -29.5q42 -21 77 -54
t57 -75q35 -67 29 -142q-4 -54 -27 -105.5t-63 -86.5q-27 -24 -66.5 -33.5t-75.5 -0.5q-14 4 -26 11.5t-22 17.5q-14 -17 -31.5 -31t-37.5 -21q-26 -9 -53.5 -5t-50.5 21q-25 19 -39 47.5t-18 60.5t2.5 65t21.5 60q11 17 25 32t32 25q15 9 33 13.5t36 5.5q30 1 57.5 -15.5
t50.5 -36.5q6 7 13 8t13.5 -2t10.5 -9.5t4 -15.5v-16t1.5 -18t4.5 -16.5t9 -10.5q5 -3 11 -0.5t11 7.5q13 13 17.5 31t2.5 37.5t-9.5 38t-18.5 33.5q-25 32 -62 47q-29 11 -61 13t-63 -4q-41 -8 -78.5 -29.5t-65.5 -52.5q-15 -17 -26.5 -37t-18.5 -43q-11 -36 -14.5 -75
t2.5 -77q4 -20 10.5 -38.5t17.5 -35.5q12 -20 30 -35t38 -23q29 -11 62 -12t65 3q45 5 88 14t88 12q12 1 25 1t25 -4q24 -9 35 -32q8 -17 8 -36t-5 -36q-7 -27 -24 -52t-41 -39q-29 -18 -63 -24.5t-69 -8.5zM581 667q-4 -18 4 -31.5t21.5 -19.5t29.5 -3.5t28 17.5
q8 10 9.5 21t-2 21.5t-12 18.5t-20.5 11q-19 5 -36 -6t-22 -29zM419 315q13 -5 31 4t28 18q8 8 13.5 17t7.5 20q2 14 -5 29t-21 20q-8 3 -16.5 0.5t-15.5 -7.5q-13 -10 -21.5 -24.5t-12.5 -30.5q-2 -12 -0.5 -26.5t12.5 -19.5z" />
    <glyph glyph-name="A" unicode="A" horiz-adv-x="754" 
d="M204 -26q-19 -4 -43 -4.5t-47.5 4t-43.5 14.5t-29 27q-11 17 -10 38.5t0 41.5q-1 66 6.5 130.5t19.5 127.5q11 52 26 102t39 97q16 32 37 61t47 52q59 54 135 74q38 11 78 11.5t77 -10.5q45 -14 78 -47q31 -30 53.5 -67t37.5 -77q26 -69 35.5 -141.5t13.5 -145.5
q2 -53 2 -107.5t-21 -102.5q-7 -14 -16 -27t-21 -22q-10 -8 -22 -13.5t-24 -9.5q-29 -8 -59.5 -8.5t-57 8.5t-46.5 27.5t-27 47.5q-6 26 -1 51.5t4 51.5q-34 0 -67.5 1t-66.5 -1q0 -14 2 -28.5l4 -29t3 -28.5t-2 -28q-5 -21 -18 -34q-15 -14 -35 -22.5t-41 -13.5zM507 582
q9 -12 21.5 -15.5t24.5 -0.5t22 12.5t13 23.5q5 24 -12.5 41.5t-41.5 12.5q-12 -3 -21 -11.5t-13 -19t-2.5 -22t9.5 -21.5zM319 301q6 0 21 -1.5t32 -2t32 -1t21 0.5q12 3 19.5 11.5t11 20.5t3.5 26t-1 27q-4 29 -13.5 56.5t-26.5 50.5q-8 10 -16.5 19t-19.5 12
q-10 2 -20 -1.5t-18 -9.5q-26 -20 -41 -50.5t-23 -62.5q-5 -18 -7 -37.5t7 -36.5q5 -10 16.5 -15t22.5 -6z" />
    <glyph glyph-name="B" unicode="B" horiz-adv-x="739" 
d="M505 -20q-47 -5 -93.5 -6.5t-94.5 1.5q-39 2 -77.5 8t-75.5 20q-20 8 -39 20.5t-31 30.5q-5 5 -7.5 11.5t-4.5 12.5q-6 17 -9.5 33.5t-6.5 33.5q-8 47 -12.5 94.5t-7.5 95.5q-3 45 -4 90t4 90q4 30 13.5 59.5t26.5 54.5q8 12 18.5 22.5t21.5 19.5q51 37 113 56
q60 20 123 23.5t126 -4.5q24 -3 48 -10t44 -20q23 -14 39 -35t24 -47q7 -23 6 -47t-9 -46q-17 -42 -51 -75.5t-72 -59.5q23 -2 44 -11t40 -22q35 -23 63.5 -57t42.5 -74q8 -24 8.5 -50.5t-6.5 -50.5q-8 -31 -27 -59t-45 -48q-28 -22 -62.5 -35.5t-69.5 -18.5zM510 617
q8 -5 19 -4.5t20 3.5q11 4 17.5 16t8.5 24t-6 23.5t-19 18.5q-7 4 -14.5 4.5t-15.5 -0.5q-12 -2 -22 -12t-13 -22q-3 -16 3 -30q7 -13 22 -21zM297 525q-13 -23 -16.5 -49.5t-1.5 -52.5q24 2 48 8t46 18q11 6 21 17.5t16.5 25.5t8.5 28.5t-1 26.5q-6 22 -27 27.5t-42 -2.5
q-35 -14 -52 -47zM311 195q22 -15 48.5 -20.5t52.5 -2.5q14 2 28.5 6t24.5 15q16 17 10.5 40.5t-24.5 38.5q-12 9 -30 15.5t-37.5 9.5t-37.5 1t-31 -9q-8 -4 -13 -10.5t-8 -14.5q-4 -14 -2 -28t7 -28q2 -5 5 -8t7 -5z" />
    <glyph glyph-name="C" unicode="C" horiz-adv-x="701" 
d="M457 -22q-60 -9 -121.5 -11t-119.5 15q-34 11 -64 32t-50 50q-27 41 -42 88.5t-22 95.5q-7 54 -2.5 108t15.5 108q11 51 36 98.5t61 85.5q27 28 60 49.5t69 34.5q56 19 112 17q47 -2 94 -16.5t82 -45.5q38 -33 61.5 -79.5t36.5 -95.5q5 -20 6.5 -39.5t-1.5 -39.5
q-4 -22 -16 -42t-31 -31q-16 -10 -38.5 -15t-46 -5t-45 5t-36.5 16q-18 14 -28.5 35t-19.5 42q-5 11 -11.5 20.5t-15.5 16.5q-20 13 -46.5 8.5t-42.5 -23.5q-12 -14 -18 -40t-7 -54.5t2 -56t8 -45.5q4 -14 9.5 -27t15.5 -23q12 -14 31 -17q12 -2 24.5 -0.5t24.5 5.5
q32 10 63 24.5t64 22.5q9 2 18.5 3.5t19.5 -0.5q23 -3 42 -16t32 -32t19.5 -42.5t5.5 -47.5q-1 -25 -12 -49.5t-31 -41.5q-29 -24 -68 -32t-77 -13zM459 599q11 -15 26.5 -17t29 4.5t21 20.5t3.5 32q-5 21 -24 30.5t-39 -0.5q-20 -9 -25.5 -31t8.5 -39z" />
    <glyph glyph-name="D" unicode="D" horiz-adv-x="750" 
d="M428 -9q-57 -13 -115 -14.5t-115 2.5q-10 1 -25.5 2t-30.5 4t-27.5 8t-16.5 14q-7 13 -10.5 26.5t-6.5 27.5q-8 36 -12.5 72t-7.5 72q-5 57 -8.5 113.5t-5.5 113.5q-1 41 0.5 81.5t8.5 80.5q5 28 13.5 54.5t25.5 49.5q14 20 34.5 35t43.5 25q43 17 91 19.5t95 -5.5
q38 -6 76 -16.5t73 -29.5q44 -24 80 -60t62 -78q31 -51 48 -108.5t22 -117.5q2 -35 -1 -71t-15 -70q-17 -47 -48 -87.5t-71 -71.5q-34 -26 -74.5 -43.5t-82.5 -27.5zM443 616q6 -4 13.5 -4.5t15.5 1.5q5 0 10 3l10 6q8 5 12 15t6 19q1 10 -4 19.5t-12 16.5q-8 8 -19 9.5
t-22 0.5q-18 -2 -27.5 -18.5t-7.5 -34.5q2 -11 9 -19t16 -14zM313 214q8 -6 19 -7t22 0q67 6 101 64q17 29 18.5 64t-7.5 67q-8 28 -23 54t-36 46q-10 9 -23 14.5t-26 7.5q-21 2 -44.5 -4t-29.5 -26q-5 -16 -6 -32.5t-1 -33.5q-2 -42 0.5 -83t13.5 -82q1 -4 3.5 -11.5
t5.5 -15t6.5 -13.5t6.5 -9z" />
    <glyph glyph-name="E" unicode="E" horiz-adv-x="603" 
d="M292 -16q-32 -1 -65 0.5t-65 11.5q-25 8 -48 21.5t-38 34.5q-15 20 -22.5 44.5t-9.5 49.5q-5 36 -3 72l4 72q5 67 12 133.5t20 132.5q6 33 14.5 66t25.5 62q11 17 26.5 31t35.5 21q57 20 117.5 19.5t120.5 -8.5q30 -5 61.5 -10.5t56.5 -23.5q23 -16 33 -43
q5 -16 4.5 -34.5t-6 -36t-16 -31.5t-25.5 -22q-12 -7 -27 -7t-28 5q-35 14 -71.5 25t-74.5 10q-15 -1 -31.5 -5.5t-24.5 -17.5q-4 -7 -7.5 -17.5t-5.5 -22t-1.5 -22.5t4.5 -18q6 -11 25.5 -14.5t32.5 -2.5q13 0 25.5 1.5t25.5 2.5q14 2 27.5 1t25.5 -6q10 -5 17 -14t12 -19
q8 -21 7.5 -43.5t-8.5 -41t-24 -29.5t-39 -9q-9 0 -27 2.5t-37.5 4t-37 1.5t-25.5 -3q-2 -1 -4 -3q-11 -17 -14.5 -36t2.5 -39q4 -16 13 -24q4 -4 13 -5t18.5 0t19 3t15.5 4q9 2 31.5 8.5t48 13.5t48 13t31.5 6q17 0 33 -6.5t27 -18.5q13 -15 20 -37.5t8 -47.5t-4 -49
t-14 -42q-6 -11 -15 -21t-20 -16q-19 -10 -40.5 -13t-42.5 -6q-35 -4 -70 -5.5t-70 -1.5zM423 652q6 -18 20.5 -25.5t29.5 -5t26.5 14t11.5 30.5q0 18 -14.5 32t-31.5 13q-23 -1 -36.5 -19t-5.5 -40z" />
    <glyph glyph-name="F" unicode="F" horiz-adv-x="612" 
d="M338 6q-11 -17 -31.5 -27.5t-44.5 -16.5t-49 -6.5t-44 3.5q-12 3 -24 9t-20 15q-14 14 -21.5 32t-11.5 37q-15 75 -23.5 150t-14.5 150q-5 58 -8 116t2 116q3 26 9 51.5t20 47.5q20 29 53 43q20 8 40.5 12.5t41.5 7.5q42 5 84 7.5t84 3.5q29 1 57 0.5t57 -5.5
q16 -2 32 -8.5t28 -17.5q11 -10 17.5 -24t9.5 -28q6 -26 3.5 -53.5t-13.5 -51.5q-6 -13 -14.5 -24.5t-19.5 -19.5t-25 -11t-28 -5q-29 -2 -58.5 2t-59.5 6q-8 0 -17.5 1.5t-18.5 1t-16 -3.5t-9 -10q-1 -3 -1 -9t0.5 -13t1 -13t0.5 -9q1 -7 3 -21.5t7 -18.5q4 -3 12.5 -4.5
t18.5 -2t19 0t14 0.5q26 2 52 6.5t52 2.5q17 -2 34.5 -9t28.5 -21q9 -12 13 -31t3.5 -40t-4.5 -41t-10 -34q-3 -7 -7 -14t-10 -12q-7 -5 -16.5 -6t-18.5 -1q-14 0 -37 2.5t-47 3t-44.5 -3t-29.5 -14.5q-5 -7 -7 -19q0 -7 2.5 -24.5t5.5 -38t5.5 -38l3.5 -24.5
q2 -14 -0.5 -28t-10.5 -26zM429 652q6 -14 24 -21.5t33 -1.5q8 3 14 9.5t11 14.5q12 18 2.5 37t-29.5 27q-13 5 -28 -2t-23 -18q-7 -9 -8 -21.5t4 -23.5z" />
    <glyph glyph-name="G" unicode="G" horiz-adv-x="712" 
d="M552 20q-38 -29 -87.5 -42t-97.5 -11q-51 2 -100.5 21.5t-89.5 51.5q-48 39 -81 96t-46 118q-15 72 -15.5 147.5t19.5 147.5q11 38 29 74.5t47 62.5q27 25 62 39t70 19q56 9 112 4t112 -14q28 -5 56 -12t51 -23q30 -21 43 -55q8 -23 8.5 -48t-7.5 -48q-14 -43 -50 -68
q-21 -14 -45 -16q-17 -2 -34 2.5t-33 10.5q-29 11 -58 24.5t-61 17.5q-21 3 -42.5 -8t-32.5 -28t-15 -36.5t-6 -39.5q-3 -52 9 -100q6 -34 25 -58q17 -21 40 -32t47.5 -10.5t47 11.5t37.5 34q9 13 15 30q-7 0 -25 -0.5t-37.5 -0.5t-37.5 0.5t-25 2.5q-11 3 -18 14t-10 22
q-4 20 2 45.5t23 35.5q10 6 22 8t23 2q24 1 47.5 -2.5t47.5 -5.5q31 -2 62 -2t60 -11q18 -7 33 -21.5t22 -32.5q10 -26 11 -55.5t-4 -58.5q-11 -59 -44 -112.5t-81 -89.5zM473 665q-9 -18 -2.5 -33.5t20 -24t30.5 -7.5t30 17q11 15 9 33.5t-16 30.5q-17 14 -39 9t-32 -25z
" />
    <glyph glyph-name="H" unicode="H" horiz-adv-x="756" 
d="M312 -4q-15 -21 -40.5 -32.5t-55 -15t-59.5 0.5t-54 14q-41 17 -44 62v20.5t0.5 33.5t1 33.5t0.5 20.5q2 82 1.5 163t-1.5 162q0 48 -4.5 96t-1.5 96q1 15 4 30.5t11 28.5q16 24 44 33q17 6 41.5 6.5t49.5 -3t47.5 -11.5t35.5 -20q14 -14 21.5 -32t10.5 -38
q9 -53 8.5 -105.5t1.5 -106.5q32 3 64 2t64 -5v70t7 70q4 17 10.5 33t17.5 29q20 24 54 34q25 7 50.5 5.5t50.5 -8.5q16 -5 29.5 -17.5t20.5 -28.5q11 -23 13 -49t2 -52q-1 -39 -6.5 -77.5t-9.5 -77.5q-5 -45 -5.5 -88.5t-0.5 -88.5q1 -20 1.5 -39.5t-0.5 -39.5
q0 -16 -1.5 -31t-6.5 -29q-4 -11 -11 -20t-15 -16q-26 -20 -60 -26.5t-66 0.5q-21 4 -40 16.5t-30 31.5q-12 22 -18 46.5t-9 49.5q-2 21 -3.5 42t-1.5 43q-20 3 -40 4l-40 2q-1 0 -1 -3v-4q-3 -32 -4 -63.5t-5 -63.5q-3 -23 -8.5 -45.5t-19.5 -41.5zM574 576
q0 -18 10.5 -29.5t24.5 -14.5t28.5 3t22.5 22q10 20 0.5 39t-30.5 24q-22 5 -39 -8.5t-17 -35.5z" />
    <glyph glyph-name="I" unicode="I" horiz-adv-x="409" 
d="M276 -7q-16 -4 -32 -5t-32 -1q-20 1 -40.5 4t-38.5 12q-11 5 -20.5 12.5t-16.5 17.5q-21 29 -28 65.5t-11 72.5q-12 138 -6 279q0 1 -1 4.5t-1 5.5q0 5 1 19t2 30t2 30t1 19q2 29 6.5 57t17.5 54q12 24 35 40t48 24q42 12 86 9q23 -2 47 -11t39 -27q16 -17 21 -41t5 -47
q0 -48 -5 -94.5t-7 -93.5q-3 -56 -2.5 -111t2.5 -110q2 -35 2 -70t-5 -70q-2 -14 -7 -27t-15 -23q-9 -10 -21.5 -16t-25.5 -8zM239 595q14 -12 33 -9.5t31 16.5q14 17 9 38t-25 31q-18 9 -33.5 2.5t-24 -19.5t-7.5 -30t17 -29z" />
    <glyph glyph-name="J" unicode="J" horiz-adv-x="703" 
d="M470 4q-48 -17 -98 -22t-101 -4q-37 1 -74 8t-71 21q-22 9 -42 22t-35 31q-19 24 -28.5 55t-8.5 63q0 21 7.5 42.5t22.5 36.5q15 16 36.5 25t43.5 11q26 3 54 -7q25 -8 48.5 -19.5t49.5 -14.5q11 -1 21.5 0.5t19.5 6.5q13 7 21.5 20t13.5 27q7 23 8.5 47t-0.5 48
q-2 36 -7 71.5t-11 71.5q-5 29 -9 58t0 58q2 17 10 34.5t22 28.5q10 8 22 12.5t24 7.5q23 6 47 7t48 -1q17 -2 34 -7t31 -16q13 -9 22 -22t15 -27q23 -48 34 -100t16 -106q6 -63 7.5 -127.5t-13.5 -127.5q-8 -35 -22 -70t-37 -63t-55 -47.5t-66 -31.5zM478 653
q-5 -21 8.5 -38t35.5 -17q16 0 28 10t16 26q5 21 -8.5 38t-35.5 17q-16 0 -28.5 -10t-15.5 -26z" />
    <glyph glyph-name="K" unicode="K" horiz-adv-x="732" 
d="M268 -8q-17 -6 -41 -10.5t-49 -4.5t-47.5 5t-35.5 17q-12 9 -15 26q-2 10 -3 35.5t-2 55t-1 55v35.5q0 11 -1.5 36.5t-3.5 58.5t-5 69t-5.5 69t-4.5 58t-3 36q-2 27 -5 54t-2 54q1 13 4 26.5t9 24.5q12 21 35 34q13 7 35 12t46 7t45.5 0.5t35.5 -8.5q17 -9 29 -27
q11 -18 17 -38.5t9 -40.5q6 -35 6.5 -69t2.5 -69q23 23 45 47.5t42 50.5q18 24 34 48.5t33 49.5q11 16 24.5 31.5t31.5 21.5q21 7 41.5 1.5t39.5 -18.5t34.5 -32t24.5 -38q10 -18 9 -40t-8 -42q-13 -38 -32 -73t-45 -65q-39 -47 -94 -81q17 -18 34.5 -34t37.5 -32
q5 -4 19.5 -15.5t31.5 -25t31.5 -25t19.5 -15.5q8 -8 16 -17t13 -20q4 -8 5.5 -17.5t1.5 -18.5q-1 -20 -11.5 -40t-26.5 -37.5t-35 -31t-37 -18.5q-24 -6 -49 -1.5t-48 15.5q-57 26 -102 71.5t-78 99.5q2 -35 1.5 -70t-6.5 -70q-2 -11 -5.5 -21t-10.5 -18q-13 -15 -32 -21z
M512 650q5 -11 15 -17.5t21 -7.5t22 3t19 14q12 16 9.5 32.5t-13.5 28t-27.5 14t-32.5 -9.5q-13 -11 -17 -27t4 -30z" />
    <glyph glyph-name="L" unicode="L" horiz-adv-x="670" 
d="M509 -21q-43 -5 -85.5 -3.5t-84.5 3.5q-47 2 -93.5 7t-89.5 22q-19 8 -36 20t-29 29q-13 19 -20.5 40.5t-12.5 44.5q-9 43 -10.5 86.5t0.5 87.5v63q2 56 6.5 111t14.5 110q5 26 11.5 51t17.5 48q8 17 20.5 31.5t28.5 24.5q18 11 39 16t41 3q23 -3 46 -9t43 -19
q13 -8 22.5 -20.5t14.5 -26.5q10 -27 11 -52q2 -28 -1 -56t-8 -56.5l-10 -57t-8 -56.5q-2 -22 -2.5 -43.5t3.5 -42.5q2 -5 3 -10t5 -8q5 -3 17.5 -3t17.5 1q19 0 37 2t37 4q29 2 57.5 0.5t56.5 -9.5q15 -5 28.5 -13t24.5 -20q9 -11 15 -23.5t10 -25.5q5 -20 7 -40t1 -40
q-2 -32 -11 -63.5t-30 -55.5q-19 -23 -47.5 -36t-57.5 -16zM217 658q3 -14 12.5 -22.5t21.5 -11t24 1t21 14.5q12 15 9.5 34t-16.5 31q-12 10 -26.5 9.5t-25.5 -7.5t-17 -20t-3 -29z" />
    <glyph glyph-name="M" unicode="M" horiz-adv-x="957" 
d="M224 -8q-15 -10 -33 -15t-37 -5t-37 5t-33 16q-14 11 -23 28t-16 34q-5 14 -7 28.5t-2 29.5q-2 41 1 81t8 81q8 63 19 126t27 126q7 29 17.5 57t27.5 53q15 23 35.5 41.5t45.5 29.5q14 7 31 8t31 -4q19 -7 34.5 -21.5t27.5 -30.5q16 -22 28 -45.5t23 -48.5
q26 -62 42 -127t24 -131q18 68 40.5 134.5t51.5 130.5q12 26 25.5 50t32.5 44q11 12 24.5 22.5t27.5 17.5q13 6 27.5 8.5t28.5 -0.5q18 -3 33.5 -12.5t29.5 -22.5q19 -18 33.5 -41t25.5 -47q14 -32 25 -65t19 -68q14 -57 24.5 -115.5t15.5 -118.5q3 -38 2.5 -76.5
t-12.5 -74.5q-11 -30 -33 -49.5t-49 -26.5t-55.5 -1.5t-52.5 26.5q-17 14 -27.5 35t-17.5 42q-17 57 -25 114.5t-14 116.5q-21 -42 -38.5 -84t-40.5 -81q-11 -17 -24 -33.5t-31 -24.5q-21 -10 -46 -10t-47 9q-14 5 -23 16.5t-17 23.5q-17 27 -29 57.5t-25 59.5
q-7 -51 -15 -101t-27 -98q-9 -20 -21 -39.5t-30 -33.5zM688 623q-8 -16 -3.5 -31t16 -24.5t27 -10.5t29.5 10q12 10 15.5 24t-1 26.5t-15.5 21.5t-27 9q-13 0 -24.5 -7t-16.5 -18z" />
    <glyph glyph-name="N" unicode="N" horiz-adv-x="776" 
d="M251 -12q-32 -20 -72 -20q-28 1 -55 11t-48 27q-13 10 -24 22.5t-17 28.5q-7 19 -4 35q13 56 27 111.5t22 112.5q9 63 9.5 128t-11.5 128q-6 25 -3 51q2 17 7.5 32.5t16.5 28.5q19 27 53 38q19 6 39 5.5t39.5 -7t36 -19t28.5 -28.5q11 -17 19.5 -36.5t16.5 -39.5
q35 -88 73 -173.5t85 -167.5q10 44 8 89t-10 89t-16.5 87t-7.5 88q1 31 9 62.5t29 53.5q15 16 37 23t46 6.5t47.5 -7.5t41.5 -19q10 -7 19 -15.5t15 -19.5q11 -19 17 -40.5t8 -42.5q7 -57 4 -114.5t-9 -114.5q-5 -53 -13 -105.5t-22 -103.5l-16 -52t-22 -49
q-8 -15 -19 -28.5t-25 -23.5q-29 -21 -64 -26t-69 8q-21 8 -38 24.5t-31 34.5q-36 48 -60.5 102t-46.5 109q0 -46 4 -92t0 -92q-1 -14 -4 -28.5t-10 -27.5q-15 -27 -40 -43zM609 610q5 -5 12.5 -7.5t15.5 -3.5q19 -2 31.5 12.5t14.5 34.5q2 10 -3.5 19t-12.5 16
q-8 8 -19 9.5t-21 0.5q-8 -1 -14.5 -6t-11.5 -10t-7 -12.5t-3 -14.5q-2 -11 4 -20.5t14 -17.5z" />
    <glyph glyph-name="O" unicode="O" horiz-adv-x="757" 
d="M623 91q-39 -45 -88.5 -72t-102.5 -36t-106.5 -1.5t-101.5 32t-87.5 64t-64.5 94.5q-24 53 -31.5 111t-7.5 115q0 76 27 151t77 133q24 28 56 47t67 30q38 11 78.5 12.5t80.5 -1.5q33 -2 66.5 -8t64.5 -20q45 -20 79 -61.5t54 -86.5q43 -94 41 -198q-1 -49 -8.5 -98
t-25.5 -96q-23 -61 -67 -111zM507 627q11 -14 31 -16t34 9t16.5 26.5t-4 28.5t-19.5 21t-31 4q-12 -3 -21 -11t-13 -18.5t-2.5 -22t9.5 -21.5zM236 309q7 -23 21 -41.5t33.5 -30.5t42 -15.5t45.5 3.5q29 9 51.5 33.5t34.5 52.5q17 37 20.5 79.5t-5.5 81.5q-4 17 -10.5 33
t-16.5 30q-15 19 -34.5 29.5t-41.5 12.5t-43.5 -4t-40.5 -21q-21 -17 -34.5 -41t-21.5 -50q-11 -37 -10.5 -76t10.5 -76z" />
    <glyph glyph-name="P" unicode="P" horiz-adv-x="670" 
d="M291 11q-16 -15 -39.5 -23t-49 -9t-50 5t-42.5 18q-16 9 -25 25q-19 31 -24.5 68t-6.5 74q-2 63 -3 125.5t0 125.5q1 32 1.5 62.5t2.5 62.5q2 19 4 38.5t10 36.5q10 27 27 50t39 42q11 9 23 16t25 12q32 11 66.5 16t69.5 5q38 1 75.5 -2.5t72.5 -14.5q16 -5 30.5 -11
t28.5 -14q29 -15 50.5 -41.5t36.5 -55.5q21 -43 30 -91t4 -96q-4 -34 -16.5 -67t-33.5 -59q-32 -39 -80 -62t-99 -30q-18 -3 -36.5 -2t-37.5 1q0 -29 0.5 -57.5t-5.5 -57.5q-5 -25 -17 -48.5t-31 -41.5zM435 671q-3 -13 1 -24.5t12.5 -19t20.5 -10.5t25 2q19 7 27 25.5
t-1 36.5q-7 15 -19.5 21t-26 4.5t-24.5 -10.5t-15 -25zM331 380q15 -4 31 -4.5t31 4t27 13.5t17 23q1 3 2 9.5t2.5 14t2.5 14.5t1 10q2 17 0.5 34.5t-8.5 34.5q-11 28 -37 46q-19 13 -40.5 14t-40.5 -8t-32.5 -26.5t-17.5 -40.5q-2 -11 -2 -27.5t2.5 -34t7.5 -32.5t13 -23
q16 -14 41 -21z" />
    <glyph glyph-name="Q" unicode="Q" horiz-adv-x="765" 
d="M645 -117q-32 -14 -70 -9q-18 4 -34.5 12.5t-29.5 22.5q-16 17 -27.5 38t-22.5 42q-57 -15 -115.5 -10t-112.5 30q-50 24 -89.5 62t-64.5 88q-28 54 -37 116t-9 123q0 76 27 151t77 133q24 28 56 47t67 30q38 11 78.5 12.5t80.5 -1.5q33 -2 66.5 -8t64.5 -20
q45 -20 79 -61.5t54 -86.5q43 -94 41 -198q-1 -37 -5 -74.5t-14 -73.5q-18 -69 -58 -127q14 -13 27 -26t26 -27q10 -12 17.5 -26.5t10.5 -30.5q3 -18 -3 -38t-18 -37.5t-28 -31.5t-34 -21zM457 701q-7 -15 -4 -28.5t13 -23t24 -13t29 3.5q13 6 19 17.5t6 23.5t-6 23t-19 17
q-17 8 -35.5 2.5t-26.5 -22.5zM292 236q17 -10 37 -13.5t39 -0.5q-7 14 -11 28.5t-3 29.5q2 23 20 39t42 15q14 -1 26 -8t22 -17q15 35 20 75t-3 78q-6 41 -29 73q-15 19 -34.5 29.5t-41.5 12.5t-43.5 -4t-40.5 -21q-21 -17 -34.5 -41t-21.5 -50q-11 -37 -10.5 -76t10.5 -76
q7 -22 21.5 -41.5t34.5 -31.5z" />
    <glyph glyph-name="R" unicode="R" horiz-adv-x="724" 
d="M232 -41q-17 -7 -36.5 -9.5t-39 -0.5t-38 9t-33.5 19q-14 12 -24 30t-11 38q0 10 1 40t2.5 64t3 64t1.5 40t0.5 34.5t1 56.5t0.5 67t0.5 66.5t0 56t-0.5 34.5q-1 21 1.5 42t9.5 41q5 15 13.5 28.5t19.5 24.5q8 8 18 13t20 9q26 9 52.5 13t53.5 6q35 2 70.5 1.5t70.5 -2.5
q29 -2 58.5 -5.5t57.5 -13.5t53 -27t45 -39q30 -32 50.5 -72.5t28.5 -83.5q5 -27 5.5 -55.5t-4.5 -55.5q-7 -32 -23 -62t-40 -51q-25 -21 -57 -32.5t-65 -13.5q6 -13 26 -25.5t44 -23.5t47 -19.5t36 -13.5q9 -4 17 -10t13 -15q9 -18 4 -41q-4 -18 -14 -36.5t-24.5 -33.5
t-32 -24t-35.5 -9q-29 0 -58 7.5t-55 20.5q-47 23 -86 59.5t-67 80.5q-1 -33 -2.5 -66.5t-15.5 -63.5q-20 -45 -63 -61zM459 622q10 -8 21 -9.5t21.5 2.5t18.5 12t11 20q4 18 -3.5 32t-20.5 20.5t-28.5 4t-27.5 -16.5q-11 -15 -9 -34t17 -31zM343 371q16 -13 37 -19t41 -1
q14 5 25.5 16.5t18.5 25.5q11 20 12.5 45t-6.5 47q-7 23 -23.5 42.5t-39.5 28.5q-17 6 -37 6.5t-34 -10.5q-14 -10 -21 -28t-9 -38t1 -41t9 -37q5 -11 11 -20.5t15 -16.5z" />
    <glyph glyph-name="S" unicode="S" horiz-adv-x="635" 
d="M386 -31q-32 -6 -78.5 -7.5t-93 4t-87 19.5t-61.5 40q-20 23 -23 53q-3 18 0.5 37t11.5 36t21 30t30 18q14 5 28 3.5t28 -5.5q4 -2 17 -7.5t28 -12t28 -12t18 -6.5q8 -2 16 -2t16 3q14 6 16.5 20.5t-9.5 25.5q-16 14 -34.5 24t-36.5 21q-26 16 -50.5 33.5t-46.5 37.5
q-29 27 -50.5 62.5t-30.5 74.5q-9 45 -1.5 90.5t30.5 85.5q10 16 22 30.5t27 25.5q19 14 39 25.5t41 20.5q49 20 101.5 26.5t104.5 -1.5q25 -5 49.5 -12t45.5 -20q21 -14 38 -33t29 -41q23 -41 31 -90.5t-3 -95.5q-5 -23 -17.5 -46t-32.5 -37q-16 -11 -37 -17.5t-43 -6.5
t-42.5 6t-34.5 20q-12 11 -17 27q-8 26 -10.5 54t-10.5 54q-3 11 -10 24.5t-19 12.5q-11 0 -21 -7t-18 -15q-8 -7 -15.5 -15t-10.5 -18q-6 -19 -0.5 -39.5t18.5 -40t30 -36t33 -27.5q21 -14 44.5 -25.5t46.5 -23t45 -24.5t40 -31q25 -24 39 -55t15 -63t-11 -62t-38 -53
q-28 -24 -63 -37t-71 -20zM448 689q-12 -10 -15.5 -24t1 -26.5t15.5 -21.5t27 -9q13 0 24.5 7.5t16.5 18.5q8 16 3.5 31t-16 24t-27 10t-29.5 -10z" />
    <glyph glyph-name="T" unicode="T" horiz-adv-x="613" 
d="M376 -28q-19 -9 -45 -12.5t-52 -1t-50 11.5t-39 24q-12 13 -17.5 30.5t-6.5 34.5q-2 31 1.5 62t6.5 62q8 72 9 143t1 143q-19 -1 -38 -3t-38 0q-14 1 -26.5 4t-23.5 11q-10 6 -17.5 15.5t-12.5 19.5q-12 25 -15 56t2.5 62t19 58t35.5 44q13 10 30 12.5t34 2.5
q70 -1 139 -3t139 -3q24 0 48 2t47 -2q13 -2 26 -7t24 -13q17 -13 27.5 -33t14.5 -41q5 -29 2 -58.5t-14 -55.5q-6 -15 -16 -28t-24 -21q-23 -13 -49 -15t-51 1q11 -92 12 -184q1 -48 1 -95.5t-9 -95.5q-5 -23 -12 -46.5t-21 -43.5q-18 -24 -42 -37zM438 666q0 -18 11.5 -31
t28.5 -15q13 -2 24.5 3.5t18 15.5t8 22t-4.5 24q-8 16 -22.5 22t-28.5 3t-24.5 -14.5t-10.5 -29.5z" />
    <glyph glyph-name="U" unicode="U" horiz-adv-x="771" 
d="M466 -32q-86 -15 -169 -2q-29 5 -57 13.5t-54 23.5q-34 21 -61 52t-45 66q-24 48 -33 101.5t-9 107.5q0 72 12 144t32 142q8 24 18 49t29 42q14 13 32.5 19.5t37.5 8.5q48 6 91 -7q15 -5 29.5 -13.5t22.5 -22.5q11 -17 13 -37t0 -39q-6 -46 -18.5 -90t-21.5 -89
q-5 -28 -7 -57t4 -57q4 -18 13.5 -36t25.5 -26q20 -11 44 -10.5t44 11.5q37 20 37 60q0 24 -4.5 47t-8.5 46q-5 27 -8 54.5t1 54.5q2 18 9 35t18 31q16 19 38 28t45 10t46.5 -7t42.5 -24q19 -15 32 -35.5t22 -42.5q16 -36 23.5 -75t8.5 -78q1 -66 -15 -133t-51 -124
q-19 -30 -43 -57t-55 -46q-25 -15 -53.5 -24t-57.5 -14zM599 485q7 -2 14.5 -0.5t14.5 3.5q10 4 16.5 13.5t10.5 20.5q6 17 -4.5 32.5t-28.5 21.5q-10 4 -21 0.5t-20 -8.5q-13 -8 -17 -25t3 -31q5 -10 13.5 -16.5t18.5 -10.5z" />
    <glyph glyph-name="V" unicode="V" horiz-adv-x="755" 
d="M485 12q-35 -19 -74.5 -24.5t-77.5 3.5q-36 9 -67 31.5t-57 49.5q-40 45 -68 98t-49 110q-26 71 -43 145.5t-20 150.5q-1 17 -2.5 34t1.5 34q2 14 9.5 27.5t17.5 23.5q18 18 42 29t50 14t51 -2.5t45 -20.5q9 -7 16 -15.5t12 -17.5q15 -31 19.5 -66t6.5 -70q2 -49 7 -97.5
t12 -97.5q3 -23 8.5 -45t16.5 -42q6 -13 15 -20q9 -6 17.5 -5t16.5 6.5t15 14.5t13 18q19 34 29.5 72t14.5 77q4 32 4 64t2 64q2 21 7 42t19 37q11 12 24.5 20t28.5 13q35 12 76.5 9.5t71.5 -24.5q14 -10 23.5 -24.5t12.5 -30.5q5 -26 1 -52l-8 -52q-11 -66 -31.5 -130
t-47.5 -126q-17 -38 -35 -75.5t-43 -71.5q-17 -23 -37 -43.5t-45 -34.5zM598 577q-5 -14 -1 -26.5t14 -21t23 -10.5t26 4q14 7 20.5 19t6 24.5t-8.5 24t-23 16.5q-18 6 -34 -3t-23 -27z" />
    <glyph glyph-name="W" unicode="W" horiz-adv-x="958" 
d="M742 12q-14 -7 -31 -8t-32 4q-19 8 -34 22t-27 30q-16 22 -28 46t-23 48q-26 62 -42.5 127t-23.5 131q-18 -68 -40.5 -134.5t-52.5 -130.5q-11 -25 -25 -49.5t-33 -44.5q-11 -12 -24 -22.5t-28 -17.5q-27 -13 -55 -8q-18 3 -34 13t-29 22q-20 19 -34.5 41.5t-25.5 46.5
q-14 32 -24.5 65.5t-18.5 67.5q-15 58 -25 116t-15 118q-3 38 -2.5 76.5t12.5 74.5q10 30 32 49.5t49 26.5t55.5 1.5t52.5 -26.5q17 -14 28 -35t17 -42q17 -57 25.5 -114.5t13.5 -116.5q21 42 38.5 84t41.5 82q11 17 23.5 33.5t30.5 24.5q22 9 47 9t47 -9q13 -5 22.5 -16.5
t17.5 -23.5q17 -27 29 -57l24 -60q8 51 15.5 101t27.5 98q8 20 20.5 39.5t30.5 33.5q29 21 69.5 20.5t69.5 -21.5q15 -11 24 -27.5t16 -33.5q5 -14 6.5 -29t2.5 -30q2 -41 -1.5 -81t-8.5 -81q-8 -63 -19 -126t-26 -125q-8 -29 -18 -57.5t-27 -53.5q-15 -23 -36 -41.5
t-45 -29.5zM778 654q-2 -23 9.5 -36.5t27.5 -16.5t32 5.5t24 30.5q4 9 1 19.5t-8 18.5q-8 12 -21.5 15.5t-27.5 0t-24.5 -13t-12.5 -23.5z" />
    <glyph glyph-name="X" unicode="X" horiz-adv-x="723" 
d="M216 -54q-20 -11 -43.5 -13.5t-45.5 -0.5q-16 2 -31 7t-28 15q-9 6 -16 14.5t-12 17.5q-12 23 -19 49t-5 52q2 14 5.5 28.5t11.5 27.5q17 31 39.5 59t46 55t47.5 54t44 56q-9 9 -26.5 33t-35.5 51.5t-33 53t-19 37.5q-5 14 -8 28t-1 28q3 19 15 37.5t29.5 33.5t38 25.5
t39.5 13.5q27 3 50 -4q17 -6 30.5 -17t25.5 -24q23 -25 40 -54.5t34 -58.5q19 25 39 49t43 44q16 14 34.5 26t38.5 18q13 3 26 4t25 -3q30 -8 56 -29t40 -49q21 -41 9 -86q-8 -27 -25.5 -49.5t-37.5 -42.5q-29 -29 -61.5 -53t-61.5 -53q22 -29 48 -53.5t47 -53.5
q12 -17 19.5 -38t7.5 -42q1 -19 -7 -37t-20 -32q-15 -17 -35.5 -28t-42.5 -15.5t-44.5 -2t-41.5 12.5q-8 4 -13.5 10t-10.5 13q-17 22 -27 47.5t-25 48.5q-23 -39 -44 -78.5t-48 -74.5q-13 -17 -28 -31.5t-33 -25.5zM552 573q14 -11 29.5 -10t27 10.5t16 24.5t-2.5 31
q-6 13 -17.5 19t-24 6t-24 -6.5t-17.5 -19.5q-7 -14 -3.5 -29.5t16.5 -25.5z" />
    <glyph glyph-name="Y" unicode="Y" horiz-adv-x="674" 
d="M429 -23q-23 -9 -47 -13t-49 -5q-20 0 -41 2t-41 10q-27 9 -45 35q-11 17 -14.5 36.5t-4.5 38.5q-3 50 0.5 99t7.5 99q0 3 0.5 9t1 13t1.5 13t2 8q-2 4 -9.5 13t-16.5 19.5t-17 20t-11 12.5q-25 31 -49 62t-46 64q-22 31 -32 66q-8 26 -8.5 53.5t9.5 52.5q9 23 29 40
t43 25q24 10 50.5 13t50.5 -5q23 -7 41.5 -23.5t32.5 -36.5q29 -40 52 -83.5t49 -85.5q17 31 36 60.5t44 53.5q14 13 30 23t34 15q26 6 50 -0.5t43.5 -22t34 -38.5t20.5 -49q6 -29 -2.5 -59.5t-26.5 -53.5q-23 -31 -52 -56.5t-58 -51.5q-12 -11 -23.5 -22t-22.5 -23
q3 -26 4.5 -51.5t3.5 -51.5q2 -34 2 -67.5t-3 -67.5q-2 -16 -5.5 -31.5t-11.5 -28.5q-6 -11 -15.5 -18t-20.5 -12zM506 620q-3 -14 1.5 -26.5t14.5 -20.5t23 -10t26 4q17 8 24 27t-1 36q-7 14 -20.5 20t-27.5 4.5t-25.5 -10t-14.5 -24.5z" />
    <glyph glyph-name="Z" unicode="Z" horiz-adv-x="692" 
d="M442 -20q-35 1 -70 -1l-70 -4t-70 -1.5t-69 5.5q-17 2 -34.5 9t-31.5 18q-15 12 -25.5 30t-14.5 38q-5 23 -1.5 46.5t13.5 44.5q8 18 21.5 34t29.5 29q9 8 31.5 27t51 44t60.5 53t60.5 53t50.5 44.5t31 27.5q-55 -5 -109.5 -10t-110.5 -9q-6 0 -19.5 -1t-28.5 -1.5
t-28.5 -0.5t-19.5 2q-13 5 -22.5 15t-15.5 22q-16 29 -19 66q-3 23 -1.5 46.5t8.5 46.5q5 17 14 33t24 24q10 6 33.5 10.5t50 7t50.5 4t36 1.5q66 1 130.5 2.5t129.5 -3.5q23 -2 47.5 -6t45.5 -15q20 -11 33 -36q8 -17 11 -35.5t3 -37.5q-1 -47 -17 -94q-5 -15 -13 -29
t-18 -27q-17 -22 -37.5 -41t-41.5 -37q-35 -30 -72 -58.5t-73 -57.5q-14 -11 -27 -22t-25 -24q79 10 161 15q26 2 51 2.5t51 -2.5q18 -1 33 -15q11 -10 18.5 -22.5t12.5 -26.5q8 -23 9.5 -49t-4.5 -50t-19.5 -44t-35.5 -30q-17 -8 -36 -10t-38 -2q-21 0 -42 0.5t-42 1.5z
M503 601q10 -7 23.5 -5t23.5 9q7 4 10.5 10.5t6.5 14.5q5 13 -1.5 27t-16.5 24q-13 14 -31.5 11t-31.5 -17q-8 -7 -9.5 -17.5t-0.5 -20.5q2 -11 9.5 -20.5t17.5 -15.5z" />
    <glyph glyph-name="bracketleft" unicode="[" horiz-adv-x="569" 
d="M395 -31q-24 -3 -48 -3.5t-48 0.5q-24 2 -48.5 4t-48.5 7q-19 5 -37 11.5t-34 17.5q-12 8 -21 19.5t-17 23.5q-11 22 -17 45.5t-11 47.5q-8 52 -9.5 104t-1.5 105q0 47 1.5 93t5.5 93q4 42 12 84t30 77q6 10 13 20t15 19q16 16 37 26.5t43 15.5q15 3 47.5 6t68.5 4.5
t68.5 1t47.5 -4.5q11 -3 22 -9t19 -15q12 -13 17.5 -30t7.5 -34q5 -42 0 -83q-2 -18 -7 -35.5t-15 -32.5q-18 -24 -46 -32t-58 -3.5t-59 1.5q-6 -1 -12 -3t-10 -7q-8 -10 -11.5 -23t-5.5 -26q-2 -15 -3 -30.5t-1 -30.5q0 -9 1 -23t3.5 -28.5t7 -26t12.5 -16.5t18 -6t19 0
q23 1 46 2.5t46 -1.5q16 -2 31.5 -9.5t25.5 -20.5q13 -14 19 -33t9 -38q5 -34 4 -69t-9 -69q-5 -19 -16 -36t-28 -28q-16 -11 -35.5 -15.5t-39.5 -6.5zM376 701q-2 -19 11.5 -31.5t31.5 -14.5q11 -2 21.5 4.5t18.5 14.5q5 5 7 12.5t3 14.5q2 12 -6 23.5t-18 17.5
q-7 5 -14.5 5t-15.5 -1t-15.5 -6t-13.5 -12q-5 -5 -7 -12t-3 -15z" />
    <glyph glyph-name="backslash" unicode="\" horiz-adv-x="558" 
d="M506 -1q-23 -27 -60 -39t-72 -7q-16 3 -31 10t-26 18q-16 14 -27.5 32t-19.5 38q-20 44 -35.5 88.5t-32.5 89.5q-25 69 -56 134.5t-63 131.5q-12 25 -23.5 49t-20.5 50q-8 25 -12.5 51.5t2.5 51.5t23 41q13 11 28 19.5t31 14.5q22 8 45.5 11.5t46.5 -1.5t40 -20
q21 -20 36.5 -44.5t29.5 -50.5q77 -146 128 -304q2 -7 10 -28.5t17 -45.5t17 -45.5t10 -28.5q8 -24 16.5 -48.5t14.5 -49.5q4 -16 6 -32t0 -33q-2 -14 -7 -28t-15 -25zM163 667q9 -20 25.5 -26t32 -0.5t25 20.5t4.5 36q-2 10 -8.5 18t-15.5 13q-15 7 -29.5 4t-24 -12.5
t-13 -23.5t3.5 -29z" />
    <glyph glyph-name="bracketright" unicode="]" horiz-adv-x="569" 
d="M252 -34q-32 -1 -63.5 1t-61.5 11q-10 3 -19 8t-17 11q-20 16 -30.5 45.5t-13.5 63t1 67t12 58.5q8 28 31 45q11 9 25 13t28 6q23 2 46.5 -1t46.5 -2q7 1 14.5 1.5t13.5 5.5q7 4 12 19t7 23q4 24 4 48.5t-2 48.5q0 7 -2 18t-5 21.5t-8 19.5t-11 12q-6 4 -20.5 4.5
t-30.5 0t-31 -1.5t-22 -1q-14 0 -28.5 4t-25.5 13q-12 9 -20.5 23t-13.5 29q-7 23 -8.5 48t-0.5 50q1 18 4.5 36.5t12.5 34.5q11 21 33 30q17 8 36.5 10.5t38.5 2.5q38 -1 75 -2.5t75 -6.5q23 -3 45 -9.5t40 -20.5q15 -11 26.5 -25t21.5 -30q20 -32 28 -69.5t12 -75.5
q7 -75 8 -148.5t-1 -148.5q-1 -35 -4 -68.5t-9 -67.5q-5 -26 -15.5 -51.5t-27.5 -45.5q-17 -19 -41 -29.5t-48 -15.5q-29 -7 -58.5 -9t-58.5 -3zM359 624q17 -8 35.5 -1t26.5 24q7 14 4 28t-12.5 23.5t-23.5 12.5t-28 -4q-13 -6 -20 -17.5t-7.5 -24t6 -24t19.5 -17.5z" />
    <glyph glyph-name="asciicircum" unicode="^" horiz-adv-x="500" 
d="M127 428q-18 0 -35 4t-31 13t-23 22.5t-9 31.5q0 13 4 25t9 24l13.5 27t14.5 26q14 27 30 53t37 49q16 18 36.5 34.5t43.5 18.5h7q10 3 20 5t20 1q41 0 76 -24q17 -11 31 -27.5t25 -34.5q11 -17 20.5 -34.5t18.5 -35.5q11 -21 21 -43t14 -45q2 -11 -0.5 -23.5
t-10.5 -21.5q-9 -11 -24.5 -19t-33.5 -13t-36.5 -6t-31.5 2q-14 4 -25.5 16t-18.5 26q-11 21 -19 43t-16 45q-11 -21 -22.5 -41.5t-23.5 -40.5q-7 -11 -15 -21.5t-19 -18.5q-10 -7 -22 -11.5t-25 -5.5zM292 641q20 -10 40 0t28 31q4 10 0.5 20t-8.5 18q-6 11 -22 16t-27 2
q-16 -3 -25.5 -14.5t-11 -25t4.5 -27t21 -20.5z" />
    <glyph glyph-name="underscore" unicode="_" horiz-adv-x="588" 
d="M139 -172q-24 -1 -48.5 1.5t-46.5 12.5q-17 8 -30 23t-18 32q-8 27 -2 58t26 51q18 19 43 29t51 15q46 8 92.5 6.5t93.5 -1.5t93 0.5t92 -6.5q23 -4 46 -13t37 -28q22 -29 20 -67q-1 -16 -4.5 -32t-12.5 -30q-16 -23 -43.5 -34t-55.5 -13q-45 -2 -88.5 0t-87.5 2
q-40 0 -79 -2zM434 -66q8 -11 19.5 -14.5t22.5 -1.5t20.5 9.5t14.5 19.5q8 23 -5.5 42t-36.5 19q-14 0 -25 -7.5t-16 -18.5t-4 -24t10 -24z" />
    <glyph glyph-name="a" unicode="a" horiz-adv-x="749" 
d="M209 -24q-31 -8 -63.5 -6.5t-62.5 12.5q-10 4 -19 9t-17 13q-13 14 -16 36q-2 17 -1.5 33t0.5 32q-1 65 7 129t20 127q14 67 37 132t63 120q48 65 119 102q65 33 139 35q23 1 46 -2.5t45 -11.5q40 -16 67 -43q33 -33 57 -74.5t40 -86.5q23 -67 31 -137t11 -141
q3 -45 3 -90t-13 -88q-7 -22 -18.5 -42t-29.5 -33q-23 -18 -54 -24t-60 -4q-28 2 -55.5 12.5t-44.5 32.5q-20 23 -22 56q-1 21 2.5 42t2.5 42q-33 0 -66.5 1t-67.5 -1q0 -23 4 -46.5t5 -46.5q0 -14 -4.5 -29t-15.5 -26q-14 -14 -32 -22t-37 -12zM496 604q1 -12 7.5 -20.5
t15.5 -13.5t20 -5.5t21 4.5q21 11 26 34t-12 40q-12 12 -26 13.5t-26.5 -4.5t-20 -19t-5.5 -29zM318 301q7 0 23 -1.5t33 -2.5t32.5 -1t22.5 3q14 5 20 18q5 9 6.5 19.5t2.5 21.5q0 27 -7 53.5t-19 50.5q-5 10 -12 21t-16 20t-19 14t-20 3q-18 -3 -33 -18.5t-27 -36.5
t-19.5 -43.5t-10.5 -40.5q-3 -15 -3 -31.5t8 -29.5q6 -9 16.5 -13.5t21.5 -5.5z" />
    <glyph glyph-name="b" unicode="b" horiz-adv-x="732" 
d="M499 -20q-43 -5 -86.5 -6.5t-87.5 0.5q-38 2 -76.5 7t-74.5 17q-25 8 -48 22t-37 35q-8 12 -14 34.5t-11.5 50.5t-9 59.5t-6.5 60.5t-4.5 53t-2.5 38q-2 44 -3 87t6 87q5 40 23.5 78.5t50.5 63.5q40 32 88 50.5t99 26.5q44 8 88 8t88 -5q23 -3 46 -9.5t43 -17.5
q42 -23 62 -66.5t11 -88.5q-5 -21 -15 -40.5t-23 -36.5q-20 -24 -43 -44t-49 -38q34 -4 64 -20.5t55 -39.5q24 -23 43 -50t29 -58q12 -40 4 -84q-5 -26 -18 -51t-31 -45q-30 -32 -72.5 -52.5t-87.5 -25.5zM481 668q-3 -14 2 -26t14.5 -20t22.5 -10t26 4q17 8 23 25.5
t-2 34.5q-7 15 -20 21.5t-26.5 5t-24.5 -10t-15 -24.5zM292 523q-12 -23 -15 -48.5t-2 -51.5q24 2 48 8t45 18q12 7 22 18.5t17 25.5t8.5 29t-2.5 28q-6 18 -24 24t-36 1q-19 -6 -35.5 -20t-25.5 -32zM328 184q37 -17 80 -12q28 2 47 16q22 17 17 43t-27 42
q-12 8 -29.5 14.5t-36.5 9t-37.5 1t-30.5 -8.5q-17 -9 -21 -28q-4 -13 -2 -26.5t7 -26.5q2 -7 14 -14t19 -10z" />
    <glyph glyph-name="c" unicode="c" horiz-adv-x="695" 
d="M467 -21q-61 -9 -123.5 -12.5t-122.5 13.5q-35 10 -68 31t-53 52q-30 45 -46 97t-21 106q-5 50 0 99.5t15 98.5q10 45 30 87t49 77q27 32 62 58t74 42q57 22 119 21t119 -24q25 -11 47 -27.5t39 -36.5q26 -31 43.5 -69t28.5 -77q6 -22 7.5 -45t-3.5 -46q-12 -54 -63 -74
q-23 -8 -47.5 -10t-47.5 2q-18 2 -35 9t-29 20q-11 12 -18.5 27t-14.5 30q-5 14 -13 27t-21 21q-16 10 -32.5 9.5t-31.5 -8t-25.5 -21.5t-14.5 -32q-11 -56 -5 -111q2 -19 5 -37t11 -35q6 -14 15.5 -25.5t23.5 -16.5q13 -5 26.5 -3.5t25.5 4.5q33 9 63.5 24t63.5 23
q12 4 25 5t25 -1q17 -3 32 -12t26 -22q23 -25 31 -56.5t3 -61.5t-24 -55.5t-50 -39.5q-23 -11 -48.5 -16t-51.5 -9zM455 600q10 -17 29 -18.5t35 9.5q9 5 13 15.5t5 21.5q2 18 -11.5 31t-32.5 15q-12 2 -23.5 -6.5t-18.5 -19.5t-4.5 -24.5t8.5 -23.5z" />
    <glyph glyph-name="d" unicode="d" horiz-adv-x="743" 
d="M439 -5q-66 -17 -135 -18.5t-137 5.5q-8 1 -19 2.5t-22 4t-20 7t-12 10.5q-6 12 -9.5 24.5t-6.5 25.5q-10 44 -15 87.5t-9 88.5q-4 48 -6.5 96.5t-3.5 96.5q-2 48 0 95.5t13 94.5q4 18 10 36t16 35q19 32 50 52q25 17 54.5 26t59.5 12q50 5 100 -2.5t98 -22.5
q63 -20 116.5 -66t87.5 -102q29 -49 45.5 -104t20.5 -112q3 -32 1 -65.5t-11 -65.5q-14 -48 -43.5 -90t-67.5 -74q-34 -28 -73.5 -47t-81.5 -30zM427 626q13 -14 29.5 -14.5t29.5 8.5t18.5 24t-3.5 33q-6 15 -21 21q-17 8 -33 3t-25 -17t-9 -28.5t14 -29.5zM314 211
q9 -4 19 -4.5t19 0.5q34 4 61 23t42 49q8 17 11.5 34.5t3.5 35.5q-1 39 -17 77.5t-43 67.5q-5 6 -11 11.5t-14 8.5q-17 8 -36 10t-37 -3q-8 -2 -15.5 -6.5t-12.5 -12.5q-2 -3 -4 -11t-3.5 -17t-2 -17t-0.5 -12q-6 -84 9 -165q1 -7 4 -17.5t6.5 -21t9 -19t11.5 -11.5z" />
    <glyph glyph-name="e" unicode="e" horiz-adv-x="596" 
d="M448 -6q-51 -8 -103 -10t-104 0q-28 1 -55.5 5.5t-53.5 15.5q-16 8 -30.5 17.5t-25.5 22.5q-14 17 -22 38.5t-12 44.5q-5 32 -5 65.5t2 67.5q5 75 12.5 150t22.5 150q5 25 10.5 49.5t15.5 47.5q6 15 15 30t22 26q17 16 39 22q61 21 127 19t129 -11q20 -3 40 -7t38 -12
q13 -5 24 -14t19 -20q10 -15 13.5 -34.5t0.5 -39t-12 -36.5t-24 -29q-30 -23 -65 -8q-27 11 -54.5 19.5t-56.5 13.5q-20 2 -40.5 1.5t-37.5 -9.5q-6 -3 -11 -11t-8.5 -17.5t-5.5 -19t-2 -16.5q-1 -8 -0.5 -15t4.5 -14q3 -6 10.5 -9.5t16.5 -5.5t18 -2h16l24 2l24 2
q14 2 27.5 1t25.5 -6q9 -5 15.5 -12.5t11.5 -15.5q6 -13 8 -29t0 -32t-8.5 -30.5t-17.5 -23.5q-17 -16 -42 -14l-27 3t-38 4t-38 2t-26 -3q-7 -3 -11.5 -15t-6.5 -19t-1.5 -17t2 -19.5t5 -18.5t9.5 -13q5 -5 19.5 -4.5t22.5 1.5q42 7 81.5 20t80.5 22q6 2 12 3t12 1
q14 -1 27 -5.5t24 -13.5q10 -8 16 -19.5t10 -24.5q6 -20 7 -41t-1 -41q-3 -39 -25 -70q-15 -18 -32 -26q-14 -5 -28.5 -8t-28.5 -5zM434 630q12 -8 27 -9q12 -2 22 4.5t16.5 16.5t7.5 22t-5 22q-2 2 -2.5 4t-2.5 4q-10 16 -28.5 17t-34.5 -9q-9 -6 -13.5 -15.5t-4.5 -20.5
t4.5 -20.5t13.5 -15.5z" />
    <glyph glyph-name="f" unicode="f" horiz-adv-x="606" 
d="M333 6q-11 -17 -31.5 -27.5t-44.5 -16.5t-49 -6.5t-44 3.5q-12 3 -24 9t-20 15q-14 14 -21.5 32t-11.5 37q-15 75 -23.5 150t-14.5 150q-5 58 -8 116t2 116q3 26 9 51.5t20 47.5q20 29 53 43q20 8 40.5 12.5t41.5 7.5q42 5 84 7.5t84 3.5q29 1 57 0.5t57 -5.5
q16 -2 32 -8.5t28 -17.5q11 -10 17.5 -24t9.5 -28q6 -26 3.5 -53.5t-13.5 -51.5q-6 -13 -14.5 -24.5t-19.5 -19.5t-25 -11t-28 -5q-29 -2 -58.5 2t-59.5 6q-8 0 -17.5 1.5t-18.5 1t-16 -3.5t-9 -10q-1 -3 -1 -9t0.5 -13t1 -13t0.5 -9q1 -7 3 -21.5t7 -18.5q4 -3 12.5 -4.5
t18.5 -2t19 0t14 0.5q26 2 52 6.5t52 2.5q17 -2 34.5 -9t28.5 -21q9 -12 13 -31t3.5 -40t-4.5 -41t-10 -34q-3 -7 -7 -14t-10 -12q-7 -5 -16.5 -6t-18.5 -1q-14 0 -37 2.5t-47 3t-44.5 -3t-29.5 -14.5q-5 -7 -7 -19q0 -7 2.5 -24.5t5.5 -38t5.5 -38l3.5 -24.5
q2 -14 -0.5 -28t-10.5 -26zM424 652q6 -14 24 -21.5t33 -1.5q8 3 14 9.5t11 14.5q12 18 2.5 37t-29.5 27q-13 5 -28 -2t-23 -18q-7 -9 -8 -21.5t4 -23.5z" />
    <glyph glyph-name="g" unicode="g" horiz-adv-x="706" 
d="M519 0q-37 -20 -78.5 -27.5t-83.5 -5.5q-54 4 -105.5 26t-90.5 59q-45 40 -74.5 95t-41.5 114q-14 69 -14.5 140.5t18.5 139.5q11 38 27.5 75t45.5 64q25 26 58.5 41t68.5 22q57 10 113.5 5.5t113.5 -13.5q29 -5 57.5 -11.5t52.5 -22.5q37 -23 49 -64q8 -25 6.5 -51
t-11.5 -49.5t-27.5 -41.5t-41.5 -27q-19 -6 -39.5 -3.5t-39.5 8.5q-27 9 -52.5 21.5t-53.5 20.5q-9 2 -18.5 4t-19.5 1q-28 -5 -47 -21q-14 -13 -21 -31t-10 -36q-4 -22 -3.5 -44t2.5 -45q3 -24 9.5 -48t20.5 -43t33 -30t40 -14t42 2t39 20q12 10 21 23.5t14 28.5
q-25 0 -49.5 -1.5t-49.5 0.5q-5 0 -16.5 2t-15.5 4q-8 5 -13.5 13.5t-7.5 18.5q-3 10 -3 22.5t3 24t9.5 21.5t15.5 15t20 7t22 2q22 1 44 -2t44 -5q32 -3 65 -3t64 -11q20 -7 35.5 -22t22.5 -35q15 -44 8.5 -93t-27.5 -95t-55 -84.5t-75 -60.5zM491 605q12 -7 31 -3
q11 1 20.5 11.5t13.5 21.5q3 9 0 19.5t-8 18.5t-15.5 12t-20.5 6q-12 2 -24.5 -6.5t-17.5 -19.5q-8 -19 0 -39q3 -6 9 -11z" />
    <glyph glyph-name="h" unicode="h" horiz-adv-x="745" 
d="M257 -40q-20 -7 -46.5 -10t-53 -1t-50.5 10t-37 24q-11 11 -14 27.5t-3 32.5v31.5t1 50.5t1.5 50.5t0.5 31.5q1 63 0 125.5t-1 125.5q0 9 -1 35t-2.5 55.5t-2.5 55.5t-1 34q1 14 2.5 28.5t6.5 28.5t15 25t24 17q16 8 40.5 10.5t50 0.5t49 -9t38.5 -19q8 -7 15 -15t12 -18
q7 -14 10.5 -29.5t5.5 -30.5q5 -49 5 -97.5t2 -97.5q32 3 64 2t64 -5q0 39 0.5 78t10.5 77q6 23 21.5 43t36.5 30q15 7 36 10.5t42.5 2t41 -7.5t31.5 -18q10 -8 16 -19.5t9 -23.5q10 -35 10 -71t-4 -71q-6 -45 -10.5 -90t-6.5 -91q-2 -44 -0.5 -87t0.5 -87q0 -17 -1.5 -33
t-7.5 -30q-5 -13 -15 -23t-21 -18q-24 -15 -53.5 -19.5t-57.5 0.5q-22 5 -42.5 17t-31.5 32q-12 22 -18 46.5t-9 49.5q-2 21 -3.5 42t-1.5 43q-20 3 -40.5 4t-40.5 2q0 -4 -1 -16.5t-1 -15.5q-2 -32 -4 -65t-8 -65q-3 -16 -8.5 -32t-16.5 -29q-9 -11 -21 -20t-26 -14z
M569 567q1 -12 9.5 -20.5t19.5 -12.5t23 -2.5t21 9.5q2 2 3 3.5t3 3.5q13 13 10.5 31t-16.5 32q-13 14 -31.5 11t-31.5 -17q-8 -7 -10 -17.5t0 -20.5z" />
    <glyph glyph-name="i" unicode="i" horiz-adv-x="399" 
d="M308 8q-13 -9 -35 -14t-46.5 -6t-47.5 1.5t-38 8.5q-13 5 -24.5 11.5t-19.5 16.5q-17 20 -26 43q-9 25 -13 50.5t-6 51.5q-12 138 -6 279q0 1 -1 4.5t-1 5.5q0 24 2 48.5t4 48.5q2 32 7.5 64t22.5 59q15 22 40.5 36.5t55 21t60 5t55.5 -11.5q17 -7 30.5 -19.5t21.5 -28.5
q8 -15 10 -32.5t2 -34.5q1 -35 -3 -70.5t-6 -70.5q-5 -67 -5 -134t2 -135q2 -35 2 -69.5t-5 -69.5q-3 -17 -10.5 -33t-21.5 -26zM218 640q-3 -12 0.5 -23t11 -18.5t19 -11.5t23.5 -1q16 4 25.5 16t9.5 28q0 20 -12 31.5t-28 13t-30.5 -7t-18.5 -27.5z" />
    <glyph glyph-name="j" unicode="j" horiz-adv-x="704" 
d="M478 5q-48 -18 -100 -23.5t-104 -3.5q-45 2 -90 11.5t-84 32.5q-35 19 -55 51q-24 39 -27 87q-2 19 1 38.5t12 36.5q7 14 18 24.5t24 17.5q29 15 64 17q30 1 57.5 -12.5t55.5 -22.5q14 -5 29.5 -7t29.5 2q14 5 25.5 17t17.5 26q9 24 11 50.5t0 52.5q-2 38 -7 74.5
t-12 74.5q-5 29 -9 58t1 58q3 17 12.5 33.5t24.5 27.5q11 8 25 12.5t28 7.5q41 8 84 3q17 -2 33.5 -7t30.5 -16q15 -11 24.5 -26.5t17.5 -32.5q22 -48 31.5 -100t14.5 -104q5 -64 6 -128.5t-15 -126.5q-9 -36 -24.5 -72t-41.5 -63q-23 -23 -51 -40t-58 -28zM491 615
q8 -10 20.5 -14.5t25.5 -1.5q17 4 26 17t9 27.5t-8.5 27.5t-26.5 17q-16 3 -28.5 -3t-20 -17.5t-7.5 -26t10 -26.5z" />
    <glyph glyph-name="k" unicode="k" horiz-adv-x="725" 
d="M298 18q-9 -14 -28 -22.5t-41.5 -12.5t-45.5 -4.5t-40 1.5q-15 2 -30.5 6t-25.5 15q-9 10 -12 24q-2 10 -3 35.5t-2 55t-1 55v35.5q0 11 -1.5 36.5t-3.5 58.5t-5 69t-5.5 69t-4.5 58t-3 36q-2 21 -4 41.5t-3 41.5q-1 19 1.5 37.5t10.5 35.5q6 13 16.5 22.5t22.5 15.5
q15 7 37 12.5t46 7t45.5 -1t35.5 -11.5q11 -8 19.5 -18.5t13.5 -22.5q20 -47 22 -98l4 -102l52 56t48 60q18 25 34.5 51t35.5 51q9 12 22 21.5t27 11.5q17 3 35 -1.5t32 -13.5q19 -11 33.5 -27.5t25.5 -35.5q4 -7 7 -14t5 -15q4 -20 0 -39.5t-11 -37.5q-14 -39 -36 -75
t-50 -67q-17 -19 -37.5 -34.5t-42.5 -29.5q33 -35 71.5 -65t76.5 -60q10 -8 20 -16.5t19 -19.5q10 -11 16.5 -26t6.5 -30q0 -16 -6 -31t-15 -29q-12 -20 -30 -36t-39 -26q-24 -11 -49 -11q-22 0 -43.5 7t-41.5 18q-51 27 -92 70.5t-71 92.5q1 -27 1 -54.5t-2 -54.5
q-2 -17 -5 -34t-12 -31zM512 642q13 -16 29.5 -17.5t30 7.5t20 25t-2.5 34q-10 20 -31 25t-38 -9q-15 -12 -17.5 -31t9.5 -34z" />
    <glyph glyph-name="l" unicode="l" horiz-adv-x="669" 
d="M507 -21q-29 -4 -58 -4t-58 2q-51 2 -101.5 4t-99.5 15q-29 7 -58 21.5t-46 39.5q-19 26 -27 59t-13 65q-5 36 -4 72.5t0 73.5q0 71 6 142q3 43 8.5 85t14.5 84q7 30 21 61q8 17 20.5 31.5t29.5 24.5q17 11 38 16t41 3t40 -7t38 -14q16 -8 29 -22.5t20 -31.5
q11 -33 11 -64q1 -47 -7 -92.5t-16 -91.5q-5 -27 -7 -54.5t2 -53.5q2 -7 4.5 -16.5t8.5 -11.5t21 -1.5t31.5 2t31.5 3t21 2.5q24 2 48.5 1.5t48.5 -5.5q17 -4 33 -11t29 -18q22 -21 32 -52q8 -23 9 -48t-1 -50q-2 -23 -8 -45.5t-18 -42.5q-8 -13 -18 -24.5t-23 -19.5
q-16 -11 -35 -18t-39 -9zM236 628q14 -7 29.5 -3.5t25.5 15.5q12 15 10.5 31t-11.5 27.5t-26 15t-32 -6.5q-11 -7 -16.5 -18t-5 -23t7 -22t18.5 -16z" />
    <glyph glyph-name="m" unicode="m" horiz-adv-x="952" 
d="M238 9q-14 -16 -34 -25.5t-41.5 -11.5t-43 3t-38.5 18q-14 11 -23 27t-15 33q-7 17 -9 36t-2 38q-1 38 2.5 75.5t8.5 75.5q5 45 12.5 89.5t16.5 89.5q9 42 19 83.5t31 78.5q15 29 39 52t53 37q15 7 33 9q20 1 39.5 -10t33.5 -26q23 -23 39 -52.5t28 -59.5
q53 -127 67 -261q17 59 35.5 116t42.5 113q18 44 41 86t61 70q14 11 30.5 17.5t33.5 6.5t33 -7t30 -18q26 -19 44 -46t31 -56q17 -38 28.5 -77.5t20.5 -79.5q11 -44 18.5 -87t12.5 -88q3 -29 4.5 -59t-0.5 -59q-2 -21 -5.5 -42t-13.5 -40q-15 -30 -40.5 -46t-54.5 -18
t-57 10t-48 39q-15 19 -22.5 42.5t-12.5 46.5q-11 50 -18.5 99t-12.5 100q-21 -42 -39 -86t-44 -85q-10 -16 -22.5 -30.5t-29.5 -22.5q-21 -9 -45.5 -9t-45.5 8q-10 5 -18 12.5t-15 16.5q-21 29 -34.5 62.5t-27.5 66.5q-6 -40 -12 -80.5t-17 -79.5q-8 -26 -18.5 -50.5
t-28.5 -44.5zM691 574q11 -14 29.5 -16t33.5 9q11 9 14.5 21.5t0.5 24.5t-11.5 21.5t-22.5 12.5q-15 4 -28 -2.5t-19.5 -17.5t-6.5 -25.5t10 -27.5z" />
    <glyph glyph-name="n" unicode="n" horiz-adv-x="769" 
d="M193 -31q-22 -2 -44 2t-42 13.5t-37 24t-29 32.5q-6 8 -10 18t-4 21q0 5 2.5 17.5t6 26.5t6.5 26.5t5 17.5q14 57 24.5 113.5t13.5 114.5q3 45 0.5 89.5t-11.5 88.5q-5 28 0 57.5t22 52.5q19 25 48 36t61 6q24 -4 47 -17.5t38 -33.5q14 -19 22.5 -41t17.5 -43
q35 -86 72.5 -170t83.5 -165q8 32 8.5 65t-3.5 65q-5 50 -16 98t-14 98q-2 25 0 50.5t11 49.5q5 14 13.5 27t19.5 23q11 8 23 13t25 7q25 5 51 0.5t49 -15.5q14 -6 26 -15.5t20 -21.5q21 -29 26.5 -65.5t7.5 -71.5q2 -48 -1.5 -96.5t-8.5 -96.5q-6 -52 -14 -103t-22 -102
q-10 -35 -23.5 -70t-38.5 -61q-30 -31 -73.5 -39.5t-82.5 8.5q-16 7 -29.5 19t-24.5 26q-17 19 -30 40t-25 43q-17 34 -32.5 69.5t-29.5 70.5q0 -45 3.5 -89t1.5 -89q-1 -14 -3.5 -27.5t-7.5 -25.5q-12 -28 -34 -45q-29 -21 -65 -26zM589 637q3 -14 12.5 -23.5t22 -12.5
t25 0.5t21.5 14.5q8 10 10 22t-1.5 22.5t-12 19t-21.5 11.5q-12 3 -23.5 -0.5t-20 -11.5t-12 -19t-0.5 -23z" />
    <glyph glyph-name="o" unicode="o" horiz-adv-x="751" 
d="M382 -22q-77 -2 -146 28.5t-119 89.5q-20 25 -36 53.5t-26 58.5q-15 45 -20 92.5t-5 95.5q0 75 26.5 150.5t75.5 132.5q28 34 68 56.5t83 30.5q32 5 65.5 5.5t66.5 -1.5q35 -2 69.5 -8.5t65.5 -21.5q32 -15 58 -40.5t45 -54.5q35 -55 52.5 -119.5t15.5 -130.5
q-1 -56 -11 -111.5t-34 -106.5q-21 -45 -53.5 -84t-74.5 -65q-37 -23 -79.5 -35.5t-86.5 -14.5zM511 620q10 -8 22 -9.5t22.5 2t18.5 12.5t11 21q5 24 -12.5 41.5t-41.5 12.5q-14 -3 -23 -12.5t-12 -21.5t0.5 -24.5t14.5 -21.5zM337 221q17 -2 35 3t32 15q33 21 51.5 59.5
t24.5 77.5q4 32 1 65t-14.5 61.5t-33 48.5t-52.5 26q-22 4 -44.5 -1.5t-41.5 -18.5q-26 -18 -42 -48.5t-24 -62.5q-8 -35 -6.5 -71t12.5 -70q10 -31 30 -51q14 -14 33 -22.5t39 -10.5z" />
    <glyph glyph-name="p" unicode="p" horiz-adv-x="665" 
d="M285 11q-16 -15 -39 -23t-47.5 -9t-49 4.5t-42.5 16.5q-19 13 -28 29q-21 36 -25.5 79.5t-5.5 85.5q-1 16 -1.5 48.5t-0.5 72.5v84.5t1.5 85t4 72t6.5 47.5q8 32 27.5 59.5t43.5 48.5q20 17 46 26.5t52 14.5q74 14 150 6q28 -2 56.5 -7.5t54.5 -16.5q20 -9 39 -19t33 -26
q34 -35 54 -81.5t26 -94.5q6 -45 -0.5 -90.5t-27.5 -83.5q-16 -29 -41 -52t-54 -38q-26 -14 -53 -22t-56 -12q-17 -2 -34.5 -1t-34.5 1q0 -20 0.5 -40.5t-1.5 -41.5q-2 -33 -15 -66.5t-38 -56.5zM433 642q6 -17 24 -22.5t35 0.5q8 2 13 8.5t10 12.5q5 9 5 20t-5 20
q-7 15 -20 21t-26.5 4.5t-24.5 -10.5t-14 -25q-2 -8 -0.5 -15t3.5 -14zM283 403q11 -12 27.5 -18.5t34.5 -8.5t35 1.5t31 12.5q20 15 23 38q6 29 6.5 60t-14.5 57q-10 17 -26 30.5t-35 16.5q-18 3 -35.5 -1.5t-31 -15t-23 -26.5t-11.5 -34q-2 -10 -1.5 -26t2.5 -32.5
t6.5 -31.5t11.5 -22z" />
    <glyph glyph-name="q" unicode="q" horiz-adv-x="759" 
d="M632 -121q-15 -5 -31 -6t-32 2q-17 4 -33.5 12.5t-28.5 22.5q-15 17 -26.5 37.5t-22.5 41.5q-62 -17 -124.5 -9.5t-119.5 37.5q-56 30 -96.5 78t-60.5 108q-17 48 -22.5 99t-4.5 102q2 74 28 146t74 129q29 35 70.5 57.5t86.5 30.5q34 5 68 5t68 -3q30 -2 60 -7.5
t59 -17.5q32 -14 59 -39.5t46 -54.5q37 -56 55.5 -122t16.5 -133q-1 -39 -5.5 -78t-15.5 -77q-19 -65 -56 -119q16 -15 31 -30t29 -32q17 -23 21 -48q3 -21 -3.5 -41.5t-20 -38.5t-31.5 -31.5t-38 -20.5zM454 701q-6 -13 -4 -26t10 -22.5t20 -14t26 -1.5t22.5 12.5
t11.5 21.5t-1 24t-15 21q-17 13 -38.5 8.5t-31.5 -23.5zM280 242q18 -13 40.5 -18.5t44.5 -1.5q-7 14 -11.5 30t-1.5 32q2 15 10.5 26t20.5 17t26 6.5t27 -6.5q15 -7 25 -18q14 34 19 71.5t0 73.5q-3 17 -8.5 35t-14.5 33q-16 27 -41 42q-19 11 -42.5 13.5t-43.5 -4.5
q-32 -9 -54 -33q-15 -15 -25 -34.5t-16 -40.5q-12 -37 -12 -77.5t11 -78.5q5 -20 17 -37.5t29 -29.5z" />
    <glyph glyph-name="r" unicode="r" horiz-adv-x="716" 
d="M286 11q-12 -23 -33 -37.5t-45.5 -20.5t-51 -4.5t-49.5 12.5q-27 11 -44 34q-6 8 -10.5 18.5t-6.5 21.5q-2 10 -1 37t2.5 57t3.5 57t2 37q0 11 0.5 38t1 61t1 72.5t0.5 72.5v60.5t-1 37.5q-1 25 2.5 49.5t12.5 46.5q6 14 14.5 26.5t20.5 20.5q12 10 27.5 15.5t30.5 10.5
q26 6 53 8.5t54 4.5q34 1 68 -0.5t68 -4.5q28 -2 55 -6.5t53 -15.5q30 -14 56.5 -35.5t46.5 -47.5q26 -35 42.5 -76.5t21.5 -84.5q4 -32 0 -64.5t-16 -62.5q-20 -48 -62 -79q-23 -17 -51.5 -26t-57.5 -11q5 -10 13.5 -17.5t17.5 -12.5q20 -13 42 -22t44 -17q2 -1 8.5 -3
t13.5 -5t13 -5.5t8 -3.5q19 -8 25 -26q4 -11 3 -22.5t-4 -22.5q-5 -16 -15.5 -32.5t-25 -30.5t-31 -22.5t-33.5 -8.5q-39 0 -77.5 13.5t-71.5 35.5q-35 23 -64.5 53.5t-51.5 65.5q-1 -35 -3 -71.5t-19 -67.5zM453 623q14 -14 32 -11t32 17q8 8 9 22.5t-3 26.5
q-3 10 -11.5 16.5t-19 8.5t-21.5 0t-18 -9q-5 -5 -9 -11t-6 -13q-4 -12 1.5 -25t13.5 -22zM333 375q22 -21 53.5 -26t53.5 16q20 20 28 48q7 24 4 49t-16 47q-14 26 -42 42q-16 8 -35.5 11t-36.5 -4q-11 -5 -18 -13.5t-12 -19.5q-7 -15 -9.5 -36t0.5 -42.5t10.5 -40.5
t19.5 -31z" />
    <glyph glyph-name="s" unicode="s" horiz-adv-x="628" 
d="M390 -29q-46 -10 -93.5 -9.5t-95.5 6.5q-26 3 -52 9t-49 18q-18 9 -32.5 24.5t-22.5 34.5q-9 24 -6.5 51.5t14.5 50.5q8 15 21.5 27.5t30.5 16.5q13 3 26 2t25 -5q24 -7 46 -19.5t47 -18.5q9 -2 19 -1.5t18 5.5q12 8 11.5 21.5t-11.5 23.5q-16 13 -34 22.5t-35 20.5
q-26 16 -50 33t-46 37q-30 28 -52 64.5t-30 77.5q-9 45 -1 90.5t32 84.5q16 26 40 46.5t51 35.5q52 28 110 39.5t118 3.5q29 -3 58 -11t54 -24q25 -17 44 -42t31 -53q16 -35 21.5 -75t-2.5 -78q-6 -34 -24 -64q-12 -20 -31.5 -32.5t-42.5 -17.5t-46.5 -3t-44.5 12
q-10 5 -19 12.5t-14 17.5q-6 11 -9.5 35t-7.5 48.5t-10.5 45.5t-18.5 26q-7 3 -14.5 0.5t-15.5 -7.5t-15 -11.5t-12 -11.5l-6.5 -6.5t-5.5 -8.5q-8 -14 -6.5 -32.5t8.5 -33.5q12 -26 32 -48t43 -38q19 -13 40 -23.5l42 -21t41.5 -21.5t38.5 -26q27 -22 44 -51t22 -60
t-2.5 -62.5t-30.5 -57.5q-26 -29 -64 -45t-76 -24zM444 689q-12 -10 -15.5 -24t1 -26.5t15.5 -21.5t27 -9q13 0 24.5 7.5t16.5 18.5q8 16 3.5 31t-16 24t-27 10t-29.5 -10z" />
    <glyph glyph-name="t" unicode="t" horiz-adv-x="624" 
d="M393 -20q-26 -17 -58.5 -21t-63.5 1q-20 4 -40.5 11t-34.5 22q-13 12 -18.5 29.5t-6.5 34.5q-2 29 1 59t6 59q8 73 9 146.5t1 147.5q-20 -1 -39.5 -3t-39.5 0q-14 2 -28 6t-25 14q-12 10 -19.5 24t-12.5 30q-7 24 -7 54t7 58.5t21.5 52.5t36.5 36q11 6 23 8t24 2h31.5
t51.5 -1t61 -1.5t61 -1.5t51.5 -1.5t31.5 -0.5q18 0 36 1.5t36 0.5q17 -1 33.5 -4.5t30.5 -11.5q28 -17 41 -48q14 -30 13.5 -64.5t-10.5 -66.5q-5 -18 -15.5 -34.5t-26.5 -27.5q-22 -14 -50 -17t-54 1q6 -48 8.5 -95.5t3.5 -95.5q1 -53 0.5 -105t-13.5 -103
q-7 -27 -20.5 -53t-36.5 -42zM452 637q11 -16 29 -17.5t34 9.5q17 10 18 29t-10 35q-5 8 -14.5 12t-19.5 6q-12 2 -23.5 -6t-17.5 -19q-7 -11 -4.5 -24.5t8.5 -24.5z" />
    <glyph glyph-name="u" unicode="u" horiz-adv-x="764" 
d="M473 -30q-45 -9 -90 -10.5t-90 6.5q-30 5 -60.5 14.5t-56.5 26.5q-48 32 -81 83t-47 107q-11 48 -13 97t2 98q4 58 15 115t28 112q7 24 17 47.5t28 40.5q14 13 32 19.5t36 8.5q23 3 47 1.5t46 -8.5q15 -5 29.5 -13.5t22.5 -22.5q11 -17 13 -37t0 -40q-8 -57 -24.5 -112
t-21.5 -113q-2 -26 0 -53t16 -50q8 -14 21.5 -23t29 -12t32 -0.5t31.5 10.5q35 18 37 58q0 24 -4.5 48.5t-8.5 48.5q-5 28 -8 56t2 55q5 38 29 65q16 18 37.5 26.5t45 8.5t46.5 -8t41 -23q17 -14 28.5 -31.5t20.5 -37.5q23 -48 30.5 -100.5t4.5 -105.5q-5 -59 -22 -116
t-49 -107q-17 -26 -38.5 -49t-47.5 -40q-24 -16 -51 -25.5t-55 -14.5zM585 489q13 -8 29.5 -3.5t26.5 15.5q13 16 11 38q-2 17 -12.5 26.5t-24.5 11t-28.5 -4.5t-23.5 -20q-10 -17 -2.5 -34.5t24.5 -28.5z" />
    <glyph glyph-name="v" unicode="v" horiz-adv-x="756" 
d="M529 44q-22 -22 -50.5 -36t-59.5 -19.5t-62.5 -2t-59.5 17.5q-32 15 -59 39.5t-50 53.5q-35 45 -60 98t-44 107q-22 62 -36 125.5t-19 128.5q0 9 -0.5 18.5t-0.5 18.5q-1 14 -2 28.5t3 28.5q6 25 23.5 43t40.5 29t49.5 14.5t51.5 -0.5q15 -3 30 -9.5t26 -17.5
q8 -8 14 -17.5t11 -19.5q12 -29 15.5 -61.5t5.5 -64.5q2 -45 7 -90.5t11 -90.5q2 -22 6.5 -43.5t12.5 -41.5q5 -15 17 -29.5t28 -11.5q11 2 21 13.5t18.5 26t14.5 30t10 26.5q14 42 18.5 85t5.5 87q1 26 2 53t12 51q6 15 18 27t27 20q17 8 35.5 12.5t37.5 6.5q23 1 47.5 -4
t44.5 -18q14 -8 24.5 -22t15.5 -30q6 -26 2.5 -52t-7.5 -52q-11 -66 -30.5 -129t-45.5 -124q-23 -54 -50.5 -107t-69.5 -95zM600 544q6 -13 17.5 -19.5t23.5 -6.5t23.5 7t17.5 20q7 14 4 28t-12.5 23t-23.5 12.5t-28 -3.5q-17 -8 -23.5 -26t1.5 -35z" />
    <glyph glyph-name="w" unicode="w" horiz-adv-x="952" 
d="M717 5q-16 -4 -35 1q-14 5 -26 13t-23 19q-14 15 -26 33t-22 37q-17 32 -29.5 65.5t-22.5 68.5q-26 86 -35 170q-23 -80 -50 -159q-14 -37 -28.5 -73t-33.5 -70q-9 -17 -19.5 -32.5t-23.5 -28.5q-14 -14 -29.5 -25t-32.5 -17q-12 -3 -25 -3.5t-26 3.5q-14 4 -27 12
t-24 19q-19 17 -33.5 38.5t-25.5 44.5q-19 39 -31 81.5t-22 84.5q-12 52 -21 103.5t-13 104.5q-2 25 -2 49t2 49q2 18 6 35.5t12 34.5q17 33 46 48.5t60.5 14.5t60.5 -18.5t46 -50.5q12 -23 18 -49t11 -52q8 -42 13.5 -83.5t10.5 -83.5q20 41 37.5 82.5t40.5 80.5
q10 17 22 33t29 25q20 11 45.5 12t48.5 -7q11 -5 20.5 -13t17.5 -19q20 -29 33 -62t27 -65l16 104t29 101q8 19 20 37t29 30q14 10 33 15t39 4.5t38.5 -6.5t32.5 -17q13 -11 21 -26t13 -31q6 -15 8 -31.5t3 -33.5q1 -42 -2.5 -84t-8.5 -84q-8 -57 -18 -114t-24 -114
q-6 -28 -15 -55t-23 -52q-11 -20 -26.5 -38t-35.5 -32q-11 -8 -23.5 -14.5t-26.5 -9.5zM784 673q-8 -10 -9.5 -22t3 -22.5t14 -18.5t22.5 -9q16 -2 29.5 5.5t20 19.5t6 26.5t-12.5 26.5q-16 15 -37.5 13t-35.5 -19z" />
    <glyph glyph-name="x" unicode="x" horiz-adv-x="722" 
d="M228 -46q-15 -11 -34 -16.5t-38.5 -6.5t-39 2.5t-35.5 12.5q-13 7 -23.5 17t-17.5 23q-12 23 -19 49t-5 52q3 31 18 58q18 30 40 57.5t45.5 54.5l47 54t43.5 56q-6 6 -18 23t-25.5 36.5t-25.5 37t-16 24.5q-15 23 -28 50t-10 56q1 19 13 37.5t29 34t37 26.5t39 15
q20 4 41 0t38 -16q35 -26 59 -64.5t46 -76.5q24 32 50 62t59 52q16 11 34 18.5t38 8.5q14 1 27.5 -3t25.5 -11q24 -12 43 -32t30 -45q6 -16 8 -33t-2 -34q-4 -21 -15 -40t-25 -36q-16 -19 -34.5 -35t-38 -32t-38.5 -31.5t-37 -32.5q22 -29 49 -54t48 -55q13 -19 20 -41.5
t5 -45.5t-15.5 -43.5t-31.5 -34.5q-31 -23 -68.5 -27.5t-70.5 10.5q-18 7 -29 25q-17 22 -27 47.5t-25 48.5q-18 -32 -35.5 -64t-37.5 -62q-14 -22 -30.5 -41.5t-37.5 -34.5zM552 573q14 -11 29.5 -10t27 10.5t16 24.5t-2.5 31q-6 11 -15.5 17.5t-20.5 7.5t-22 -3.5
t-19 -13.5q-12 -14 -10 -33.5t17 -30.5z" />
    <glyph glyph-name="y" unicode="y" horiz-adv-x="684" 
d="M354 -40q-26 -2 -51.5 0t-49.5 12q-13 5 -24.5 14.5t-19.5 22.5q-9 16 -12.5 34.5t-4.5 37.5q-4 44 -1 87t7 87q0 4 0.5 13.5t1.5 20t2 20t3 13.5q-2 4 -9.5 13t-16.5 19.5t-17 20t-11 12.5q-26 31 -50 62t-46 64q-15 23 -25.5 49t-12.5 53q-2 18 0 35.5t8 34.5
q11 26 32 43q23 18 52.5 27.5t58.5 7.5q17 -1 34.5 -7t31.5 -17q16 -13 28.5 -28.5t23.5 -32.5q23 -37 43.5 -74.5t43.5 -74.5q22 39 47.5 77t63.5 61q26 16 55.5 16.5t55.5 -14.5q32 -19 53 -56t19 -75q-1 -21 -9.5 -42t-21.5 -38q-23 -31 -52 -56.5t-58 -51.5
q-12 -11 -23.5 -22t-23.5 -23q5 -34 7 -68.5t3 -69.5q1 -29 0.5 -58.5t-5.5 -58.5q-2 -12 -5.5 -24t-10.5 -22q-12 -17 -31 -26q-20 -9 -41 -12.5t-42 -5.5zM511 620q-3 -14 1.5 -26.5t14.5 -20.5t23 -10t26 4q17 8 24 27t-1 36q-7 14 -20.5 20t-27.5 4.5t-25.5 -10
t-14.5 -24.5z" />
    <glyph glyph-name="z" unicode="z" horiz-adv-x="688" 
d="M426 -20q-56 0 -110.5 -5t-109.5 -1q-28 2 -55.5 7t-50.5 21q-26 19 -37.5 46.5t-10.5 57t14.5 58.5t36.5 52q4 4 16.5 14.5t26.5 22t26.5 22t16.5 13.5q54 47 107.5 94t106.5 95q-11 -1 -34.5 -3t-54 -5t-63.5 -6t-63.5 -5t-54 -3.5t-34.5 -0.5q-16 2 -29 13.5t-21 25.5
q-13 23 -17.5 49t-3.5 52q1 23 5.5 47t16.5 44q7 11 18 20t23 12q42 10 83.5 13t83.5 3q53 0 105 1.5t106 -0.5q20 -1 39.5 -2.5t39.5 -5.5q15 -2 30.5 -7t27.5 -14q20 -14 28.5 -39.5t10.5 -50.5q2 -42 -9.5 -84.5t-37.5 -75.5q-17 -23 -37.5 -42.5t-41.5 -37.5
q-29 -26 -60 -49.5t-61 -47.5l-40 -32t-37 -34q42 6 84.5 9.5t84.5 5.5q7 0 22 1t32 1t32 -1t21 -3q10 -4 18 -11t14 -15q12 -16 19 -36t9 -41t-0.5 -42t-10.5 -39q-8 -17 -22 -31.5t-31 -21.5q-11 -5 -23 -6.5t-24 -2.5q-30 -2 -60 -0.5t-60 1.5zM484 615q9 -14 23 -17.5
t27 0.5t22.5 15t9.5 28q0 13 -8 25.5t-19 20.5q-11 6 -23 5t-22 -7.5t-16 -16.5t-5 -22q2 -17 11 -31z" />
    <glyph glyph-name="braceleft" unicode="{" horiz-adv-x="565" 
d="M366 -57q-29 -2 -57.5 -2t-57.5 4q-21 2 -41.5 10t-37.5 21q-29 22 -43 55q-11 26 -15.5 54.5t-6.5 57.5q-2 22 -1 43.5t-3 42.5q-2 8 -6 16.5t-11 13.5q-10 8 -22 11t-23 11q-9 6 -12 16t1 20q2 5 12.5 15t15.5 13q11 5 22.5 9t20.5 12q15 14 23 34q3 10 4 19.5t1 20.5
q1 20 -2.5 40.5t-4.5 40.5q-2 30 -1 59.5t10 58.5q13 44 44 74q20 19 46 30t52 18q29 8 59.5 11.5t60.5 5.5q23 2 44 0q14 -1 27 -2.5t24 -7.5q11 -5 18 -14.5t9 -20.5q5 -32 5.5 -64.5t-3.5 -64.5q-2 -17 -5 -33.5t-11 -30.5q-8 -15 -22.5 -25.5t-31.5 -14.5q-26 -5 -53 -4
t-53 -3q-2 0 -6.5 -0.5t-6.5 -2.5q-2 -3 -2 -10.5t1 -10.5q1 -23 3 -47t-6 -46q-5 -16 -17 -28.5t-26 -20.5q17 -5 28 -10q21 -9 32 -31q8 -14 7.5 -30.5t1.5 -32.5q4 -1 13 -1t19 0.5t19.5 1.5t13.5 1q19 2 39 -3t33 -18q14 -15 20 -35.5t8 -40.5q3 -22 2 -48.5t-7.5 -50.5
t-20 -43.5t-34.5 -26.5q-21 -8 -43.5 -11t-45.5 -5zM364 697q-2 -14 5 -25t17.5 -17.5t24 -7.5t25.5 7q20 12 22 34t-14 38q-15 15 -35 12.5t-35 -16.5q-5 -5 -7 -11.5t-3 -13.5z" />
    <glyph glyph-name="braceright" unicode="}" horiz-adv-x="565" 
d="M294 -58q-19 -2 -49.5 -1.5t-62 4t-59.5 11t-41 21.5t-20.5 32.5t-10.5 37.5q-9 52 3 104q2 14 7.5 28t16.5 25q13 13 34 18q9 3 18 3h18q4 0 13.5 -0.5t20 -1.5t20 -1t13.5 1q2 11 1.5 22.5t1.5 22.5q3 20 17 34q10 10 22.5 15.5t26.5 9.5q-8 5 -14.5 9.5t-12.5 11.5
q-9 10 -14 22.5t-7 25.5q-2 20 0 40.5t3 40.5v6.5t-2 6.5q-1 1 -4 1.5t-5 1.5q-5 1 -17 1.5t-25.5 1t-25.5 0.5h-16q-20 2 -42 10.5t-33 25.5q-16 24 -19 54t-5 59q-1 22 0 44t5 44q2 17 17 29q9 7 20.5 10t22.5 5q86 6 174 -14q25 -6 49 -15t44 -24q43 -34 58 -85
q12 -42 10 -87t-9 -89v-29q2 -18 8 -37t20 -31q9 -8 20.5 -12t22.5 -9q3 -2 11 -9t10 -10q9 -9 9 -21.5t-9 -20.5q-8 -8 -19.5 -11t-21.5 -8q-20 -12 -25 -36q-3 -20 -3 -40.5t-1 -40.5q-1 -30 -5.5 -60t-16.5 -57q-8 -18 -20.5 -34t-29.5 -27q-20 -13 -44 -19.5t-48 -8.5z
M293 636q4 -11 16 -18t24 -8q7 -1 14.5 2t13.5 7q7 5 11.5 12.5t6.5 15.5q4 10 1 20.5t-9 18.5q-9 13 -25 16q-13 2 -29 -3q-8 -3 -13 -9.5t-10 -14.5t-5 -19t4 -20z" />
    <glyph glyph-name="asciitilde" unicode="~" horiz-adv-x="657" 
d="M195 108q-15 -3 -35 1t-40 11.5t-37.5 18t-26.5 21.5q-18 21 -21.5 49t2.5 57t20 56.5t32 48.5q25 29 62 45.5t75 17.5q17 1 34 -3.5t32 -12.5q24 -12 46.5 -27t46.5 -27q12 -6 25 -10t27 -5q31 -2 56 16q16 11 30 26t31 23q14 8 31.5 5t25.5 -16q8 -11 11 -24.5t3 -27.5
q0 -45 -19 -91q-9 -25 -23 -48t-34 -41q-13 -11 -28.5 -20t-32.5 -11t-34.5 1.5t-32.5 11.5q-7 4 -20 14t-27.5 19.5t-28.5 17t-22 6.5q-9 0 -20 -9.5t-22.5 -22t-21.5 -24.5t-16 -18q-11 -10 -22.5 -18t-25.5 -10zM183 337q6 -13 17.5 -19.5t23.5 -6.5t23 6.5t17 19.5
q9 18 3 36.5t-24 26.5q-15 7 -28.5 3.5t-23 -13t-12.5 -24t4 -29.5z" />
    <glyph glyph-name="nonbreakingspace" unicode="&#xa0;" 
 />
    <glyph glyph-name="cent" unicode="&#xa2;" horiz-adv-x="582" 
d="M367 -14q-9 -6 -25.5 -8t-34 -1t-33.5 4t-26 7q-27 11 -34 36q-6 17 -4.5 35t3.5 36q-27 8 -53 20.5t-48 32.5q-26 24 -44 57.5t-26 68.5q-12 56 0 114.5t41 107.5q11 17 23.5 33t28.5 29q32 26 72 38q-1 17 -1.5 33t1.5 32q0 13 6 25q11 18 32 24q26 8 51 8
q14 1 28 -0.5t26 -8.5q16 -7 26 -24q8 -16 9.5 -35t-0.5 -37q35 -8 69.5 -26.5t56.5 -48.5q16 -21 16 -47q1 -24 -12 -49q-10 -18 -26 -32.5t-35 -23t-39.5 -10t-39.5 6.5q-10 5 -19 11t-17 13q-8 8 -16.5 15t-17.5 12q-12 7 -25.5 5t-19.5 -15q-8 -18 -2.5 -43t20.5 -37
q8 -7 19 -10t22 -3q19 -1 38.5 2.5t38.5 6.5t38 4.5t38 -2.5q10 -2 19 -7.5t17 -12.5q15 -13 22 -33t9 -40q3 -21 -0.5 -42.5t-11.5 -41.5q-10 -26 -32 -45.5t-48 -28.5q-14 -5 -28 -7l-28 -4q1 -17 1 -34.5t-5 -33.5q-6 -17 -20 -26zM382 491q15 -14 35.5 -13.5t33.5 16.5
q10 13 9.5 27.5t-7.5 25.5t-20 17.5t-29 2.5q-13 -3 -21.5 -11.5t-12 -20t-0.5 -23.5t12 -21z" />
    <glyph glyph-name="sterling" unicode="&#xa3;" horiz-adv-x="751" 
d="M161 -26q-18 -1 -35.5 1t-34.5 9t-27.5 21t-15.5 31t-4.5 35.5t6.5 35.5q5 14 15 25t23 18q15 8 32 12.5t34 10.5q13 5 20 15t7 26q0 8 -1.5 16t-1.5 16q-22 -2 -43.5 -2.5t-42.5 2.5q-11 2 -22 7t-19 13q-8 10 -10.5 22.5t-2.5 24.5q1 17 7.5 33.5t20.5 26.5
q17 12 39 15.5t43 2.5q-8 38 -11 75.5t-1 75.5q2 34 11 67.5t28 62.5q26 41 66.5 70.5t86.5 42.5q41 11 84 7t82 -17q27 -8 53.5 -20t49.5 -29q16 -12 30 -26.5t25 -31.5q17 -28 28.5 -59.5t13.5 -64.5q2 -34 -3.5 -68t-21.5 -63q-8 -16 -19 -29.5t-25 -24.5
q-20 -14 -43.5 -20t-47 -4t-45.5 12.5t-37 28.5q-8 9 -13.5 20t-9.5 22q-8 28 -11 56.5t-15 54.5q-3 7 -8 13t-12 8q-18 7 -29.5 -8.5t-15.5 -34.5q-9 -38 -2 -75q2 -11 5.5 -22.5t6.5 -22.5q14 -1 28.5 -3.5t25.5 -11.5q17 -14 18 -35t-13 -37q-8 -9 -20 -14.5t-25 -8.5
q6 -5 8.5 -12t4.5 -15q36 4 72.5 9t72.5 8q29 2 57 -2.5t54 -17.5q28 -13 44 -35q25 -29 28 -69q3 -34 -3 -69.5t-27 -61.5q-14 -16 -35 -24.5t-42 -10.5q-37 -2 -73.5 2.5t-73.5 8.5q-38 4 -75 3t-75 -5q-35 -3 -69 -7t-69 -5zM490 624q3 -24 23 -34.5t43 -2.5
q10 3 16 11.5t9 18.5q5 11 -0.5 24t-13.5 21t-19 9.5t-22 0.5q-17 -2 -27.5 -16.5t-8.5 -31.5z" />
    <glyph glyph-name="currency" unicode="&#xa4;" horiz-adv-x="568" 
d="M167 105q-10 -11 -25 -16t-29 -2q-17 5 -30.5 18t-21.5 28q-8 16 -6 33.5t13 31.5q11 12 23.5 22.5t25.5 21.5q-14 21 -22 45.5t-10 50.5q-2 23 3 46.5t15 43.5q-14 9 -26 18.5t-22 20.5q-14 16 -16 38q-2 19 8 37t23 31q15 15 31 18q8 2 17 0.5t17 -6.5
q18 -11 31.5 -27.5t26.5 -33.5q39 23 83 25q22 2 44 -3t42 -14l14 18t15 18q8 8 17.5 16t20.5 12q13 5 27.5 3.5t26.5 -9.5q9 -6 16.5 -15t13.5 -19q4 -7 7 -13.5t5 -14.5q3 -15 -6 -28q-12 -17 -30.5 -28t-35.5 -22q27 -47 28 -100t-24 -99q18 -14 37 -28.5t29 -35.5
q14 -28 -0.5 -55.5t-43.5 -38.5q-15 -5 -30.5 -3t-28.5 11q-19 12 -32 30t-26 35h-1q-77 -32 -151 -2q-10 -16 -20 -31t-23 -28zM352 414q8 -5 19 -4.5t20 3.5q10 3 16.5 12t9.5 19q5 14 -2.5 29.5t-21.5 22.5t-30 3.5t-26 -16.5q-14 -17 -8.5 -37.5t23.5 -31.5zM249 292
q34 -12 63 15q16 15 19 34.5t-4.5 36t-23.5 27.5t-38 9q-9 -1 -18.5 -3t-17.5 -7q-16 -11 -24 -33q-8 -25 5.5 -48t38.5 -31z" />
    <glyph glyph-name="yen" unicode="&#xa5;" horiz-adv-x="731" 
d="M379 -40q-25 -2 -50 0t-48 11q-27 10 -43 33q-8 11 -12 24t-6 26q-23 -2 -46.5 -4t-46.5 5q-16 4 -26 15.5t-13.5 25.5t0.5 29t16 26q9 9 21 14.5t24 8.5q34 6 69 9v8.5t1 8.5q-6 -1 -18 -2t-26 -1h-26t-18 2q-29 7 -42 33t-4 54q6 21 23 33q10 8 22 12t24 6q31 7 58 8
q-35 41 -68.5 82t-63.5 86q-15 23 -25.5 49t-12.5 53q-2 18 0 35.5t8 34.5q11 26 32 43q23 18 52.5 27.5t58.5 7.5q17 -1 34.5 -7t31.5 -17q16 -13 28.5 -28.5t23.5 -32.5q23 -37 43.5 -74.5t43.5 -74.5q22 39 47.5 77t63.5 61q26 16 55.5 16.5t55.5 -14.5q32 -19 53 -56
t19 -75q-1 -21 -9.5 -42t-21.5 -38q-23 -30 -51 -55.5t-57 -50.5q15 -1 30.5 -2.5t29.5 -8.5q22 -12 30.5 -40.5t-0.5 -52.5q-7 -19 -25 -27q-15 -8 -37 -10q-3 0 -13 -0.5t-21.5 -0.5h-21.5h-13q0 -5 0.5 -10t0.5 -10q20 0 39.5 -2.5t36.5 -11.5q10 -6 17.5 -15.5t11.5 -21
t4.5 -23.5t-3.5 -23q-5 -11 -13 -18q-6 -5 -14.5 -8t-16.5 -5q-16 -2 -32 -2.5t-32 0.5q-2 -14 -5 -28t-11 -25q-12 -19 -33 -29q-20 -9 -41 -12.5t-42 -5.5zM536 620q-3 -14 1.5 -26.5t14.5 -20.5t23 -10t26 4q17 8 24 27t-1 36q-7 14 -20.5 20t-27.5 4.5t-25.5 -10
t-14.5 -24.5z" />
    <glyph glyph-name="softhyphen" unicode="&#xad;" horiz-adv-x="0" 
 />
    <glyph glyph-name="plusminus" unicode="&#xb1;" horiz-adv-x="512" 
d="M310 239q-14 -7 -30.5 -8.5t-32.5 2t-29.5 12t-22.5 21.5q-11 19 -12.5 42.5t-0.5 45.5q-20 -1 -41.5 -1t-40.5 8q-30 13 -39 43q-6 21 -3 44.5t17 40.5q7 10 17 16.5t21 11.5q16 6 33.5 9t34.5 4q-2 17 -1 34.5t6 34.5q7 21 24 34q13 9 29.5 12.5t33 1t31 -9.5t24.5 -19
q15 -18 20.5 -42t7.5 -47q18 -1 35.5 -2.5t34.5 -7.5q22 -8 34 -25q14 -20 14.5 -48.5t-11.5 -49.5q-5 -10 -13 -17.5t-17 -12.5q-17 -9 -37.5 -10t-40.5 0q0 -20 -1.5 -39.5t-9.5 -38.5q-5 -12 -13.5 -23t-20.5 -16zM238 547q4 -11 16 -17.5t24 -8.5q9 -2 18.5 3.5
t16.5 12.5q8 8 9.5 19t0.5 22q-2 10 -9 18t-15 13q-16 10 -33 3t-27 -23q-6 -9 -5.5 -20.5t4.5 -21.5zM238 5q-30 -1 -59.5 -4t-58.5 -1q-11 1 -23 3.5t-22 7.5q-18 9 -27 25t-10.5 34.5t4.5 37t19 33.5q15 16 32 22q35 14 73.5 14h76.5q41 1 82 1.5t79 -11.5q10 -4 19 -10
t16 -14q10 -13 14 -30.5t1.5 -35.5t-11 -33.5t-21.5 -25.5q-13 -9 -29 -12t-32 -3q-31 -1 -61.5 0.5t-61.5 1.5z" />
    <glyph glyph-name="multiply" unicode="&#xd7;" horiz-adv-x="431" 
d="M166 98q-20 -12 -44 -9t-45 22.5t-29 42.5q-5 14 -2 30.5t11 30.5t18.5 25.5t21.5 22.5q-16 13 -31.5 27.5t-23.5 33.5q-12 30 1 58q9 19 28 33.5t40 18.5q23 5 47 -5q16 -7 30 -16.5t28 -20.5q14 16 30 31.5t36 21.5q31 8 59 -11t39 -49q7 -21 2 -46q-5 -19 -15.5 -36
t-22.5 -31q12 -13 24 -26.5t20 -29.5q10 -20 7 -41q-3 -25 -22 -45.5t-42 -28.5q-11 -4 -21.5 -3.5t-21.5 2.5q-19 5 -34 18t-29 27q-14 -14 -28 -26t-31 -21zM274 325q17 -4 31.5 3t21.5 21q6 13 4 26t-10 22.5t-20.5 14t-26.5 1.5q-14 -5 -24 -16q-5 -5 -7.5 -12.5
t-3.5 -14.5q-2 -15 9 -28.5t26 -16.5z" />
    <glyph glyph-name="divide" unicode="&#xf7;" horiz-adv-x="472" 
d="M286 390q-22 -14 -51.5 -13.5t-50.5 14.5q-23 15 -26 43.5t11 51.5q7 12 18.5 21t25 14.5t28 6t27.5 -4.5q15 -6 30 -16t20 -26q8 -25 -1 -51.5t-31 -39.5zM226 187q-26 -1 -52 -2.5t-52 -2.5q-16 0 -31.5 2.5t-29.5 10.5q-13 7 -21 20t-11 28t-1 31t8 30q11 24 34 36
q18 10 39 14t42 5h41h63.5t63.5 -1t41 -2q19 -3 39 -10.5t31 -23.5q14 -20 14 -48t-11 -50q-10 -18 -31 -29q-11 -6 -25 -8t-27 -2q-32 -1 -62.5 1t-61.5 1zM304 306q-3 -12 0.5 -23.5t11.5 -19t19 -11t23 -0.5q15 3 24.5 13.5t11.5 23t-3 25.5t-18 22q-10 6 -21 6.5
t-20.5 -4t-17 -13t-10.5 -19.5zM271 27q-24 -8 -45.5 -1.5t-36 21.5t-19.5 36t5 44q8 17 22 28t31 15.5t35 1.5t34 -13q13 -8 19 -22q8 -18 8.5 -40t-10.5 -38q-15 -24 -43 -32z" />
    <glyph glyph-name="quoteleft" unicode="&#x2018;" horiz-adv-x="186" 
d="M138 501q-5 -5 -14.5 -7t-20.5 -2.5t-21.5 0t-17.5 0.5q-8 1 -14 8t-7 15q-2 44 -4 87t-7 86q-1 7 0 14t6 12q3 3 10.5 5.5t16 3.5t16 1.5t12.5 0.5q10 0 20.5 -0.5t19.5 -3t15 -8t6 -15.5q0 -9 -1 -34.5t-3 -54t-4 -54t-3 -34.5q0 -5 -0.5 -10.5t-4.5 -9.5z" />
    <glyph glyph-name="quoteright" unicode="&#x2019;" horiz-adv-x="186" 
d="M138 501q-5 -5 -14.5 -7t-20.5 -2.5t-21.5 0t-17.5 0.5q-8 1 -14 8t-7 15q-2 44 -4 87t-7 86q-1 7 0 14t6 12q3 3 10.5 5.5t16 3.5t16 1.5t12.5 0.5q10 0 20.5 -0.5t19.5 -3t15 -8t6 -15.5q0 -9 -1 -34.5t-3 -54t-4 -54t-3 -34.5q0 -5 -0.5 -10.5t-4.5 -9.5z" />
    <glyph glyph-name="quotedblleft" unicode="&#x201c;" horiz-adv-x="347" 
d="M138 501q-5 -5 -14.5 -7t-20.5 -2.5t-21.5 0t-17.5 0.5q-8 1 -14 8t-7 15q-2 44 -4 87t-7 86q-1 7 0 14t6 12q3 3 10.5 5.5t16 3.5t16 1.5t12.5 0.5q10 0 20.5 -0.5t19.5 -3t15 -8t6 -15.5q0 -9 -1 -34.5t-3 -54t-4 -54t-3 -34.5q0 -5 -0.5 -10.5t-4.5 -9.5zM300 498
q-5 -5 -14.5 -7.5t-21 -3t-22 0t-17.5 0.5q-8 1 -14 8t-6 16q-3 43 -5 86t-6 87q-1 7 0 13.5t5 11.5q3 4 10.5 6t16 3t16 1.5t12.5 0.5h21t20 -3t14.5 -8.5t5.5 -15.5q0 -9 -1 -34.5t-3 -54t-3.5 -54t-2.5 -34.5q-1 -5 -1.5 -10t-3.5 -9z" />
    <glyph glyph-name="quotedblright" unicode="&#x201d;" horiz-adv-x="347" 
d="M138 501q-5 -5 -14.5 -7t-20.5 -2.5t-21.5 0t-17.5 0.5q-8 1 -14 8t-7 15q-2 44 -4 87t-7 86q-1 7 0 14t6 12q3 3 10.5 5.5t16 3.5t16 1.5t12.5 0.5q10 0 20.5 -0.5t19.5 -3t15 -8t6 -15.5q0 -9 -1 -34.5t-3 -54t-4 -54t-3 -34.5q0 -5 -0.5 -10.5t-4.5 -9.5zM300 498
q-5 -5 -14.5 -7.5t-21 -3t-22 0t-17.5 0.5q-8 1 -14 8t-6 16q-3 43 -5 86t-6 87q-1 7 0 13.5t5 11.5q3 4 10.5 6t16 3t16 1.5t12.5 0.5h21t20 -3t14.5 -8.5t5.5 -15.5q0 -9 -1 -34.5t-3 -54t-3.5 -54t-2.5 -34.5q-1 -5 -1.5 -10t-3.5 -9z" />
    <glyph glyph-name="Euro" unicode="&#x20ac;" horiz-adv-x="725" 
d="M473 -45q-48 -1 -96.5 6.5t-94.5 23.5q-30 10 -59 25.5t-52 38.5q-17 16 -30 35.5t-22 40.5q-16 38 -22.5 78.5t-8.5 81.5l-24 -3q-8 -1 -15.5 3t-11.5 10q-8 13 -2.5 27t20.5 18q4 1 16.5 1.5t16.5 0.5q0 9 0.5 18t1.5 18q-5 0 -9.5 -0.5t-9.5 -1.5q-5 0 -11 2.5
t-11 4.5q-12 5 -14.5 18t5.5 23q4 5 14 10.5t17 4.5q6 -1 12.5 -1h12.5q3 20 7.5 40.5t9.5 40.5q12 45 35.5 86.5t58.5 73.5q27 26 60.5 43.5t69.5 27.5q54 14 113 9t110 -30q26 -12 48.5 -31t37.5 -43q19 -29 26.5 -65t6.5 -71q0 -36 -19 -68q-13 -22 -35 -35
q-25 -14 -53.5 -21t-57.5 -7q-26 -1 -53.5 6t-47.5 24q-11 9 -12 24.5t-4 29.5q-2 6 -4 16t-4.5 21t-6.5 20t-8 13q-11 8 -21 -1t-17 -21q-11 -20 -16.5 -43t-8.5 -46q4 0 14 -0.5t20.5 -1.5t20 -2t13.5 -3q14 -8 13 -23t-15 -21q-4 -2 -14 -2.5t-21 -1.5t-21.5 -1h-14.5
q-2 -19 0 -37q2 0 9.5 -0.5t15.5 -1t15.5 -0.5h9.5h6t6 -1q11 -2 16 -10t4 -16.5t-7 -15t-17 -6.5q-13 0 -26 -0.5t-26 -0.5q2 -13 6.5 -25.5t12.5 -23.5q14 -17 31 -23q15 -5 31.5 -4.5t32.5 4.5q23 5 44 12.5t44 12.5q15 4 31 5.5t31 -1.5q41 -8 66.5 -37.5t27.5 -70.5
q3 -53 -22 -100q-8 -13 -17 -24t-21 -19q-29 -20 -65.5 -27.5t-71.5 -9.5z" />
    <glyph glyph-name="trademark" unicode="&#x2122;" horiz-adv-x="716" 
d="M191 467q-9 -5 -21 -7t-24 -1t-23.5 4.5t-18.5 9.5q-10 9 -10 24q-1 11 0 22.5t3 22.5q3 26 3.5 52.5t0.5 53.5q-14 -1 -28.5 -2t-26.5 6q-15 8 -18.5 28t2.5 37q3 9 9 17t14 13q8 4 16 4h16q29 0 57 -1t56 -1q14 0 28 1t27 -3q19 -5 27 -22q7 -14 3.5 -34.5t-15.5 -31.5
q-10 -8 -24 -10t-27 0q2 -17 3.5 -34t1.5 -34q1 -20 0.5 -40t-6.5 -39q-3 -11 -9.5 -20.5t-15.5 -14.5zM364 455q-14 -7 -31 -6t-29 9q-14 10 -19 29q-4 13 -3.5 26.5t1.5 27.5q2 26 6.5 52t10.5 52q5 17 9 34.5t14 31.5q13 21 35 33.5t43 0.5q11 -7 19 -17.5t15 -21.5
q30 -56 38 -121q9 32 21 62.5t29 59.5q6 11 14.5 20.5t19.5 15.5q15 8 30 7q9 -1 17 -5.5t15 -10.5q11 -10 19 -22.5t14 -26.5q13 -36 21 -75q5 -19 7.5 -38.5t2.5 -39.5q1 -13 -0.5 -26t-8.5 -24t-18 -17.5t-23.5 -7t-24.5 3.5t-21 14q-10 10 -14 23t-7 27q-5 17 -7.5 34.5
t-4.5 34.5q-11 -20 -20.5 -41.5t-25.5 -38.5q-14 -14 -36.5 -14t-34.5 15q-9 11 -15 24.5t-12 27.5q-4 -19 -7 -38t-10 -37q-5 -11 -11.5 -21t-17.5 -16zM228 736q-9 -2 -12.5 -8t-2 -12t8 -10.5t15.5 -2.5q10 2 13.5 8t1.5 12t-8 10.5t-16 2.5zM586 721q-9 -4 -10.5 -11
t1.5 -13.5t10.5 -9.5t16.5 1t10.5 11t-1.5 13.5t-10.5 9.5t-16.5 -1z" />
    <glyph glyph-name="minus" unicode="&#x2212;" horiz-adv-x="471" 
d="M226 187q-26 -1 -52 -2.5t-52 -2.5q-16 0 -31.5 2.5t-29.5 10.5q-13 7 -21 20t-11 28t-1 31t8 30q11 24 34 36q18 10 39 14t42 5h41h63.5t63.5 -1t41 -2q19 -3 39 -10.5t31 -23.5q14 -20 14 -48t-11 -50q-10 -18 -31 -29q-11 -6 -25 -8t-27 -2q-32 -1 -62.5 1t-61.5 1z
M307 297q-3 -14 2 -26t14.5 -19.5t23 -9.5t26.5 4q16 8 22 22.5t2 28.5t-16 24.5t-30 10.5q-16 0 -28 -9.5t-16 -25.5z" />
    <glyph glyph-name="bar" unicode="|" horiz-adv-x="510" 
d="M351 -176q-39 -20 -86.5 -22t-88.5 15q-22 9 -39.5 26.5t-28.5 37.5q-15 28 -23.5 58t-13.5 61q-9 55 -12 110t-2 111q1 138 9 276q0 3 0.5 13.5t0.5 22v22v13.5q0 36 1 72.5t6 72.5q5 28 12.5 56t23.5 51q12 18 29.5 32.5t37.5 22.5t41 11t42 3q25 0 49 -4t47 -13
q27 -11 48 -35t31 -52q19 -54 19.5 -112.5t-2.5 -115.5q-7 -111 -7 -221t1 -221q1 -38 0 -77t-7 -77q-6 -44 -27 -78q-22 -38 -61 -59zM328 704q8 -5 19 -4.5t20 3.5q17 7 22.5 24.5t-0.5 35.5q-2 8 -8.5 13t-13.5 10q-8 5 -19 4.5t-20 -3.5q-18 -7 -23.5 -24.5t0.5 -35.5
q3 -8 9.5 -13t13.5 -10z" />
    <glyph glyph-name="grave" unicode="`" horiz-adv-x="362" 
d="M238 458q-32 -5 -59 9q-15 8 -28 18.5t-24 22.5q-6 8 -11.5 15.5t-12.5 15.5q-16 18 -30 37.5t-25 40.5q-10 18 -16.5 38.5t-3.5 40.5q1 19 16 37q12 14 30 26.5t38.5 19.5t40.5 8t37 -7q19 -9 32 -25.5t24 -33.5q14 -21 26 -43l24 -44q11 -19 21 -37.5t15 -39.5
q4 -20 -3 -37t-20.5 -29.5t-32 -21t-38.5 -11.5zM147 658q16 -10 33.5 -3t27.5 23q5 8 4.5 18.5t-3.5 20.5q-5 11 -17 18t-24 9q-19 2 -31.5 -12t-14.5 -32q-2 -12 6.5 -23.5t18.5 -18.5z" />
    <glyph glyph-name="NULL" horiz-adv-x="0" 
 />
    <glyph glyph-name="controlCR" horiz-adv-x="0" 
 />
    </font>
</defs>
</svg>
