<svg xmlns="http://www.w3.org/2000/svg">
<defs>
<font id="fFrensya" horiz-adv-x="502" >
  <font-face 
    font-family="f Frensya"
    font-weight="400"
    font-stretch="normal"
    units-per-em="1024"
    panose-1="2 0 5 3 0 0 0 0 0 0"
    ascent="809"
    descent="-215"
    x-height="602"
    cap-height="769"
    bbox="-22 -199 874 827"
    underline-thickness="51"
    underline-position="-51"
    unicode-range="U+0020-007E"
  />
<missing-glyph horiz-adv-x="623" 
d="M199 356q19 13 46 13q13 0 16 -4q2 -3 18.5 -45.5t16.5 -45.5q0 -1 -3 -1q-12 0 -30 10q-47 23 -65 51q-7 10 -7 13q0 4 8 9zM150 316q11 -27 40.5 -51t68.5 -37q23 -8 55 -8q39 0 69 14q17 8 35.5 27.5t27.5 38.5l11 19l-1 27q-1 27 -11 46q-9 18 -30 39q-25 23 -33 23
h-2l-2 -1q-4 -1 -12 -16.5t-8 -20.5q0 -6 8 -9q7 -4 20 -20t17 -25q9 -22 9 -37q0 -1 -0.5 -4t-0.5 -4q-2 -15 -18.5 -28t-31.5 -13q-8 0 -15 13q-27 54 -48 132q-4 14 -6 14t-16 -7q-12 -6 -40 -12q-35 -7 -51.5 -18t-28.5 -36q-11 -22 -11 -30q0 -1 5 -16zM152 143
q6 -4 109 -16q99 -11 99 -16q-1 -2 -51.5 -23.5t-56.5 -21.5q-5 0 -27 6q-20 6 -24 6l-1 -1q-3 -2 -11.5 -17.5t-8.5 -20.5q0 -4 11.5 -9t63.5 -24q80 -28 80 -31q0 -4 -54 -18q-89 -23 -98 -30q-8 -6 -8 -31q0 -12 3 -13h1q7 0 47 11q93 23 122 30q77 18 85 22q23 13 23 32
v2q-1 2 -1 3q-1 5 -10.5 9t-61.5 24q-54 19 -58 23q0 5 44 22q52 21 66.5 29t21.5 18q14 20 14 24q0 2 -2 6q-6 12 -44 19q-20 3 -133 17t-120 14t-13 -14q-8 -16 -8 -26q0 -4 1 -5zM217 644q3 3 21 10q22 8 62 8q20 0 32 -3q26 -5 49 -20.5t23 -26.5q0 -12 -21 -23.5
t-55 -18.5q-21 -4 -30 -8q-4 -3 -7 -3l-10 4q-47 21 -65 51q-4 7 -4 16q0 10 5 14zM171 594q6 -17 29 -42q7 -7 7 -11q0 -5 -11 -5q-6 0 -13 -5q-4 -3 -8 -16t-4 -21v-4q1 -3 51 -3h108q151 2 164 5q6 1 13.5 12t9.5 21v3q0 6 -11.5 8.5t-51.5 3.5q-54 2 -55 3q0 2 11 11
q15 15 28 37.5t13 33.5q0 14 -14.5 32.5t-35.5 30.5q-44 25 -104 25q-44 0 -75 -14q-11 -5 -26 -22t-22 -32q-6 -12 -6 -29q0 -12 3 -22zM57 791h510v-990h-510v990z" />
    <glyph glyph-name=".notdef" horiz-adv-x="623" 
d="M199 356q19 13 46 13q13 0 16 -4q2 -3 18.5 -45.5t16.5 -45.5q0 -1 -3 -1q-12 0 -30 10q-47 23 -65 51q-7 10 -7 13q0 4 8 9zM150 316q11 -27 40.5 -51t68.5 -37q23 -8 55 -8q39 0 69 14q17 8 35.5 27.5t27.5 38.5l11 19l-1 27q-1 27 -11 46q-9 18 -30 39q-25 23 -33 23
h-2l-2 -1q-4 -1 -12 -16.5t-8 -20.5q0 -6 8 -9q7 -4 20 -20t17 -25q9 -22 9 -37q0 -1 -0.5 -4t-0.5 -4q-2 -15 -18.5 -28t-31.5 -13q-8 0 -15 13q-27 54 -48 132q-4 14 -6 14t-16 -7q-12 -6 -40 -12q-35 -7 -51.5 -18t-28.5 -36q-11 -22 -11 -30q0 -1 5 -16zM152 143
q6 -4 109 -16q99 -11 99 -16q-1 -2 -51.5 -23.5t-56.5 -21.5q-5 0 -27 6q-20 6 -24 6l-1 -1q-3 -2 -11.5 -17.5t-8.5 -20.5q0 -4 11.5 -9t63.5 -24q80 -28 80 -31q0 -4 -54 -18q-89 -23 -98 -30q-8 -6 -8 -31q0 -12 3 -13h1q7 0 47 11q93 23 122 30q77 18 85 22q23 13 23 32
v2q-1 2 -1 3q-1 5 -10.5 9t-61.5 24q-54 19 -58 23q0 5 44 22q52 21 66.5 29t21.5 18q14 20 14 24q0 2 -2 6q-6 12 -44 19q-20 3 -133 17t-120 14t-13 -14q-8 -16 -8 -26q0 -4 1 -5zM217 644q3 3 21 10q22 8 62 8q20 0 32 -3q26 -5 49 -20.5t23 -26.5q0 -12 -21 -23.5
t-55 -18.5q-21 -4 -30 -8q-4 -3 -7 -3l-10 4q-47 21 -65 51q-4 7 -4 16q0 10 5 14zM171 594q6 -17 29 -42q7 -7 7 -11q0 -5 -11 -5q-6 0 -13 -5q-4 -3 -8 -16t-4 -21v-4q1 -3 51 -3h108q151 2 164 5q6 1 13.5 12t9.5 21v3q0 6 -11.5 8.5t-51.5 3.5q-54 2 -55 3q0 2 11 11
q15 15 28 37.5t13 33.5q0 14 -14.5 32.5t-35.5 30.5q-44 25 -104 25q-44 0 -75 -14q-11 -5 -26 -22t-22 -32q-6 -12 -6 -29q0 -12 3 -22zM57 791h510v-990h-510v990z" />
    <glyph glyph-name=".null" horiz-adv-x="0" 
 />
    <glyph glyph-name="nonmarkingreturn" horiz-adv-x="341" 
 />
    <glyph glyph-name="space" unicode=" " horiz-adv-x="224" 
 />
    <glyph glyph-name="exclam" unicode="!" horiz-adv-x="224" 
d="M57 754q1 3 13 3q25 0 66 -12q22 -6 27 -19q9 -26 9 -163q0 -35 -2 -141q-5 -226 -22 -243q-1 -1 -5 -1q-10 0 -46 15l-46 19l4 53q8 117 8 312q0 91 -3 118q-4 40 -4 50q0 8 1 9zM58 67q0 42 2.5 51.5t11.5 9.5q12 0 46.5 -13t39.5 -19q4 -4 8 -61q2 -30 2 -35
q0 -22 -8 -25h-5q-14 0 -47.5 9t-40.5 15q-9 7 -9 68z" />
    <glyph glyph-name="quotedbl" unicode="&#x22;" horiz-adv-x="417" 
d="M250 767q3 7 15 7q18 0 51 -11q36 -11 39 -26q1 -9 5 -134l3 -123h-12q-20 0 -52 11.5t-38 20.5q-8 13 -11 130q-1 35 -1 90q0 33 1 35zM55 767q3 7 15 7q18 0 51 -11q36 -11 39 -26q1 -9 5 -134l3 -123h-12q-20 0 -52 11.5t-38 20.5q-8 13 -11 130q-1 35 -1 90
q0 33 1 35z" />
    <glyph glyph-name="numbersign" unicode="#" horiz-adv-x="886" 
d="M486 392q-9 5 -53 5q-27 0 -34 -3t-28 -37.5t-21 -42.5q0 -16 59 -16q36 0 45 9q8 8 26 44q14 28 14 33q0 3 -8 8zM709 746q25 47 33 47t42.5 -17.5t41.5 -25.5q2 -2 2 -8q0 -21 -77 -152q-48 -81 -48 -91q0 -7 10.5 -10t47.5 -6q57 -4 68 -9q8 -5 26.5 -39.5t18.5 -45.5
q0 -8 -15 -8q-5 0 -31 2q-100 8 -154 8q-33 0 -38 -4q-10 -8 -29 -44t-19 -46v-1q3 -8 49 -12q39 -4 52.5 -12.5t41.5 -46.5q22 -30 22 -38q0 -2 -1 -3q-2 -2 -24 -2q-31 0 -76 4q-72 5 -102 5h-8q-12 -2 -22.5 -16.5t-42.5 -80.5q-35 -70 -47.5 -90.5t-21.5 -20.5
q-3 0 -11 4q-26 12 -48 29.5t-22 24.5q0 11 32 75q32 66 32 74q0 14 -37 15q-14 1 -35 1q-35 0 -43 -11q-10 -14 -54.5 -96.5t-58.5 -113.5q-17 -39 -33 -39q-12 0 -41 17q-17 9 -23 12.5t-11.5 10t-5.5 13.5q0 16 43 99q45 86 45 103q0 2 -1 3q-6 6 -42 6h-37l-27 39
q-25 36 -25 45v2q3 8 98 8q81 0 98.5 7t37.5 46q10 20 10 28t-10.5 10.5t-39.5 2.5q-44 0 -56 8q-10 8 -30 41q-17 29 -17 36q0 14 45 14q9 0 65 -2q29 -1 65 -1q37 0 45 6q10 9 45.5 71t63.5 120q29 64 37 69q1 1 2 1q11 0 48.5 -21t40.5 -28v-1q0 -11 -21 -58.5t-48 -97.5
q-20 -37 -20 -49v-1q1 -10 46 -11h19q26 0 34 9q8 8 62.5 99t83.5 144z" />
    <glyph glyph-name="dollar" unicode="$" horiz-adv-x="540" 
d="M336 224q-13 9 -29 9q-12 0 -15 -4t-5 -23q-5 -37 -6 -50v-12q0 -11 6 -14q1 -1 5 -1q17 0 37 24.5t20 46.5q0 15 -13 24zM202 511v5q0 30 -8 30q-13 0 -32 -41.5t-19 -69.5q0 -23 11.5 -43.5t23.5 -20.5q5 0 8 3q5 5 10 51t6 86zM218 801q2 2 6 2q12 0 62 -16
q19 -6 25.5 -11t9.5 -17q5 -18 23 -22q16 -3 54 -23t61 -37q48 -36 48 -116q0 -31 -7 -58q-8 -35 -23.5 -67t-23.5 -32q-7 0 -42.5 23.5t-40.5 30.5q-1 1 -1 2q0 8 13 43q16 41 16 86q0 27 -7 35q-7 9 -36 9q-23 0 -29 -7q-7 -9 -16 -134q-8 -117 -8 -134q0 -6 0.5 -10.5
t1.5 -8t1.5 -5.5t3 -3.5t3.5 -2.5t4 -2.5l5 -2.5q42 -23 83.5 -53.5t47.5 -41.5q10 -19 10 -44q0 -44 -34.5 -88t-90.5 -69q-52 -23 -60 -29.5t-10 -26.5q-2 -19 -4.5 -25.5t-11.5 -6.5q-8 0 -36 10q-35 13 -44.5 20.5t-14.5 25.5q-4 18 -34 37q-40 26 -55.5 40.5
t-23.5 33.5q-11 25 -11 54q0 44 18 44q5 0 46 -24q39 -23 43 -40q2 -11 8.5 -19t11.5 -8q3 0 5 3q4 6 8.5 60t4.5 83q0 9 -1 11q-4 10 -37 32q-66 42 -87 82q-12 23 -12 76q0 36 3.5 51t17.5 46q37 76 104 121q35 24 42 35t7 45q0 39 4 43z" />
    <glyph glyph-name="percent" unicode="%" horiz-adv-x="676" 
d="M476 794q6 4 8 4q1 0 42 -19q39 -19 40 -35v-2q0 -31 -189 -369q-113 -203 -165 -300q-40 -74 -46 -78q0 -1 -1 -1q-11 0 -47 19.5t-41 28.5q-2 4 -2 5q0 11 35.5 78.5t164.5 299.5q148 268 170 314q23 50 31 55zM178 665q-9 21 -20 21q-8 0 -14 -11q-8 -17 -18.5 -68
t-10.5 -76q0 -32 9 -36q2 -1 7 -1q25 0 44 40q12 27 12 70q0 42 -9 61zM79 782q27 10 42 10q19 0 49 -15q79 -40 100 -86q26 -55 26 -111q0 -62 -27.5 -113.5t-75.5 -71.5q-21 -8 -40 -8q-49 0 -96 43q-50 46 -50 122q0 42 20 124q11 46 11 65q0 18 7 25t34 16zM541 216
q-3 16 -12 16q-8 0 -25 -23q-19 -27 -32.5 -65t-13.5 -64q0 -16 7 -23q6 -4 8 -4q6 0 19 13q20 19 35 60.5t15 73.5q0 11 -1 16zM468 375q7 5 13 5q8 0 49 -20q76 -39 102 -97q14 -31 14 -76v-12q0 -56 -12 -89q-24 -61 -59 -97.5t-74 -41.5q-2 0 -6.5 -0.5t-5.5 -0.5
q-17 0 -61 26q-42 25 -58 48t-19 63v15q0 53 23.5 111t63.5 103q26 29 26 41q0 1 -0.5 2t-0.5 2v7q0 8 5 11z" />
    <glyph glyph-name="ampersand" unicode="&#x26;" 
d="M223 168q-21 25 -32 25q-20 0 -37 -57q-6 -22 -6 -26q0 -17 15 -17q11 0 41 15q36 17 36 31q0 9 -17 29zM283 605v9q0 16 -12 18h-3q-29 0 -65.5 -29t-44.5 -60q-6 -24 -6 -57q0 -32 5.5 -57t14.5 -25q15 0 62.5 85t48.5 116zM189 720q26 8 61 8h2q64 0 118 -58
q19 -20 23.5 -29.5t4.5 -29.5q0 -86 -111 -254l-47 -71l10 -19q10 -18 33.5 -39t32.5 -21l2 1q12 6 46 52q37 50 46 50q8 0 44 -19t36 -36t-35 -62q-5 -6 -11.5 -14t-10 -12.5t-8 -10.5t-7 -9.5t-5.5 -8t-4.5 -7t-3 -5.5t-2 -5.5t-0.5 -4.5q0 -5 3 -9.5t12 -14.5t15 -17
l36 -41l-15 -6q-16 -6 -53 -6q-23 0 -32 3t-18 12q-12 14 -19 14q-5 0 -48 -25q-51 -29 -79 -34q-17 -4 -30 -4q-9 0 -31 10q-28 13 -56.5 36t-36.5 38q-9 20 -9 59q0 30 5 46.5t27 59.5l31 62l-23 48q-42 83 -42 160q0 125 102 190q28 17 47 23z" />
    <glyph glyph-name="quotesingle" unicode="'" horiz-adv-x="223" 
d="M55 767q3 7 15 7q18 0 51 -11q36 -11 39 -26q1 -9 5 -134l3 -123h-12q-20 0 -52 11.5t-38 20.5q-8 13 -11 130q-1 35 -1 90q0 33 1 35z" />
    <glyph glyph-name="parenleft" unicode="(" horiz-adv-x="276" 
d="M163 801q10 10 15 10q7 0 42 -24.5t37 -31.5v-1q0 -15 -18 -46q-30 -55 -49 -104q-65 -160 -65 -301q0 -87 28 -173q34 -104 76 -165q17 -25 17 -33q0 -10 -39 -14q-12 -1 -34 -1q-13 0 -15 1q-25 9 -71 113.5t-61 185.5q-8 40 -8 100q0 76 11 133q15 81 61.5 203
t72.5 148z" />
    <glyph glyph-name="parenright" unicode=")" horiz-adv-x="300" 
d="M20 781q10 5 41 5q2 0 6 -0.5t6 -0.5l44 -1l21 -28q24 -32 59 -101.5t48 -111.5q29 -96 29 -196q0 -116 -34 -219q-21 -64 -69 -150.5t-62 -86.5q-12 0 -44 27.5t-32 37.5q0 14 28 61q35 58 50 92q55 119 55 262q0 78 -20 146q-36 124 -128 251q-3 3 -3 6q0 4 5 7z" />
    <glyph glyph-name="asterisk" unicode="*" horiz-adv-x="477" 
d="M161 760q3 9 14 9q9 0 44 -11q37 -13 43.5 -23t6.5 -55v-3q0 -28 2 -38t11 -10q8 0 46 16q44 18 45 18q6 0 39 -34.5t33 -40.5q0 -9 -55 -34q-56 -25 -60 -36v-2q0 -12 32 -41q34 -30 34 -40v-1q-3 -6 -53 -6q-35 0 -46 2.5t-25 14.5q-22 18 -28 18q-9 0 -28 -47
q-18 -47 -26 -49h-2q-10 0 -47.5 20t-40.5 27v2q0 11 16 57l18 52l-19 18q-21 19 -36 29q-17 13 -34 60q-12 33 -12 48q0 4 1 4q1 1 3 1q14 0 71 -39q35 -24 42 -24q8 0 8 64q0 66 3 74z" />
    <glyph glyph-name="plus" unicode="+" horiz-adv-x="691" 
d="M265 488l-3 96l19 -1q15 0 47 -8q29 -7 36.5 -23.5t11.5 -84.5l4 -73l108 -3q110 -3 118 -10q10 -8 26.5 -38.5t16.5 -39.5v-2q-2 -6 -90 -6h-44h-27q-105 0 -110 -5q-6 -6 -11 -94q-5 -89 -10 -94q-1 -1 -7 -1q-17 0 -49.5 6.5t-38.5 11.5t-6 50v36l2 79l-86 -2l-85 -2
l-24 36q-23 37 -23 48q0 5 4 7q2 2 103 9q103 8 110 10q6 2 7.5 7t1.5 26q0 35 -1 65z" />
    <glyph glyph-name="comma" unicode="," horiz-adv-x="265" 
d="M81 175q11 11 17 11q3 0 30 -9q25 -8 48 -30t32 -47q7 -18 7 -52q0 -57 -16 -99q-10 -26 -34 -59t-42 -44q-5 -4 -10 -4q-9 0 -35 30q-32 35 -32 47q0 9 8 15q10 7 27 37.5t17 39.5q0 11 -12 17q-34 18 -34 71q0 47 29 76z" />
    <glyph glyph-name="hyphen" unicode="-" horiz-adv-x="499" 
d="M50 383q2 1 79 1h95q148 -2 172 -9q20 -6 34 -31l7 -12q19 -33 19 -40q0 -10 -25 -10q-8 0 -44 2q-95 5 -178 5l-111 1l-28 35q-27 35 -27 47q0 8 7 11z" />
    <glyph glyph-name="period" unicode="." horiz-adv-x="281" 
d="M116 151q10 6 19 6q12 0 53 -25q28 -19 33.5 -26t6.5 -27v-5q0 -28 -12 -55.5t-28 -35.5t-27 -8q-13 0 -47 17q-37 19 -48 33t-12 46v12q0 49 32 56q14 3 30 12z" />
    <glyph glyph-name="slash" unicode="/" horiz-adv-x="538" 
d="M424 794q6 4 8 4q1 0 42 -19q39 -19 40 -35v-2q0 -31 -189 -369q-113 -203 -165 -300q-40 -74 -46 -78q0 -1 -1 -1q-11 0 -47 19.5t-41 28.5q-2 4 -2 5q0 11 35.5 78.5t164.5 299.5q148 268 170 314q23 50 31 55z" />
    <glyph glyph-name="zero" unicode="0" horiz-adv-x="544" 
d="M334 642q-12 9 -30 9q-30 0 -50 -26q-15 -19 -41.5 -76t-38.5 -94q-18 -57 -24 -95.5t-6 -96.5v-2q0 -123 44 -176q12 -15 19 -18.5t25 -3.5q65 0 113 75t61 201q3 25 3 54q0 82 -21.5 154.5t-53.5 94.5zM189 731l23 26l42 -3q42 -4 81 -24q65 -35 97.5 -72.5
t55.5 -102.5q29 -85 29 -180q0 -142 -58 -262q-36 -74 -80.5 -110t-105.5 -39q-4 0 -10.5 -0.5t-9.5 -0.5q-17 0 -28.5 5t-42.5 24q-47 27 -69 49q-20 20 -41 62.5t-29 82.5q-7 32 -7 90q0 95 16 162q20 82 59.5 166.5t77.5 126.5z" />
    <glyph glyph-name="one" unicode="1" horiz-adv-x="290" 
d="M47 711q48 58 57 58q11 0 32 -14q24 -16 38 -19q19 -4 23 -10q6 -6 8 -307q1 -300 8 -316t24 -19q18 -5 26.5 -13.5t19.5 -35.5q13 -30 13 -35q0 -12 -34 -12q-7 0 -55 2q-94 4 -102 5q-11 2 -38.5 34.5t-27.5 43.5v1q2 9 32 16l29 6l-1 35q0 8 -1 42t-2 90.5t-2 102.5
q-3 165 -3 203q0 5 -13 9q-14 4 -47 30.5t-33 34.5q2 9 49 68z" />
    <glyph glyph-name="two" unicode="2" horiz-adv-x="478" 
d="M249 822q18 4 29 4q39 0 83 -25q51 -31 71 -61.5t20 -79.5q0 -18 -1 -28q-8 -117 -154 -363q-97 -162 -97 -175q0 -8 107 -8h32h51t28 -8t17.5 -13.5t19.5 -29.5q15 -24 15 -30q0 -11 -35 -13.5t-165 -3.5q-17 0 -48 -0.5t-45 -0.5q-107 0 -117 2q-9 2 -30.5 31t-28.5 48
q-1 1 -1 4q0 14 36 14q15 0 22 6.5t25 36.5q6 11 95 164q91 155 124 228.5t37 132.5q1 8 1 24q0 50 -29 50q-59 0 -112 -70t-63 -163l-4 -40l-24 1q-70 3 -79 27q-2 8 -2 19q0 58 22 119q28 75 82.5 129.5t117.5 71.5z" />
    <glyph glyph-name="three" unicode="3" horiz-adv-x="470" 
d="M120 767q40 12 70 12q55 0 119 -44q37 -25 52 -44t21 -49q4 -16 4 -32q0 -14 -6 -40q-15 -59 -62 -113q-24 -28 -24 -34t43 -33q68 -43 93.5 -83.5t25.5 -105.5q0 -34 -3 -49t-15 -39q-19 -39 -55.5 -72.5t-77.5 -50.5q-47 -18 -104 -18q-47 0 -83 14q-34 13 -73.5 40.5
t-39.5 38.5q0 6 4.5 8t23.5 2q21 0 79 -3q74 -2 76 -2q35 0 60 12q58 26 84 77q14 30 14 62q0 60 -41 98q-15 14 -50 23t-71 9q-32 0 -48 -5q-14 -4 -21 -4q-5 0 -6 1q-7 2 -32 39t-25 45q0 6 25 12q48 12 100 46q61 40 87 97q11 25 11 46q0 37 -28 51q-10 4 -22 4
q-42 0 -89 -26q-32 -17 -42 -17q-15 0 -52 13t-39 19q-1 2 -1 5q0 20 36 48t82 42z" />
    <glyph glyph-name="four" unicode="4" horiz-adv-x="528" 
d="M257 792q2 7 11 7q12 0 49 -18.5t40 -25.5l1 -3v-3q0 -28 -36.5 -135t-82.5 -210q-38 -87 -38 -90q0 -5 38 -5q59 0 70 8q8 5 11.5 27.5t7.5 95.5q2 27 4 56t3 44l1 16q0 2 5 2q15 0 51.5 -12.5t43.5 -20.5q4 -4 4 -27q0 -3 -4 -73q-3 -48 -3 -71q0 -26 6 -32.5t24 -6.5
q21 0 32 -18q28 -48 28 -71q0 -2 -1 -3q-3 -3 -25 -3h-14q-5 0 -12.5 0.5t-10.5 0.5q-24 0 -30 -14.5t-6 -70.5v-39q0 -2 0.5 -6.5t0.5 -6.5q0 -100 -4 -104q-3 -3 -12 -3q-18 0 -47.5 6t-34.5 11q-9 9 -13 111l-3 105h-35q-26 0 -108 -6q-60 -4 -74 -4q-11 0 -13 1
q-9 2 -36 36t-27 43q0 4 23 16q14 7 24.5 23t39.5 73q88 175 131 327q4 16 9.5 33.5t8.5 28t3 11.5z" />
    <glyph glyph-name="five" unicode="5" horiz-adv-x="466" 
d="M215 785q98 7 129 7q44 0 53 -7q10 -8 28 -38.5t18 -40.5v-1q-1 -11 -110 -14q-109 -4 -132 -9q-15 -3 -20 -7.5t-8 -18.5q-4 -23 -9 -91.5t-5 -105.5q0 -19 2 -21q1 -1 4 -1q8 0 26 8q26 12 57 12q19 0 32.5 -5t44.5 -24q42 -26 59.5 -45t29.5 -52q21 -59 21 -118
q0 -107 -62 -184.5t-155 -77.5q-34 0 -57.5 8.5t-66.5 38.5q-33 23 -44.5 35.5t-11.5 26.5q0 9 18 9q17 0 29 -1q44 -3 61 -14q15 -9 37 -9q26 0 52.5 12.5t44.5 33.5q46 55 46 145q0 29 -10 66q-17 59 -43 59q-5 0 -8 -1q-15 -4 -68 -55l-54 -50l-27 7q-20 5 -48 18l-21 10
l1 110q0 103 8 203l6 90l-21 24q-18 18 -18 23t4 9q10 10 67 20.5t121 15.5z" />
    <glyph glyph-name="six" unicode="6" horiz-adv-x="496" 
d="M341 392q-13 5 -17 5q-8 0 -24 -4q-34 -8 -67 -38.5t-46 -66.5q-9 -24 -21 -26q-15 -2 -15 -21q0 -15 11 -39q19 -43 60 -43q26 0 58 16q23 11 49.5 42t34.5 56q9 25 9 51q0 57 -32 68zM200 768q20 18 26 18q8 0 37.5 -29t31.5 -39v-5q0 -11 -30 -44q-36 -41 -59 -88
q-44 -85 -44 -117q0 -3 1 -4t2 -1q11 0 42 14q54 24 89 24q13 0 29 -4q20 -5 69 -37q30 -20 42 -32.5t23 -34.5q12 -24 14.5 -37.5t2.5 -52.5t-3 -54t-17 -44q-30 -60 -83.5 -99t-114.5 -44q-8 -1 -20 -1q-20 0 -45 15q-77 46 -105 80q-56 66 -56 192q0 91 31.5 189.5
t89.5 180.5q25 36 47 54z" />
    <glyph glyph-name="seven" unicode="7" horiz-adv-x="489" 
d="M188 786q190 3 215 6h3q16 0 52 -26q36 -25 36 -33q0 -3 -24 -44q-2 -4 -61 -116q-143 -286 -160 -508q-3 -49 -11 -53h-2l-2 -1q-15 0 -47 8l-44 12l1 58q2 190 146 502q38 81 38 93l-1 1q-2 2 -96 2h-42h-37q-100 0 -107 3q-13 5 -35 39t-22 48q0 3 1 4t199 5z" />
    <glyph glyph-name="eight" unicode="8" 
d="M288 346q-34 23 -43 23q-14 0 -45 -45t-46 -88q-16 -48 -16 -86q0 -56 25 -72q8 -5 26 -5q42 0 80 16q37 15 66 47.5t39 70.5q2 7 2 20q0 62 -88 119zM335 643q-13 13 -38 13q-29 0 -59.5 -17.5t-48.5 -45.5q-17 -28 -17 -48q0 -23 18 -43q15 -17 46 -36t43 -19h3
q14 5 40.5 70t26.5 93q0 19 -14 33zM211 743q23 7 46 7q46 0 87 -18q31 -13 62.5 -38.5t40.5 -43.5q11 -22 11 -50q0 -65 -50 -171l-24 -49l34 -36q63 -68 63 -141v-2q0 -78 -70 -148q-73 -73 -165 -77q-10 -1 -26 -1q-21 0 -64 20q-84 44 -109 94q-15 30 -15 86q0 42 11 83
q22 75 68 137q20 27 20 37q0 7 -29 36q-41 41 -41 91q0 15 5 35q12 52 50.5 91t94.5 58z" />
    <glyph glyph-name="nine" unicode="9" horiz-adv-x="491" 
d="M304 673q-10 7 -14 7t-21 -5q-33 -10 -72 -47.5t-60 -80.5q-11 -23 -13.5 -38.5t-2.5 -55.5q0 -42 2 -53.5t11 -18.5q10 -8 19 -8q3 0 11 2q36 10 71 42.5t60 77.5q14 27 17 41t3 62q0 45 -2 57.5t-9 17.5zM205 766q36 14 55 14q26 0 72 -26q42 -23 65 -51q20 -24 39 -35
l19 -12l-3 -169q-4 -214 -15.5 -289t-45.5 -127q-28 -42 -77.5 -66t-106.5 -24q-26 0 -53 6q-38 8 -49.5 16.5t-21.5 34.5q-13 35 -13 48q0 8 5 8h2q30 -6 56 -11q35 -6 49 -6q13 0 31 3q31 6 57.5 28.5t39.5 52.5q10 24 18 71t8 79q0 28 -6 28q-4 0 -34 -22
q-52 -41 -114 -47q-7 -1 -16 -1q-12 0 -24 6t-42 27q-45 32 -63.5 60t-25.5 78q-2 11 -2 35q0 89 56 173t140 118z" />
    <glyph glyph-name="colon" unicode=":" horiz-adv-x="281" 
d="M116 520q10 6 19 6q12 0 53 -25q28 -19 33.5 -26t6.5 -27v-5q0 -28 -12 -55.5t-28 -35.5t-27 -8q-13 0 -47 17q-37 19 -48 33t-12 46v12q0 49 32 56q14 3 30 12zM116 151q10 6 19 6q12 0 53 -25q28 -19 33.5 -26t6.5 -27v-5q0 -28 -12 -55.5t-28 -35.5t-27 -8
q-13 0 -47 17q-37 19 -48 33t-12 46v12q0 49 32 56q14 3 30 12z" />
    <glyph glyph-name="semicolon" unicode=";" horiz-adv-x="265" 
d="M116 520q10 6 19 6q12 0 53 -25q28 -19 33.5 -26t6.5 -27v-5q0 -28 -12 -55.5t-28 -35.5t-27 -8q-13 0 -47 17q-37 19 -48 33t-12 46v12q0 49 32 56q14 3 30 12zM81 175q11 11 17 11q3 0 30 -9q25 -8 48 -30t32 -47q7 -18 7 -52q0 -57 -16 -99q-10 -26 -34 -59t-42 -44
q-5 -4 -10 -4q-9 0 -35 30q-32 35 -32 47q0 9 8 15q10 7 27 37.5t17 39.5q0 11 -12 17q-34 18 -34 71q0 47 29 76z" />
    <glyph glyph-name="less" unicode="&#x3c;" horiz-adv-x="369" 
d="M213 524l70 71l14 -9q26 -17 44.5 -34.5t18.5 -25.5v-1q-2 -9 -102 -115q-100 -105 -100 -117q0 -10 39 -60.5t85 -101.5q45 -49 45 -53q0 -11 -57 -16q-20 -2 -23 -2q-12 0 -33 21q-20 20 -62.5 69.5t-63.5 77.5q-34 43 -45 55q-23 24 -23 29q0 3 6 11q19 29 187 201z
" />
    <glyph glyph-name="equal" unicode="=" horiz-adv-x="479" 
d="M23 446q0 8 61 8q11 0 129 -2q192 -4 201 -9q10 -4 27.5 -36.5t17.5 -44.5v-12l-179 3q-181 4 -201 7q-17 2 -23 8.5t-17 32.5q-16 36 -16 45zM31 261q3 8 37 8q13 0 34.5 -1t61 -2.5t76.5 -2.5q150 -5 159 -11q10 -5 28 -38.5t18 -44.5q0 -2 -1 -3q-3 -3 -35 -3
q-13 0 -75 2q-95 5 -173 5q-68 0 -80 6q-10 5 -30 38.5t-20 44.5v2z" />
    <glyph glyph-name="greater" unicode="&#x3e;" horiz-adv-x="384" 
d="M35 568q28 2 34 2q19 0 32 -9t56 -48q12 -10 18 -16q82 -77 114 -101q76 -57 76 -74q0 -8 -28 -40q-51 -60 -144 -196q-41 -57 -52 -59v-1q-9 0 -38 23t-36 36q-1 1 -1 5q0 18 108 165q51 69 51 76q0 8 -21 29.5t-103 95.5q-96 86 -96 101q0 8 30 11z" />
    <glyph glyph-name="question" unicode="?" horiz-adv-x="408" 
d="M181 757q23 5 40 5q40 0 101 -40q39 -26 52.5 -48t13.5 -59v-20q-2 -37 -20 -77t-60 -108q-43 -68 -59 -103.5t-18 -69.5q-3 -39 -10 -42q-1 -1 -8 -1q-18 0 -49 5.5t-35 9.5q-9 9 -9 39q0 20 7 50q17 67 80 165q43 66 57 97t14 58t-7 36.5t-27 9.5q-42 0 -69.5 -36.5
t-32.5 -97.5l-3 -47l-36 -1q-3 0 -9 -0.5t-8 -0.5q-28 0 -39 7.5t-14 29.5q-1 5 -1 20q0 62 21 110q17 39 53 69.5t75 39.5zM151 127q3 6 8 6q1 0 44 -10q40 -10 48 -22q8 -13 12 -69l4 -58h-15q-5 0 -53 13q-15 4 -18.5 5t-11.5 6.5t-8.5 7.5t-3.5 15t-3.5 21t-2.5 33
q0 2 -1.5 15.5t-1.5 18.5q0 12 3 18z" />
    <glyph glyph-name="at" unicode="@" horiz-adv-x="680" 
d="M380 314q-8 8 -22 8q-25 0 -55.5 -17.5t-45.5 -40.5q-17 -28 -17 -60q0 -22 8 -29q4 -3 10 -3q18 0 47 23t57 58q24 33 24 47q0 8 -6 14zM329 636q31 9 77 9h5q26 0 39 -3t37 -15q159 -81 159 -285q0 -100 -40 -178t-92 -78q-17 0 -48.5 16.5t-43.5 32.5l-16 19l-32 -25
q-54 -42 -91 -42q-26 0 -52 13q-81 39 -81 127v1q0 63 46.5 112.5t118.5 63.5l36 8l59 -28q53 -25 65 -32q9 -5 12 -84q2 -78 13 -81h1q10 0 27 37t24 73q6 29 6 61q0 65 -22 121.5t-55 73.5q-24 11 -53 11q-50 0 -108 -28t-106 -76q-102 -102 -102 -226v-15q2 -54 23 -98
q21 -43 39 -62.5t48 -27.5q25 -8 46 -8q17 0 47 8q22 5 30 5q7 0 11 -3q9 -6 28.5 -30t19.5 -29q0 -6 -18.5 -14.5t-44.5 -14.5q-25 -5 -44 -5q-68 0 -153 59q-59 40 -91.5 107t-32.5 150v1q0 70 26.5 129.5t84.5 122.5q50 53 95.5 82.5t102.5 44.5z" />
    <glyph glyph-name="A" unicode="A" horiz-adv-x="546" 
d="M356 389q-14 90 -20 96h-2q-6 0 -20 -29q-14 -34 -64 -137q-49 -102 -49 -109q0 -8 44 -8q12 0 84 4l54 4v17q0 17 -6 45q-9 42 -21 117zM316 763l3 19l31 -4q66 -8 74 -38q4 -15 11 -105q11 -146 35 -295.5t43 -189.5q11 -21 13 -51q2 -24 14 -64q11 -36 11 -48
q0 -15 -16 -15h-8q-18 2 -50 10l-27 7l-14 43q-18 56 -25.5 65.5t-42.5 10.5h-8q-36 0 -121.5 -8t-97.5 -13q-9 -4 -27 -37q-20 -36 -27 -38h-1q-10 0 -47.5 22.5t-40.5 30.5v1q0 11 32 70q72 131 147 294q133 295 139 333z" />
    <glyph glyph-name="B" unicode="B" horiz-adv-x="686" 
d="M498 337q-60 15 -167 15q-32 0 -47 -3l-21 -4l-1 -41q0 -2 -0.5 -7.5t-0.5 -9.5q0 -54 3 -114l5 -91l28 1q47 2 113 31t108 68q31 28 41.5 46.5t10.5 44.5q0 27 -14.5 40t-57.5 24zM424 679q-46 11 -105 11q-67 0 -76 -12q-4 -6 -4 -25q0 -27 4 -75q7 -94 9 -97
q3 -4 7 -4q11 0 57 35q63 47 100 86t37 59v2q-1 13 -29 20zM184 778q49 7 107 7q51 0 82 -5q50 -8 110 -40t79 -62q7 -12 7 -26q0 -32 -27.5 -76.5t-73.5 -85.5q-38 -31 -38 -40q0 -8 40 -17q72 -18 144 -68q40 -28 54 -50t14 -59q0 -64 -53.5 -123.5t-150.5 -104.5
q-85 -40 -192 -46q-4 0 -14 -0.5t-14 -0.5q-47 0 -85.5 7.5t-48.5 18.5q-8 9 -18.5 39.5t-10.5 42.5q0 3 1 4t6 1q10 0 21 -3q15 -5 23 -5h5q5 1 5 75q0 70 -4.5 149t-10.5 90q-7 14 -7 19q0 2 4 10t4 30q0 30 -4 82q-7 103 -10 109t-15 6q-3 0 -19 -2l-29 -3l-32 36
q-27 31 -27 38q0 3 3 6q11 11 61 24t114 23z" />
    <glyph glyph-name="C" unicode="C" horiz-adv-x="508" 
d="M257 753q21 8 36 8q28 0 73 -31q100 -67 107 -205q2 -24 2 -29q0 -28 -13 -28q-8 0 -39 12q-36 14 -44.5 21.5t-8.5 25.5q0 35 -15 79.5t-29 49.5q-2 1 -7 1q-27 0 -72.5 -48.5t-75.5 -109.5q-27 -54 -37 -95t-10 -95q0 -84 32 -151.5t75 -75.5q4 -1 14 -1
q37 0 76.5 31.5t64.5 82.5q8 17 17 29.5t12 12.5q10 0 47 -20t39 -26q1 -1 1 -5q0 -23 -34.5 -76.5t-65.5 -78.5q-63 -50 -126 -50q-32 0 -59 12q-95 44 -147.5 132t-52.5 205v1q0 104 36 183q81 190 204 239z" />
    <glyph glyph-name="D" unicode="D" horiz-adv-x="649" 
d="M397 697q-22 17 -34 21.5t-45 7.5q-11 1 -30 1t-20 -2v-3q-1 -2 -1 -4q0 -17 5 -60q7 -70 9 -300q2 -238 5 -246q4 -9 9 -9q7 0 51 21q96 50 144 141q39 75 39 157v2q0 82 -35 154t-97 119zM158 814q38 13 93 13q38 0 68 -8q37 -12 91 -44q171 -102 215 -269
q10 -37 10 -104q0 -69 -10 -106q-31 -115 -118 -194.5t-217 -112.5q-62 -15 -101 -15q-22 0 -29 4t-24.5 41t-17.5 46q0 8 22 8q24 0 31 13q4 8 4 108q0 98 -1 172q-3 212 -6 264t-13 56h-2q-12 0 -30 -15q-23 -19 -33 -19q-13 0 -47.5 20t-35.5 28v2q0 21 49 57.5t102 54.5
z" />
    <glyph glyph-name="E" unicode="E" horiz-adv-x="483" 
d="M33 776q39 4 240 4q117 0 130 -3q11 -2 18.5 -10.5t20.5 -30.5q20 -33 20 -42q0 -12 -41 -12q-11 0 -81 2q-72 2 -83 2q-43 0 -48 -4q-6 -5 -6 -54q0 -39 1 -68q2 -118 5 -129q1 -5 2.5 -7.5t5 -3.5t9.5 -1q3 0 35 2l49 4l27 -36q27 -39 27 -47q0 -5 -5 -8q-3 -2 -62 -9
t-72 -13l-13 -5l1 -106l1 -107l103 -3q105 -4 107 -6q7 -7 25 -38q20 -33 20 -42t-17.5 -11.5t-67.5 -2.5h-22q-118 0 -172 -3l-64 -4l-28 40l-27 41l15 12l14 11v133q0 134 -6 146q-4 8 -4 12q0 7 4 15q5 12 5 56q0 12 -2 88q-4 102 -9 123t-26 21q-14 0 -40 35
q-25 31 -25 43q0 13 36 16z" />
    <glyph glyph-name="F" unicode="F" horiz-adv-x="447" 
d="M9 746q4 6 54 6q13 0 107 -2q148 -3 189 -8l35 -4l23 -36q22 -35 22 -43q0 -12 -41 -12q-38 0 -67 1q-70 2 -75 2q-36 0 -38 -6v-14q0 -38 8.5 -123t12.5 -89q6 -6 44 -10q30 -3 44 -10q7 -4 26.5 -39.5t19.5 -43.5l-1 -1q-4 -4 -66 -4h-62v-29q0 -40 5 -155
q0 -17 1.5 -46.5t1.5 -40.5q0 -50 -18 -50q-8 0 -40 14q-42 16 -46 20q-3 3 -8 142q-5 137 -12 146q-6 8 -20 10q-13 1 -42 33.5t-29 44.5v1q2 10 43 16l41 5l1 20v2q1 2 1 4q0 30 -7 105q-7 73 -13.5 89.5t-29.5 16.5q-15 0 -41 41q-23 36 -23 45v2z" />
    <glyph glyph-name="G" unicode="G" horiz-adv-x="627" 
d="M310 764q15 3 32 3q78 0 158 -66q62 -51 81 -114q4 -16 4 -20q0 -11 -14 -11q-10 0 -43 10q-34 10 -42.5 15.5t-18.5 25.5q-16 30 -27 41q-18 18 -60 18q-52 0 -100 -27q-26 -15 -61.5 -54t-53.5 -72q-17 -32 -29.5 -79t-12.5 -79v-1q0 -58 27.5 -122.5t70.5 -107.5
q22 -22 31 -27.5t26 -5.5q109 0 143 109q11 39 11 52q0 15 -8 18q-2 1 -14 1q-14 0 -74 -4q-43 -4 -76 -4h-11q-7 3 -31.5 39.5t-24.5 43.5q0 5 16 9q28 5 114 10.5t147 5.5h22l85 -2l27 -37q26 -35 26 -43v-1q-1 -5 -41 -9q-34 -2 -42.5 -10.5t-8.5 -37.5
q0 -68 -37.5 -131.5t-92.5 -88.5q-44 -19 -74 -19q-48 0 -123 46q-55 33 -89.5 69.5t-61.5 91.5q-43 85 -43 181q0 89 44 176q88 179 249 208z" />
    <glyph glyph-name="H" unicode="H" horiz-adv-x="588" 
d="M37 764q3 4 10 4q4 0 6 -1q3 -1 10 -2.5t17 -3.5t17 -4q31 -6 39 -20q9 -14 30 -235q4 -37 11 -42t88 -5h39l119 2l-2 46q-3 66 -10 151q-5 65 -5 94q0 15 2 17t8 2q18 0 51 -11t38 -19q10 -16 29 -305t19 -408q0 -37 -2 -39q-1 -1 -7 -1q-15 0 -46.5 9.5t-40.5 17.5
q-9 9 -17 168q-9 160 -16 167q-4 4 -67.5 7.5t-119.5 3.5q-47 0 -51 -3t-4 -37q0 -23 5 -131q3 -87 3 -134q0 -80 -19 -83h-1q-10 0 -48 21l-38 21l-2 74q-3 134 -7 196q-7 124 -19 146q-9 17 -9 24q0 2 6 14q5 10 5 33q0 32 -16 176q-6 51 -6 81q0 8 1 9z" />
    <glyph glyph-name="I" unicode="I" horiz-adv-x="212" 
d="M41 765q1 4 8 4q5 0 47 -9q41 -9 47 -22q5 -12 14 -135.5t16 -265.5q3 -61 3 -193q0 -180 -9 -189q-4 -4 -10 -4q-17 0 -56 23l-31 20l-4 228q-3 220 -16 383q-9 131 -9 155v5z" />
    <glyph glyph-name="J" unicode="J" horiz-adv-x="461" 
d="M225 816q25 3 60 3q74 0 96 -10q15 -7 29 -45q10 -27 10 -39q0 -10 -10 -10q-6 0 -17 3q-8 2 -20 2q-9 0 -11 -2q-1 -1 -1 -7q0 -13 12 -66q41 -180 41 -317v-11q0 -73 -7 -112t-28 -79q-28 -56 -76.5 -87.5t-102.5 -31.5q-33 0 -70 16q-61 29 -94.5 69.5t-33.5 85.5v7
q1 33 16 33q12 0 48 -17q27 -14 34 -21t14 -30q9 -29 20 -38.5t36 -9.5q38 0 71 30t51 82q11 36 11 136q0 99 -11 168q-11 66 -26 127t-21 66q-4 2 -11 2q-34 0 -87 -22q-12 -5 -19 -5q-18 0 -66 35q-22 16 -22 23q0 6 2 9q9 18 64 36.5t119 26.5z" />
    <glyph glyph-name="K" unicode="K" horiz-adv-x="501" 
d="M46 779q1 5 15 5q21 0 50.5 -10.5t35.5 -21.5q7 -13 11 -81q5 -112 14 -112q6 0 74 79q127 149 143 149q10 0 24 -12q8 -7 33 -27q19 -15 19 -24t-48 -62q-80 -88 -153.5 -181t-73.5 -105q0 -15 250 -275q80 -82 80 -92q-4 -6 -52 -6h-48l-117 121q-112 117 -123 117
q-6 -4 -10 -113q-4 -97 -8.5 -124.5t-16.5 -29.5h-2q-13 0 -48 22l-37 22l3 111q2 61 2 149q0 101 -8 114q-4 8 -4 15q0 8 4 17q5 12 5 58q0 57 -12 213q-3 42 -3 71q0 12 1 13z" />
    <glyph glyph-name="L" unicode="L" horiz-adv-x="450" 
d="M54 760q4 9 14 9t46 -8.5t40 -12.5q5 -5 5 -78q1 -125 14.5 -323.5t21.5 -207.5q6 -7 42 -7q35 0 99.5 -6.5t77.5 -11.5t33 -46q16 -32 16 -37q0 -11 -19 -11q-5 0 -13 1t-20 3t-23 3q-59 7 -144 7q-82 0 -117 -7l-40 -9l-36 36q-29 29 -29 41t31 19q23 6 26 16l1 3v5
q0 28 -9 158q-19 262 -19 418q0 38 2 46z" />
    <glyph glyph-name="M" unicode="M" horiz-adv-x="673" 
d="M55 772q4 9 7 9q11 0 49 -14.5t45 -21.5q15 -15 85 -155q74 -146 82 -147h1q9 0 40 76q77 198 96 220q10 12 15 12l10 -5q7 -4 14 -4q11 0 11 19q0 14 5 17h3q11 0 46 -10t45 -16q18 -11 18 -300q0 -68 -4 -284q-4 -176 -16 -176q-10 0 -43 9.5t-42 14.5q-6 4 -6 129v145
q0 20 0.5 55.5t0.5 51.5q0 162 -3 165q-2 2 -3 2q-8 0 -66 -145q-44 -111 -61.5 -144.5t-29.5 -35.5h-1q-14 0 -46 26t-35 41q-4 18 -49 104.5t-52 88.5q-6 0 -6 -162v-88v-66q0 -188 -2 -190h-3q-10 0 -40 7q-37 9 -38 10q-19 9 -23 66q-3 39 -5 321q-1 81 -1 217
q0 152 2 158z" />
    <glyph glyph-name="N" unicode="N" horiz-adv-x="583" 
d="M48 686q-2 46 -2 50q0 15 3 21t13 6q8 0 48 -7t50 -17q6 -6 52 -104q56 -120 145 -282q47 -85 56 -85q3 0 4 4q2 10 6 241q4 234 7 242q4 9 12 9q11 0 50.5 -16t41.5 -21v-29q0 -62 -3 -172q-5 -177 -5 -351q0 -159 -8 -166q-3 -3 -9 -3q-7 0 -33 8q-61 20 -61 38
q0 8 -70 131q-80 142 -118 210q-49 89 -54 89q-3 0 -3 -87q0 -94 1 -161q2 -168 2 -178q0 -72 -6 -74h-3q-15 0 -48 12q-41 16 -47 31q-6 16 -6 158q0 203 -15 503z" />
    <glyph glyph-name="O" unicode="O" horiz-adv-x="530" 
d="M287 687q-21 7 -32 7q-25 0 -38 -19q-26 -34 -48.5 -95t-32.5 -122q-5 -30 -5 -80q0 -92 20 -159q16 -56 18 -65q3 -15 24.5 -30t40.5 -15q66 0 121.5 99t55.5 215q0 23 -1 33q-6 77 -43 145.5t-80 85.5zM171 787q22 6 48 6q31 0 52 -7t74.5 -44.5t71.5 -57.5
q51 -59 78 -138q14 -39 16.5 -60t2.5 -86q0 -90 -13 -137q-23 -77 -65 -139t-95 -96q-23 -14 -35 -18t-38 -4h-2q-35 0 -60 12.5t-68 51.5q-92 83 -113 258q-3 26 -3 55q0 154 59 280q20 44 20 58q0 11 7 25q5 9 25.5 22.5t37.5 18.5z" />
    <glyph glyph-name="P" unicode="P" horiz-adv-x="509" 
d="M301 720q-22 8 -85 8q-43 0 -51 -5q-5 -3 -5 -17q0 -6 7 -78q10 -101 13 -136q4 -52 7.5 -62.5t17.5 -10.5q20 0 57.5 20t60.5 43q56 56 56 126q0 86 -78 112zM124 819q27 6 64 6q59 0 101 -12q23 -7 66 -30.5t72 -46.5q38 -28 57 -93q8 -26 8 -51q0 -91 -74.5 -172
t-181.5 -102q-36 -7 -40 -15v-16q0 -62 4 -141q3 -75 3 -113t-4 -51.5t-13 -13.5q-5 0 -49 36l-41 36l-7 159q-16 354 -36 477q-3 20 -8.5 30t-19.5 23q-24 20 -24 28q0 13 39 32.5t84 29.5z" />
    <glyph glyph-name="Q" unicode="Q" horiz-adv-x="556" 
d="M327 680q-32 13 -58 13h-2q-15 0 -22.5 -4t-20.5 -18q-19 -21 -45.5 -74t-36.5 -91q-11 -42 -11 -136t10 -133q19 -72 37.5 -103.5t43.5 -31.5q16 0 39.5 11t29.5 22q2 4 2 8q0 23 -33 99q-11 27 -11 40v3q3 4 22 4q17 0 27 -1q35 -3 45 -8.5t24 -28.5q4 -7 7 -7
q4 0 11 9q12 14 27.5 64t19.5 91q3 22 3 46q0 106 -54 182q-20 31 -54 44zM159 766q22 20 29.5 23.5t29.5 3.5h6q41 0 69 -8.5t72 -35.5q93 -55 134.5 -131t41.5 -189v-2q0 -154 -87 -283q-27 -42 -27 -51q0 -13 29 -96q24 -70 24 -87v-2q-3 -3 -17 -3q-56 0 -75 13
q-13 9 -29 54q-14 36 -21 41q-4 2 -10 2q-7 0 -45 -10l-37 -10l-39 17q-40 16 -64 35q-84 64 -111 217q-8 53 -8 124q0 76 9 127q12 71 47.5 142t78.5 109z" />
    <glyph glyph-name="R" unicode="R" horiz-adv-x="567" 
d="M372 708q-26 9 -85 13q-28 2 -35 2q-23 0 -30 -12t-7 -53q0 -12 2 -90q4 -134 9 -145q3 -8 11 -8q9 0 47 22q33 19 73.5 58.5t55.5 65.5q17 29 17 61q0 28 -13 51q-8 15 -16.5 21.5t-28.5 13.5zM140 805q46 11 93 11q108 0 175 -39q36 -21 77.5 -57t48.5 -53q8 -17 8 -56
q0 -37 -11 -67q-19 -48 -62.5 -97.5t-103.5 -88.5q-46 -28 -46 -31t118 -126q113 -118 113 -127v-1q-7 -7 -48 -10l-43 -4l-107 107q-106 106 -114 106q-7 0 -7 -42q0 -40 1 -73q2 -70 2 -91q0 -30 -1 -32q-3 -7 -12 -7q-10 0 -49 15q-40 15 -43 27q-2 10 -18 478
q-4 108 -10 116q-5 7 -15 7q-12 0 -47.5 25t-35.5 33q0 9 24.5 27.5t50.5 28.5q31 13 62 21z" />
    <glyph glyph-name="S" unicode="S" 
d="M183 808q22 8 58 8h3q32 0 70 -19q85 -44 124 -95.5t43 -124.5v-20q0 -81 -19 -98q-4 -2 -7 -2q-7 0 -41 19l-40 25v65q0 42 -2.5 58.5t-11.5 34.5q-26 53 -80 57h-10q-57 0 -96.5 -51.5t-39.5 -126.5v-2q1 -60 29.5 -96.5t125.5 -100.5q70 -46 105 -77q59 -52 59 -109
t-55 -101t-129 -48q-5 0 -14 -0.5t-13 -0.5q-31 0 -52.5 8t-58.5 33q-44 29 -60 50t-16 52q0 2 0.5 6t0.5 5q1 19 3 24t10 5h4q14 0 50 -17q21 -10 29 -17t11 -19q5 -20 17 -28t36 -8q2 0 7.5 0.5t8.5 0.5q46 4 77 25t31 48v6q-4 26 -36 56t-105 77q-90 58 -131.5 117
t-41.5 129q0 85 44.5 156t112.5 96z" />
    <glyph glyph-name="T" unicode="T" horiz-adv-x="539" 
d="M81 766q70 8 165 8q199 0 231 -19q11 -7 30 -39t19 -43q0 -8 -13 -8q-4 0 -30 2q-97 9 -121 9q-23 0 -26 -7q-1 -2 -1 -14q0 -24 3 -54q19 -170 19 -402v-12q0 -166 -4 -178q-3 -11 -12 -11t-49 20l-39 21l-4 206q-3 166 -12 290t-19 135q-4 6 -21 6q-21 0 -58 -4
q-48 -5 -68 -5q-3 0 -8 1h-2q-6 2 -30.5 32.5t-28.5 40.5q-1 2 -1 4q0 11 80 21z" />
    <glyph glyph-name="U" unicode="U" horiz-adv-x="627" 
d="M463 769l-4 26l35 -4q45 -4 59 -13t19 -35q20 -92 20 -215q0 -163 -32 -267q-34 -109 -107 -169t-171 -60q-30 0 -57.5 11t-78.5 43q-56 36 -79 103.5t-24 196.5v13q0 105 4 218.5t8 117.5h4q14 0 50 -8t41 -13q4 -4 4 -239q0 -168 2 -206t11 -67q12 -38 28 -56
q13 -14 34 -14q17 0 29 1q97 5 150.5 75t70.5 212q4 32 4 104q0 135 -10 190q-9 48 -10 55z" />
    <glyph glyph-name="V" unicode="V" horiz-adv-x="574" 
d="M454 765q1 1 4 1q10 0 22 -6q6 -2 21 -9t21 -9q21 -10 25 -17l1 -1v-2q0 -24 -110 -342q-105 -300 -119 -367q-3 -15 -11 -15q-6 0 -10 1q-25 5 -52 17l-33 15l-10 46q-28 132 -128 461q-57 186 -57 194t14 8q2 0 28 -2q40 -3 53 -10q14 -7 96 -287q39 -133 46.5 -155.5
t14.5 -22.5q10 0 129 354q49 144 55 148z" />
    <glyph glyph-name="W" unicode="W" horiz-adv-x="803" 
d="M682 764q6 11 9 11q1 0 6.5 -4t17 -12.5t20.5 -14.5q40 -31 40 -44q0 -16 -14 -91q-14 -72 -49 -319q-31 -215 -40 -260t-20 -50q-8 -4 -19 -4q-20 0 -44 6.5t-31 14.5q-20 25 -99 251q-41 115 -43 117q-1 1 -3 1q-16 0 -65 -223q-34 -156 -40 -169q-6 -12 -19 -12h-10
q-20 0 -43.5 5t-28.5 10q-6 6 -31 128q-60 287 -130 510q-26 85 -26 94q0 8 15 8q3 0 31 -2q44 -4 55 -15q8 -8 42.5 -120.5t61.5 -219.5q23 -94 30 -94q1 0 2 1q2 2 44 152q86 315 99 315q8 0 48 -21t42 -27v-1q0 -15 -17 -73l-20 -66l20 -48q14 -35 59 -159
q42 -119 51 -119q2 0 3 1q4 3 31 196q47 315 65 347z" />
    <glyph glyph-name="X" unicode="X" horiz-adv-x="545" 
d="M385 686q45 78 53 78q9 0 42.5 -18t40.5 -26q2 -2 2 -4q0 -15 -86 -166q-95 -169 -98 -178q-2 -6 -2 -12q0 -16 39 -95q113 -235 113 -261q0 -9 -11 -11h-1q-10 0 -54 20l-44 22l-31 64q-66 140 -78 143q-7 0 -72 -103q-67 -104 -75 -109h-4q-15 0 -48.5 22.5t-33.5 32.5
q0 12 44 82q125 200 125 215q0 8 -52.5 105.5t-97.5 172.5q-49 82 -49 88q0 9 42 9q46 0 61 -12q7 -5 40.5 -60t58.5 -100q49 -90 58 -90q8 0 30 40q3 5 88 151z" />
    <glyph glyph-name="Y" unicode="Y" horiz-adv-x="543" 
d="M414 771q12 22 20 22q10 0 47 -24.5t37 -31.5q0 -5 -20 -60q-26 -67 -117 -352l-38 -120l4 -102q2 -52 2 -69q0 -37 -2 -43q-3 -10 -12 -10q-14 0 -51 30l-39 32l-6 98l-7 99l-67 143q-93 197 -129 283q-21 53 -21 63q0 11 10 11h1q10 0 45 -8t41 -11q7 -4 60 -122
q95 -207 104 -209h2q7 0 47 128q60 195 89 253z" />
    <glyph glyph-name="Z" unicode="Z" horiz-adv-x="629" 
d="M500 766q10 15 17 15q10 0 48 -25.5t38 -32.5q0 -9 -95 -142q-105 -148 -184 -272.5t-79 -142.5q0 -2 1 -2q5 -4 89 -9q67 -4 129 -13.5t81 -17.5q11 -5 30 -40.5t19 -48.5q0 -3 -1 -4t-6 -1q-18 0 -58 8q-119 22 -239 22q-94 0 -149 -13t-65 -13q-8 0 -15.5 3.5t-12 7
t-19.5 16.5q-34 30 -34 39q0 17 65 35l33 9l58 98q44 74 131.5 209.5t111.5 164.5q16 19 16 30q0 12 -21 16q-14 2 -68 2q-62 0 -96 -1l-141 -5l-25 37q-22 35 -22 45q0 12 30 15q69 6 160 6q94 0 141 -3l120 -7z" />
    <glyph glyph-name="bracketleft" unicode="[" horiz-adv-x="308" 
d="M112 816q64 11 88 11h5q13 0 20 -5t25 -29q26 -33 26 -41q0 -14 -77 -26q-54 -9 -57 -15q-4 -8 -4 -24q0 -22 10 -222q15 -279 16 -323q3 -100 11 -113q6 -10 34 -10h3q23 0 37 -6q10 -5 32 -39.5t22 -45.5l-1 -1v-2q-3 -4 -27 -4q-8 0 -42 2q-83 4 -100.5 9t-32.5 28
q-25 35 -29 39q-8 8 -11 34t-5 129q-3 105 -14 323q-7 125 -7 216q0 90 9 99q5 5 69 16z" />
    <glyph glyph-name="backslash" unicode="\" horiz-adv-x="537" 
d="M115 794q5 -3 29 -55q22 -46 170 -314q134 -241 167.5 -304t33.5 -74q0 -3 -1 -5q-5 -9 -41 -28.5t-47 -19.5l-2 1q-6 4 -46 78q-52 97 -165 300q-189 338 -189 369v2q1 17 39 35q41 19 43 19q3 0 9 -4z" />
    <glyph glyph-name="bracketright" unicode="]" horiz-adv-x="306" 
d="M1 816q3 4 31 4q8 0 44 -2q47 -2 66.5 -5.5t44.5 -14.5q36 -14 49 -24q7 -6 7 -151q0 -138 6 -264t6 -243q0 -93 2 -114t13 -40q11 -20 11 -28q0 -1 -1 -2q-7 -4 -106 -8l-100 -3l-29 36q-28 35 -28 44v1q3 15 77 16q40 0 49 7q5 3 5 71q0 94 -12 438q-6 156 -13 174
q-7 15 -27 15h-9q-24 0 -36 6q-10 5 -30 39.5t-20 45.5v2z" />
    <glyph glyph-name="asciicircum" unicode="^" horiz-adv-x="521" 
d="M223 791q12 18 24 18q9 0 27 -7q38 -12 48 -14l23 -5l62 -123q61 -123 78 -152q15 -25 15 -32q0 -12 -29 -12h-21q-45 2 -56 15q-6 8 -55 99q-46 86 -50 89h-2q-10 0 -92 -132q-59 -93 -63 -94h-1q-8 0 -41 20.5t-41 30.5q-3 4 -3 8q0 9 14 34q17 29 83 132.5t80 124.5z
" />
    <glyph glyph-name="underscore" unicode="_" horiz-adv-x="495" 
d="M48 25q2 1 79 1h95q138 -1 164.5 -7.5t45.5 -40.5q2 -3 3 -5q19 -33 19 -40q0 -10 -25 -10q-8 0 -44 2q-95 5 -178 5l-111 1l-28 35q-27 34 -27 47q0 9 7 12z" />
    <glyph glyph-name="grave" unicode="`" horiz-adv-x="313" 
d="M-6 752q0 7 7 9t35 2q40 0 52 -6q14 -7 42 -51q14 -22 60 -88q8 -11 32.5 -43.5t34.5 -46.5q37 -53 37 -57q0 -8 -50 -8h-50l-49 66q-151 204 -151 223z" />
    <glyph glyph-name="a" unicode="a" horiz-adv-x="538" 
d="M383 227q-5 17 -16 17q-8 0 -26 -8q-14 -6 -87 -32q-67 -23 -93 -40.5t-26 -40.5q0 -5 2 -15q7 -27 95 -27q91 0 145 27l17 9l-4 48q-4 48 -7 62zM188 569q35 11 86 11q43 0 57 -7q23 -10 65.5 -46.5t50.5 -53.5q13 -26 21 -64q7 -34 22.5 -176.5t15.5 -173.5v-1v-21
l-48 -18q-71 -25 -100 -30t-93 -5h-17q-53 0 -74 7t-79 44q-69 44 -69 109q0 35 24 68t69 55q32 16 103 39q77 25 102.5 48.5t25.5 66.5q0 33 -11 50q-10 15 -26 15q-11 0 -20 -1q-69 -5 -139 -52q-34 -23 -42 -23q-10 0 -43 28.5t-33 36.5q0 15 50 46t102 48z" />
    <glyph glyph-name="b" unicode="b" horiz-adv-x="594" 
d="M384 506q-21 21 -34 21q-34 0 -88 -53t-78 -121q-10 -27 -10 -43q0 -3 6 -43q10 -60 54.5 -112.5t80.5 -59.5q8 -2 14 -2q33 0 63 29.5t44 75.5q17 54 17 107q0 60 -18 114t-51 87zM44 697q-2 48 -2 53q0 25 5 25q12 0 51 -13t43 -19q8 -10 13 -104q5 -96 9 -105
q0 -2 2 -2q6 0 37 29q60 60 113 60q48 0 117 -49q49 -34 76 -75t44 -105q9 -39 9 -102q0 -67 -10 -104q-49 -185 -190 -185q-27 0 -41.5 4t-43.5 18q-37 18 -67 43q-24 20 -31 20q-11 0 -11 -31q0 -4 2 -14q1 -4 1 -10q0 -18 -16 -18q-7 0 -20 5q-22 10 -35 10q-14 0 -27 9
q-9 7 -11 24t-2 98q0 264 -15 538z" />
    <glyph glyph-name="c" unicode="c" horiz-adv-x="492" 
d="M198 623q16 4 42 4h2q47 0 107.5 -48t90.5 -110q27 -59 27 -72t-14 -13q-8 0 -40 9l-46 15l-23 44q-21 41 -38 57.5t-37 16.5h-7q-50 -7 -86 -60t-41 -129q-1 -7 -1 -23q0 -64 32 -127q42 -83 91 -83q41 0 89 33l23 16l32 -20q28 -18 38.5 -26.5t10.5 -16.5q0 -2 -5 -12
q-14 -27 -63.5 -50t-92.5 -23h-9q-33 3 -76 28q-131 77 -168 221q-8 31 -8 85q0 55 8 86q20 74 63.5 127.5t98.5 70.5z" />
    <glyph glyph-name="d" unicode="d" horiz-adv-x="574" 
d="M383 372q0 22 -21 54.5t-37 48.5q-12 12 -32 12q-32 0 -70.5 -30t-59.5 -74q-30 -65 -30 -136q0 -78 31 -126q15 -23 41 -23q41 0 98 67.5t62 117.5q5 54 14 72q4 8 4 17zM376 734q0 22 10 22q6 0 46.5 -11t44.5 -17q3 -5 26.5 -257.5t30.5 -362.5q5 -68 5 -93
q0 -46 -16 -46q-13 0 -48 21t-40 32q-8 16 -8 60q0 62 -9 62q-7 0 -26 -31q-31 -56 -71 -87t-80 -31q-20 0 -39 8q-92 40 -134 103t-42 160v1q0 133 71 226.5t173 94.5h3q29 0 67 -24q41 -24 43 -24q3 0 3 21q0 12 -5 82t-5 91z" />
    <glyph glyph-name="e" unicode="e" horiz-adv-x="555" 
d="M332 546q-4 8 -10 14t-10 7h-3q-26 0 -76 -50q-30 -30 -60 -87t-30 -81q0 -10 7 -10q4 0 81 29q18 7 39 15t37.5 14.5t20.5 8.5q17 6 20.5 10.5t4.5 21.5v9q0 53 -21 99zM225 653q32 16 48 16h1q14 0 68 -25q51 -25 69 -50q37 -50 50 -142q6 -47 22 -72q18 -28 18 -33
q0 -7 -45 -16q-56 -12 -166.5 -55t-134.5 -62q-7 -6 -7 -18q0 -24 20.5 -57t45.5 -45q15 -8 46 -8q42 0 79 17q27 13 61 43.5t39 46.5q4 11 17 11q11 0 46.5 -18.5t38.5 -26.5q1 -2 1 -6q0 -26 -53 -79q-86 -87 -196 -87h-4q-44 0 -79 17q-87 44 -130.5 106.5t-52.5 156.5
q-1 9 -1 30q0 105 58 210t141 146z" />
    <glyph glyph-name="f" unicode="f" horiz-adv-x="446" 
d="M193 786q33 13 57 13q44 0 108 -48q28 -21 40 -38.5t21 -52.5q6 -26 6 -42q0 -15 -2 -23q-6 -30 -21 -30q-9 0 -47 18l-38 18l-3 39q-4 40 -11 49t-22 9q-25 0 -56.5 -24t-49.5 -58q-25 -50 -25 -113v-34h22q16 0 84 6q48 4 60 4q10 0 14 -2q9 -2 32 -36t23 -46
q0 -15 -49 -15q-29 0 -95.5 -8t-72.5 -12q-6 -3 -6 -18q0 -21 16 -130q23 -149 23 -167q0 -10 -4 -14h-2q-12 0 -52.5 14t-45.5 21q-5 5 -14 73q-3 20 -12.5 81.5t-13.5 86.5q-16 105 -16 186q0 161 87 247q33 33 65 46z" />
    <glyph glyph-name="g" unicode="g" horiz-adv-x="539" 
d="M364 469q-22 15 -34 15q-14 0 -29 -15t-22 -15q-6 0 -12 3t-11 3q-9 0 -29 -19q-52 -48 -57 -120q-1 -8 -1 -21q0 -23 6 -29q8 -10 46 -29.5t48 -19.5q14 0 37.5 13.5t43.5 34.5q50 51 50 118q0 56 -36 81zM334 688q51 57 61 57q13 0 46.5 -25t33.5 -35t-47 -62t-47 -62
q0 -9 34 -32q32 -22 46 -37t27 -43q20 -42 20 -85q0 -97 -74 -173q-54 -56 -135 -72q-27 -5 -38 -5t-23 3q-16 4 -19 4q-6 0 -10 -4q-41 -41 -41 -48q0 -3 5 -3q3 0 50 12t79 12q16 0 31 -3q82 -16 145 -75q27 -23 27 -44q0 -68 -125 -110q-37 -12 -95 -23t-84 -11
q-9 0 -11 1q-8 3 -33 42q-21 35 -21 38t6 8q11 9 36 9q43 0 120 21t77 33q0 24 -51 24q-80 0 -230 -43l-2 -1h-2q-3 0 -8.5 7.5t-14 19.5t-16.5 19q-37 34 -37 45q0 5 11 16q18 17 48.5 63t30.5 55q0 14 -14 33q-31 50 -31 114q0 13 1 19q7 57 29 99.5t71 91.5q41 41 49 51
q7 9 25 9h2q13 0 26 11.5t72 78.5z" />
    <glyph glyph-name="h" unicode="h" horiz-adv-x="516" 
d="M58 748q4 9 19 9t42 -9q23 -8 30.5 -12t12 -16.5t4.5 -39.5q0 -10 -2 -64q-1 -22 -1 -56q0 -50 4 -52h1q8 0 36 23q31 26 72.5 46.5t62.5 20.5t65 -32q44 -30 52 -48q16 -35 16 -160q0 -60 -3 -139q-6 -164 -14 -172q-4 -4 -11 -4q-11 0 -38 7q-44 11 -48 15q-3 3 -3 28
q0 43 4 176q3 75 3 135q0 41 -2 55q-2 18 -5 22.5t-12 4.5q-26 0 -72.5 -49t-76.5 -109l-28 -56v-138v-139l-24 1q-28 2 -54 15t-30 27q-4 13 -4 378q0 324 4 332z" />
    <glyph glyph-name="i" unicode="i" horiz-adv-x="221" 
d="M58 787q3 5 8 5q2 0 38 -12q5 -2 12.5 -4.5l10.5 -3.5t8.5 -3t7.5 -3.5t5.5 -3t4.5 -3t3 -4t2.5 -4.5t1 -5t0.5 -7t-2 -30q-7 -75 -22 -75q-12 0 -50 16.5t-40 22.5v3q-1 4 -1 6q0 21 4.5 60.5t8.5 44.5zM46 570q2 3 12 3q22 0 56 -10q1 0 4 -1q22 -6 27 -18
q8 -16 13 -133q1 -13 1 -20q11 -232 23 -338q2 -18 2 -21q0 -10 -11 -10h-1q-15 0 -49 8t-39 13t-11 44q-7 55 -17.5 225.5t-10.5 235.5q0 21 1 22z" />
    <glyph glyph-name="j" unicode="j" horiz-adv-x="230" 
d="M41 777q4 4 12 4q10 0 43 -12t39 -18q8 -8 8 -66q0 -36 -5 -41q-1 -1 -6 -1q-17 0 -51.5 10t-38.5 17q-5 8 -5 63q0 40 4 44zM45 599q5 3 12 3q1 0 3 -0.5t3 -0.5q74 -14 80 -22q4 -5 21.5 -180.5t25.5 -299.5q3 -37 3 -66q0 -77 -18 -114q-36 -69 -110 -78
q-18 -2 -24 -2q-18 0 -27.5 8.5t-19.5 33.5q-16 36 -16 44q0 6 30 10q44 5 58 24t17 76v8q0 53 -14 230t-26 276q-3 24 -3 35q0 12 5 15z" />
    <glyph glyph-name="k" unicode="k" horiz-adv-x="461" 
d="M51 792q5 5 10 5h2q20 -7 47 -14q39 -10 42 -22q2 -9 5.5 -126t3.5 -165q0 -25 8 -25t64 69q59 72 89 104l32 35l17 -11q23 -14 44.5 -33t21.5 -24q0 -9 -53 -69q-135 -155 -135 -175q0 -6 57.5 -99.5t112.5 -175.5q32 -50 32 -57q-8 -8 -59 -8q-32 0 -37 4
q-18 15 -97 140q-44 69 -56.5 87t-18.5 18q-1 0 -7 -4q-8 -7 -8 -40q0 -35 1 -64q1 -22 1 -65q0 -42 -2 -64q-4 -37 -20 -37q-8 0 -46 18l-39 19l-4 162q-11 415 -11 552q0 62 3 65z" />
    <glyph glyph-name="l" unicode="l" horiz-adv-x="218" 
d="M61 775q3 4 12 4q19 0 60 -16l31 -12l-3 -369q-1 -125 -2 -198t-2.5 -111.5t-3.5 -49.5t-5 -12l-2 -1h-3q-18 0 -49.5 12t-36.5 20q-4 7 -4 221q0 501 8 512z" />
    <glyph glyph-name="m" unicode="m" horiz-adv-x="726" 
d="M243 621q34 17 60 17q37 0 84 -36l24 -18l34 15q37 16 70 16q28 0 50 -11q26 -13 53 -37t36 -43q28 -58 28 -172q0 -59 -8 -157q-9 -97 -9 -135q0 -37 -8 -43q-1 -1 -9 -1q-18 0 -50 10.5t-38 18.5q-5 8 -5 26q0 24 10 147q7 73 7 141q0 129 -25 152q-7 7 -12 7
q-7 0 -20 -7q-22 -11 -41 -30l-20 -19l-4 -100q-4 -111 -13 -209t-14 -103q-1 -1 -7 -1q-18 0 -53 13t-38 21l-1 1v4v5q0 32 7 135q7 91 7 186q0 92 -7 107q-5 9 -14 9q-21 0 -57.5 -40t-63.5 -96l-27 -54l-4 -149q-4 -151 -6 -158q-4 -10 -15 -10q-13 0 -51 15.5t-40 21.5
l-1 3v8.5v10.5q0 55 3 148q2 76 2 125q0 194 -8 240q-1 3 -1 8q0 18 9 18q3 0 51 -10q27 -6 35.5 -10.5t12.5 -15.5q8 -18 11 -18q4 0 23 19q17 17 53 35z" />
    <glyph glyph-name="n" unicode="n" horiz-adv-x="610" 
d="M345 585q20 4 32 4q35 0 77 -22q69 -37 90.5 -79t21.5 -148q0 -44 -1 -71q-3 -106 -8 -180q-3 -38 -5.5 -46.5t-12.5 -11.5q-3 -1 -16 -1q-18 0 -36 3l-35 5l-2 33q0 1 -0.5 6t-0.5 9q0 51 5 153q4 88 4 112q0 75 -11 107t-37 32q-16 0 -53 -17q-35 -18 -77.5 -53.5
t-71.5 -71.5q-31 -38 -34 -45v-2q-1 -2 -1 -4q0 -28 12 -133q13 -117 13 -139v-5l-1 -2q-3 -12 -16 -12q-10 0 -49 11q-30 9 -34 15q-9 11 -16 86q-2 19 -3 29q-41 384 -41 423q0 10 1 11q2 2 11 2q17 0 44.5 -6t37.5 -13q12 -8 16 -45q4 -36 10 -42q1 -1 2 -1q10 0 43 28
q32 27 73.5 50.5t68.5 30.5z" />
    <glyph glyph-name="o" unicode="o" horiz-adv-x="525" 
d="M333 489q-19 11 -45 11q-40 0 -68 -20q-15 -11 -37.5 -56t-34.5 -89q-14 -51 -14 -98q0 -60 18.5 -102.5t49.5 -49.5q10 -2 17 -2q32 0 66.5 22.5t55.5 56.5q24 40 32 74.5t9 94.5v21q0 36 -3 50.5t-15 41.5q-17 38 -31 45zM219 597q18 5 35 5q55 0 117 -44
q67 -46 94 -102.5t27 -146.5q0 -131 -63.5 -223t-160.5 -102q-8 -1 -20 -1q-21 0 -59 19q-64 32 -95 64t-53 87q-14 37 -14 101t14 118q13 48 39.5 103.5t53.5 88.5q15 20 22.5 26t16.5 6q6 0 10 -1t14 -1q15 0 22 3z" />
    <glyph glyph-name="p" unicode="p" horiz-adv-x="585" 
d="M404 504q-13 21 -29 21h-1q-37 -1 -91.5 -40t-83.5 -96q-17 -36 -17 -42q0 -8 8 -16q10 -10 15 -49q7 -42 49 -111t70 -70q1 0 3 -0.5t3 -0.5q15 0 37 23q46 50 65 131q8 34 8 92v2q0 101 -36 156zM289 611q30 10 53 10q63 0 134 -67q26 -24 35 -37.5t19 -43.5
q20 -57 20 -147q0 -60 -11 -109q-17 -72 -52.5 -126.5t-79.5 -76.5q-30 -14 -51 -14q-18 0 -43 11q-32 14 -69.5 41.5t-48.5 44.5q-13 21 -19 21q-5 0 -7 -126q-2 -89 -5 -114.5t-16 -25.5q-7 0 -35 14q-40 20 -46 28q-8 9 -12 361q-2 126 -2 260q0 94 7 97h2q3 1 4 1
q14 0 46.5 -8.5t39.5 -14.5q7 -5 11 -35q4 -29 8 -29q3 0 20 19q44 47 98 66z" />
    <glyph glyph-name="q" unicode="q" horiz-adv-x="568" 
d="M286 531q-34 0 -70 -42t-59 -106.5t-23 -126.5v-5q0 -31 3 -45.5t15 -37.5q18 -37 30 -38h11q26 0 53 24q33 29 92.5 108.5t59.5 103.5q0 22 -44 93.5t-68 71.5zM391 19q0 105 -8 105q-7 0 -40 -33q-65 -66 -119 -66q-22 0 -41 10q-36 18 -67 41.5t-44 42.5
q-25 34 -34.5 68.5t-9.5 90.5v5q0 60 9.5 99t37.5 96q27 55 67 98t74 53q29 9 37 9q10 0 58 -26t67 -42q16 -15 23 -15q9 0 11 30q1 13 3.5 17t11.5 5h2q21 0 51 -11l38 -13l2 -36v-8q0 -57 -8 -164q-9 -138 -11 -320l-2 -183l-40 2q-51 2 -59.5 20t-8.5 125z" />
    <glyph glyph-name="r" unicode="r" horiz-adv-x="433" 
d="M316 633q26 11 46 11h3q12 0 16.5 -5t14.5 -26q17 -39 17 -45q0 -8 -7 -13.5t-26 -12.5q-41 -18 -58 -31q-25 -18 -66.5 -62t-61.5 -74q-1 -2 -5 -8l-5 -7.5t-4 -7t-3.5 -8t-2 -8t-1.5 -11.5t-0.5 -14t-0.5 -18q0 -54 4 -162q3 -79 3 -107q0 -36 -7 -39l-1 -1h-2
q-14 0 -52 14t-40 21q-3 9 -12 205q-13 290 -24 357l-4 22h21q24 0 55 -10.5t33 -18.5q0 -2 3 -11.5t4 -14.5q4 -17 10 -17q3 0 42 31q63 53 111 71z" />
    <glyph glyph-name="s" unicode="s" horiz-adv-x="444" 
d="M214 695q15 5 24 5q16 0 61 -26q49 -28 66 -57t21 -89v-18q0 -39 -8.5 -78.5t-19.5 -53.5l-10 -13l-39 21q-29 15 -39 24t-10 18q0 3 6 21q14 40 14 93q0 14 -4 28q-7 20 -17 20q-14 0 -34 -23q-29 -32 -47 -79.5t-18 -87.5q0 -16 3 -28q7 -25 24.5 -42t64.5 -43
q122 -68 146 -116q13 -25 13 -48q0 -2 -0.5 -8.5t-0.5 -9.5q-4 -72 -77 -112q-27 -14 -40 -17.5t-41 -3.5h-6q-45 0 -72.5 11.5t-80.5 50.5q-73 54 -73 97q0 13 15 13q11 0 40 -6q44 -9 56 -25q38 -48 76 -48q14 0 32 5q29 7 45 24t16 38q0 15 -9 30q-8 12 -26 25t-91 60
q-65 43 -85 66q-38 44 -38 111q0 64 35 137q50 106 128 134z" />
    <glyph glyph-name="t" unicode="t" horiz-adv-x="358" 
d="M72 762q2 6 10 6q14 0 58 -16l33 -13l6 -61l5 -61l55 -1l55 -2l23 -36q23 -38 23 -44q0 -8 -14.5 -11.5t-54.5 -5.5q-71 -4 -78 -8q-9 -5 -9 -99q0 -8 0.5 -28t0.5 -34q1 -205 25 -268q5 -14 15 -14h7q13 1 27 7h1q10 0 42.5 -23.5t39.5 -36.5q2 -4 2 -7q0 -16 -42 -35
q-27 -13 -51 -13t-62 24q-40 27 -51.5 37.5t-20.5 30.5q-42 83 -42 325q0 114 -6 130q-6 15 -30 47q-24 31 -24 40t26 14l25 5l2 72q2 75 4 79z" />
    <glyph glyph-name="u" unicode="u" horiz-adv-x="521" 
d="M53 616q4 11 13 11q14 0 52 -13.5t39 -18.5v-1q0 -2 0.5 -5t0.5 -6v-8v-9q0 -11 -0.5 -53t-0.5 -70v-44q0 -150 20 -210q8 -27 18 -37.5t28 -13.5q10 -2 16 -2q33 0 64.5 22.5t46.5 58.5q11 27 11 66q0 3 -4 129q-6 166 -9 183q-1 4 -1 11q0 16 18 16q9 0 39 -7
q43 -11 47 -15q11 -11 19 -292q3 -120 3 -179q0 -52 -2 -54t-9 -2q-12 0 -27 4q-13 4 -23 4t-53 -21q-30 -15 -44 -18.5t-42 -3.5h-4q-44 0 -78 16.5t-70 55.5q-22 24 -31 39t-18 45q-27 86 -27 218q0 46 1 72q4 122 7 132z" />
    <glyph glyph-name="v" unicode="v" horiz-adv-x="529" 
d="M398 607q6 13 16 13t48 -18q23 -11 30.5 -18t7.5 -16q0 -13 -66 -237q-64 -217 -74 -261q-4 -18 -6 -26t-5.5 -16.5t-7 -11t-9.5 -2.5t-43 15q-39 15 -55 23q-14 7 -116 257.5t-102 277.5v1q3 8 17 8q12 0 63 -9q1 0 4 -1q13 -1 21 -15q10 -18 61 -148q9 -23 14 -36
q68 -175 79 -175q3 0 4 1t59 193q12 41 27.5 93t23.5 78.5t9 29.5z" />
    <glyph glyph-name="w" unicode="w" horiz-adv-x="729" 
d="M592 653q6 7 10 7q7 0 46 -16q44 -18 44 -28q0 -12 -25 -212.5t-37 -288.5q-12 -87 -20.5 -115.5t-26.5 -39.5q-7 -6 -15 -6t-42 23q-29 20 -37.5 31.5t-26.5 51.5q-37 86 -54 131q-34 87 -42 87q-1 0 -4 -3t-46 -120q-42 -113 -51 -134t-19 -27q-5 -4 -15 -4
q-22 0 -46 18t-31 41q-4 13 -49 201q-58 242 -64 262q-21 76 -21 84v2q2 3 26 3q45 0 69 -8q16 -7 70 -226q26 -108 32 -114q2 -2 4 -2q8 0 49 116q53 152 67.5 188t22.5 36q15 0 52.5 -18.5t37.5 -26.5t-17 -59l-15 -48l45 -114q51 -129 58 -129q2 0 4 4q6 9 39 282
q19 160 28 171z" />
    <glyph glyph-name="x" unicode="x" horiz-adv-x="460" 
d="M337 625q6 8 8 8q6 0 43.5 -20t42.5 -25q2 -4 2 -8q0 -30 -89 -208q-55 -106 -55 -121q0 -21 103 -202q24 -44 24 -51l-1 -1q-1 -2 -16 -2q-46 0 -78 13q-20 9 -41 48q-46 81 -55 81q-3 0 -6 -3q-6 -5 -49 -89q-41 -81 -47 -81q-1 0 -47 21q-26 12 -34 18.5t-8 14.5
q0 26 86 182q39 69 39 80q0 6 -34 82q-28 60 -61 142t-38 101q-1 3 -1 8q0 13 16 13q11 0 34 -5q41 -9 52 -20.5t34 -70.5q30 -74 43 -100t20 -26q15 0 77 143q27 66 36 78z" />
    <glyph glyph-name="y" unicode="y" horiz-adv-x="559" 
d="M427 621q3 5 8 5q3 0 40 -13q5 -2 14.5 -5t13 -4.5t9 -4.5t7 -6.5t3 -9t1.5 -13.5q0 -33 -42 -217q-50 -225 -74 -367q-24 -143 -27 -147q-4 -6 -10 -6t-42.5 18.5t-43.5 25.5q-3 3 -3 14q0 21 13 102q15 92 15 110v1q-5 5 -21 13q-12 6 -36 42t-89 148
q-159 272 -159 289q0 9 19 9q10 0 28 -3q42 -7 52.5 -13.5t28.5 -37.5q37 -67 107.5 -188.5t78.5 -129.5q6 -8 14 -8l1 1q4 4 48 196q45 198 46 199z" />
    <glyph glyph-name="z" unicode="z" horiz-adv-x="545" 
d="M34 607q0 7 24 7q32 0 201.5 -21.5t175.5 -26.5t24.5 -40t18.5 -42q0 -5 -13 -11q-12 -4 -54 -78q-58 -101 -103 -175q-60 -99 -60 -110q0 -8 92 -8h36h128l23 -40q20 -35 20 -44l-1 -2q-3 -5 -64 -5q-59 0 -153 -9t-156 -20q-70 -12 -82 -12q-18 0 -27 6.5t-23 26.5
q-24 33 -24 44t19 14q3 1 8 2q27 5 41 19q17 18 94 146q11 17 16 26q127 211 127 228q0 2 -1 3q-3 3 -110.5 18.5t-127.5 16.5q-2 0 -25.5 41.5t-23.5 45.5z" />
    <glyph glyph-name="braceleft" unicode="{" horiz-adv-x="372" 
d="M162 797q22 7 51 7q21 0 26 -4q6 -4 19.5 -39.5t13.5 -46.5v-3q-3 -5 -27 -5q-34 0 -66 -21.5t-32 -43.5q0 -11 51 -64q51 -52 62 -77q14 -30 14 -59q0 -51 -44 -90l-26 -23l11 -36q10 -34 10 -96q0 -38 -5 -116q-3 -40 -3 -54q0 -18 11 -24q6 -3 14 -3q11 0 26 5
q27 9 37 9q12 0 42.5 -29.5t30.5 -40.5v-1q-4 -10 -32.5 -22.5t-61.5 -17.5q-20 -3 -30 -3q-13 0 -46 15q-37 19 -55 35t-29 40q-13 27 -13 83q0 44 4 105q2 40 2 52q0 62 -19 64q-1 0 -5 0.5t-10 1.5t-11 1q-22 2 -29 12q-10 14 -22 39.5t-12 33.5v2q2 7 41 10
q33 3 65.5 16t41.5 26q8 13 8 25q0 31 -62 96q-37 39 -48 59q-13 24 -13 49q0 49 46 90q32 30 74 43z" />
    <glyph glyph-name="bar" unicode="|" horiz-adv-x="228" 
d="M45 740q5 18 16 18q10 0 43.5 -12t41.5 -19q8 -6 8 -70q0 -185 23 -632q6 -107 6 -139q0 -24 -2.5 -30t-10.5 -6q-7 0 -51 14l-39 13l-4 30q-6 40 -29 650q-3 90 -3 151q0 29 1 32z" />
    <glyph glyph-name="braceright" unicode="}" horiz-adv-x="295" 
d="M62 818q14 3 28 3q37 0 94 -34q73 -43 73 -111q0 -53 -38 -128q-37 -74 -37 -95q0 -15 15 -15q22 0 55 -54q15 -26 15 -36q0 -12 -27 -17q-21 -4 -38 -19q-11 -9 -14.5 -17t-3.5 -28q0 -47 45 -140q22 -48 22 -78v-4q-1 -58 -40 -97t-99 -43q-3 0 -9.5 -0.5t-8.5 -0.5
q-26 0 -37 10t-19 39q-7 22 -7 36q0 12 11 12q6 0 10 -1t11 -1q42 0 65 25q13 13 13 36q0 27 -25 85q-39 84 -39 143q0 40 17 74l15 28l-16 22q-16 22 -16 60q0 25 5.5 42.5t25.5 60.5q40 86 40 116q0 11 -3 18q-4 10 -10 12t-27 2q-23 0 -31.5 4.5t-32.5 28.5
q-34 34 -34 41q0 12 52 21z" />
    <glyph glyph-name="asciitilde" unicode="~" horiz-adv-x="605" 
d="M168 372q19 7 50 7h14q28 -2 46.5 -8t61.5 -28q68 -33 77 -33q8 0 32 12t29 12q8 0 40 -24t37 -34q1 -1 1 -4q0 -12 -22 -29t-48 -25q-16 -6 -34 -6q-39 0 -106 40q-58 34 -86 34q-17 0 -34 -7q-18 -7 -32 -20t-51 -56q-5 -7 -10 -7q-3 0 -41 18q-43 22 -45 34v3
q0 23 41.5 65t79.5 56z" />
    </font>
</defs>
</svg>
