<?xml version="1.0" standalone="no"?> <!DOCTYPE svg PUBLIC "-//W3C//DTD SVG 1.0//EN" "http://www.w3.org/TR/2001/REC-SVG-20010904/DTD/svg10.dtd" > <svg xmlns="http://www.w3.org/2000/svg" width="100%" height="100%">
<defs >
<font horiz-adv-x="494" ><font-face
    font-family="SMITUK"
    units-per-em="750"
    panose-1="0 0 0 0 0 0 0 0 0 0"
    ascent="526"
    descent="-1"
    alphabetic="0" />
<missing-glyph horiz-adv-x="250" />
<glyph unicode=" " glyph-name="space" horiz-adv-x="370" />
<glyph unicode="!" glyph-name="exclam" horiz-adv-x="208" d="M46 745L51 750H147Q153 750 160 749T173 745Q178 732 178 720Q178 697 173 674T168 628Q168 620 170 613T173 598Q173 588 168 575T163 552Q163 514 163 487T163 437T162 396T161 355T159 306T157
240L152 235L157 230Q159 220 161 210T163 189Q163 181 161 174T157 159H51L41 164L36 174Q36 179 34 184T31 194Q31 205 33 214T36 235V409Q36 428 38 447T41 485Q41 521 41 544T42 584T43 615T44 645T45 685T46 745ZM63 193Q67 193 67 198L63 203Q57 203 59 198L63
193ZM52 188L57 178L63 173H78L57 193L52 188ZM173 7L167 1Q149 1 132 8T98 16Q84 16 75 7Q70 2 62 2T43 1L36 7Q36 12 33 17T30 27V108L43 134H160L173 121V7ZM56 88Q56 86 59 83Q60 82 62 82Q64 82 66 83Q69 86 69 88H56Z" />
<glyph unicode="&quot;" glyph-name="quotedbl" horiz-adv-x="408" />
<glyph unicode="&apos;" glyph-name="quotesingle" horiz-adv-x="225" />
<glyph unicode="(" glyph-name="parenleft" horiz-adv-x="300" />
<glyph unicode=")" glyph-name="parenright" horiz-adv-x="300" />
<glyph unicode="*" glyph-name="asterisk" horiz-adv-x="551" />
<glyph unicode="+" glyph-name="plus" horiz-adv-x="572" />
<glyph unicode="," glyph-name="comma" horiz-adv-x="268" />
<glyph unicode="-" glyph-name="hyphen" horiz-adv-x="322" />
<glyph unicode="." glyph-name="period" horiz-adv-x="204" d="M173 7L167 1Q149 1 132 8T98 16Q84 16 75 7Q70 2 62 2T43 1L36 7Q36 12 33 17T30 27V108L43 134H160L173 121V7ZM56 88Q56 86 59 83Q60 82 62 82Q64 82 66 83Q69 86 69 88H56Z" />
<glyph unicode="/" glyph-name="slash" horiz-adv-x="372" />
<glyph unicode="0" glyph-name="zero" horiz-adv-x="447" d="M30 179V420Q30 444 32 477T42 547T60 618T90 682T132 728T190 746H257Q317 746 349 714T397 635T414 535T417 439Q417 393 413 349T403 260T392 173T384 85Q379 69 362 55T322 29T277 11T238 4Q213
4 191 14T143 28Q133 46 121 56T96 80T66 116T30 179ZM143 222Q143 208 146 191T153 160Q164 153 171 139T190 118Q201 114 214 111T238 108H242L257 118Q265 130 271 159T282 228T290 313T295 400T298 478T299 534Q299 541 298 555T295 584T289 612T280 633Q273
637 261 647T238 657H219Q197 649 183 628T162 586Q164 556 161 523T154 455T147 387T143 321V222Z" />
<glyph unicode="1" glyph-name="one" horiz-adv-x="632" />
<glyph unicode="2" glyph-name="two" horiz-adv-x="632" />
<glyph unicode="3" glyph-name="three" horiz-adv-x="632" />
<glyph unicode="4" glyph-name="four" horiz-adv-x="632" />
<glyph unicode="5" glyph-name="five" horiz-adv-x="632" />
<glyph unicode="6" glyph-name="six" horiz-adv-x="632" />
<glyph unicode="7" glyph-name="seven" horiz-adv-x="632" />
<glyph unicode="8" glyph-name="eight" horiz-adv-x="632" />
<glyph unicode="9" glyph-name="nine" horiz-adv-x="632" />
<glyph unicode=":" glyph-name="colon" horiz-adv-x="216" d="M43 523L49 529Q74 529 95 529T141 523Q146 528 154 528T173 529L180 523Q180 518 183 513T186 503V392L173 366H56L43 379V523ZM160 412Q160 417 157 417Q156 418 154 418Q152 418 151 417Q147 417
147 412H160ZM30 78Q30 88 33 94T36 111L49 117H121Q126 117 131 114T141 111Q141 101 145 95T154 78Q154 88 154 97T160 117H167Q172 117 175 113T181 104T185 93T186 85V72L173 19Q168 15 159 15Q149 15 139 18T121 21Q111 21 108 13Q103 13 95 10T82 6H36Q36
11 33 19T30 33V78Z" />
<glyph unicode=";" glyph-name="semicolon" horiz-adv-x="268" />
<glyph unicode="=" glyph-name="equal" horiz-adv-x="572" />
<glyph unicode="?" glyph-name="question" horiz-adv-x="434" />
<glyph unicode="A" glyph-name="A" horiz-adv-x="476" d="M30 34Q30 55 37 69T45 97L49 107Q49 113 52 127T59 157T67 187T73 208Q79 228 87 256T102 314T116 372T127 421Q132 444 136 470T151 518Q151 526 155 538T163 562T171 586T175 605Q175 619 179 627T184
643Q184 650 186 661T191 686T196 713T199 735L204 745L208 750H252Q258 750 268 750T289 748T310 745T325 740Q328 739 330 736T334 730Q334 722 337 714T340 696Q340 674 341 643T347 578T357 515T373 464Q373 427 381 394T397 325Q399 314 402 303T407 281Q408
276 408 269T407 257Q407 253 409 239T415 210T422 180T427 160Q436 122 441 81T446 1H354Q352 1 344 4T334 10L329 19L320 102L315 112Q304 112 293 114T271 117H184Q183 117 178 115T170 112Q166 108 160 101T151 88V49Q142 32 130 21T97 10Q80 10 63 14T30 19V34ZM195
262Q209 248 225 238T262 227H286L296 232V295Q296 306 292 320T286 344Q279 376 275 413T271 483L262 494Q255 486 251 469T247 440L243 435L238 421L233 416Q224 392 222 364T214 310Q212 299 204 288T195 262ZM152 412Q156 412 156 415Q156 416 156 417Q156
418 155 420Q155 422 151 422Q147 422 147 420Q146 418 146 417Q146 416 147 415Q149 412 152 412ZM142 407Q142 403 145 400T152 392L167 393L147 412L142 407Z" />
<glyph unicode="B" glyph-name="B" horiz-adv-x="710" />
<glyph unicode="C" glyph-name="C" horiz-adv-x="692" />
<glyph unicode="D" glyph-name="D" horiz-adv-x="534" d="M50 681Q50 693 50 706T52 731L63 740Q88 745 117 747Q124 747 135 746T159 744T182 742T202 739Q204 739 204 739T207 738L217 735Q219 735 219 735T222 734Q231 733 239 734T255 735Q268 734 280 730T304
725Q319 718 341 710T380 701Q385 696 390 689T403 675T417 661T430 652Q435 646 444 636T464 616T482 595T490 579Q490 571 490 562T491 545Q491 543 493 538T497 531Q502 514 502 489T503 447Q503 428 502 412T499 378Q498 372 497 366T495 353L496 298Q496 288
494 278T491 258L487 244Q487 237 485 224T481 196T475 168T468 149Q468 148 466 141T460 125T454 109T451 101Q449 94 437 81T420 64L406 60Q399 46 392 42T371 29Q363 29 345 22T309 13L298 8H283Q247 8 211 9T139 10Q132 10 127 8T115 5L41 4L30 8V28Q30 68
36 107T42 186Q40 260 47 335T53 488Q53 505 54 522T55 558Q55 566 55 573T54 589L51 650Q51 658 51 665T50 681ZM151 606Q151 604 152 585T153 541T151 496T142 467Q144 407 143 353T142 238Q143 212 142 193T140 149V139Q144 133 144 125T149 113Q153 109 162
106T181 101T202 98T218 96L267 97Q276 97 285 99T303 103L311 107Q315 108 323 115T339 132T353 150T360 162L365 174Q365 176 367 180T369 188Q370 211 376 231T383 276V281L377 296V301Q377 306 381 311T386 321L383 467Q383 475 381 482T379 497Q379 506 379
514T382 531L372 542Q372 545 370 550T364 562T357 573T351 580Q349 584 344 591T331 604T318 617T306 625Q301 625 297 627T287 630L281 634Q267 639 252 640T223 649H203L193 652H188Q180 647 175 643T160 636L155 611L151 606ZM132 115Q136 115 136 120L132
125Q126 125 128 120L132 115ZM121 110L126 100L132 95H147L126 115L121 110Z" />
<glyph unicode="E" glyph-name="E" horiz-adv-x="491" d="M41 719Q41 725 42 730T45 740L55 749H76Q151 749 225 745T375 740Q394 740 412 737T450 734L455 729Q457 721 459 714T461 699Q461 683 458 664T450 628L445 622H435Q403 622 372 625T309 628L298 633Q269
635 242 644T187 653V643Q183 638 175 627T167 608Q167 596 165 585T162 562V466Q162 461 160 456T157 445V440Q162 435 168 432T182 425Q193 425 200 425T218 420L227 410L232 420H440L445 415Q447 400 448 385T450 354Q450 341 448 332T435 314H384L375 319H232L227
324Q207 324 187 328T146 334Q148 318 145 304T141 274Q141 263 143 254T146 233L152 228V218L136 202V193L141 188V122Q143 119 148 116T157 111Q189 111 220 109T284 106Q292 106 301 104T318 102Q326 102 333 104T349 106H359L369 102H435Q443 96 446 86T450
66Q450 52 448 40T445 15L440 11L430 6Q418 5 408 3T384 0H369L359 6Q317 6 276 8T193 11H141Q118 11 96 9T50 6H45L35 11L30 20V31Q30 50 32 68T35 106Q35 178 40 250T45 395V618Q45 644 43 668T41 719ZM152 415Q156 415 156 420L152 425Q146 425 148 420L152
415ZM187 410Q192 410 192 415L187 420Q183 420 183 415L187 410ZM141 410L146 400L152 395H167L146 415L141 410Z" />
<glyph unicode="F" glyph-name="F" horiz-adv-x="579" />
<glyph unicode="G" glyph-name="G" horiz-adv-x="482" d="M30 383Q30 445 38 506T46 631Q47 634 49 641T55 656T61 671T66 680Q76 689 89 701T117 725T149 743T183 751H278Q287 745 299 744T319 736Q324 732 329 727T339 717Q345 711 359 704T388 687T414 668T426
646Q441 623 446 608T452 565Q452 553 450 543T447 522H406Q403 522 396 523T379 527T360 530T345 532L339 536Q334 542 333 549T330 565Q323 593 305 617T258 655Q255 655 249 657L242 660H225Q214 660 208 655T194 650L179 637L174 627Q174 620 168 612Q167 592
163 572T159 532Q159 504 156 477T153 421V211Q153 205 156 200T159 187Q166 180 169 169T179 149Q179 145 187 139T200 130Q203 129 210 127T225 124T241 122T252 121Q260 121 268 125T284 130Q288 130 297 136T308 144Q326 160 330 179T334 220H284L267 228V307L275
310Q307 310 334 310T393 307Q399 309 410 309T434 310L443 307Q443 304 447 302T451 296V240H452V159Q452 153 449 142T442 125Q442 120 437 116T432 106Q425 101 422 93T411 78Q399 67 389 54T365 30Q355 21 336 15T296 6T255 2T220 1Q205 1 190 8T163 16Q136
28 117 45T76 82Q61 95 52 113T38 153T32 195T30 235V383ZM411 222Q415 222 415 228L411 233Q407 233 407 228L411 222ZM407 218Q410 218 410 223L407 228Q403 228 403 223L407 218ZM358 126Q362 126 362 131L358 136Q354 136 354 131L358 126Z" />
<glyph unicode="H" glyph-name="H" horiz-adv-x="565" d="M45 745L50 750H134Q140 750 147 749T160 745Q165 732 165 720Q165 697 160 674T155 628Q155 620 157 613T160 598Q160 588 155 575T150 552V436L154 440L204 442L214 437L354 442L359 438Q374 439 388
438T416 435Q417 495 418 553T421 669L426 674L421 679Q419 689 417 699T415 720Q415 728 417 735T421 750H515L525 745L530 735Q530 730 532 725T535 715Q535 704 533 695T530 674V522Q530 503 528 484T525 446Q525 337 523 226T520 6L515 1H431Q425 1 418 2T405
6Q400 19 400 31Q400 54 405 77T410 123Q410 131 408 138T405 153Q405 163 410 176T415 199V341Q414 340 413 340Q405 339 395 339T373 343L362 353L358 343L153 335L149 339Q148 273 147 209T144 82L139 77L144 72Q146 62 148 52T150 31Q150 23 148 16T144 1H50L40
6L35 16Q35 21 33 26T30 36Q30 47 32 56T35 77V229Q35 248 37 267T40 305Q40 414 42 525T45 745ZM132 445Q136 445 136 450L132 455Q126 455 128 450L132 445ZM121 440L126 430L132 425H147L126 445L121 440ZM444 431Q444 432 444 432T443 431H444ZM407 355Q403
355 403 352Q402 350 402 349Q402 348 403 347Q405 345 408 345Q412 345 412 348Q412 349 412 350Q412 351 411 353Q411 355 407 355Z" />
<glyph unicode="I" glyph-name="I" horiz-adv-x="195" d="M45 745L50 750H134Q140 750 147 749T160 745Q165 732 165 720Q165 697 160 674T155 628Q155 620 157 613T160 598Q160 588 155 575T150 552Q150 437 149 317T144 82L139 77L144 72Q146 62 148 52T150
31Q150 23 148 16T144 1H50L40 6L35 16Q35 21 33 26T30 36Q30 47 32 56T35 77V229Q35 248 37 267T40 305Q40 414 42 525T45 745ZM62 35Q66 35 66 40L62 45Q56 45 58 40L62 35ZM51 30L56 20L62 15H77L56 35L51 30Z" />
<glyph unicode="J" glyph-name="J" horiz-adv-x="333" />
<glyph unicode="K" glyph-name="K" horiz-adv-x="475" d="M45 745L50 750H139Q145 750 152 749T165 745Q170 732 170 720Q170 697 165 674T160 628Q160 620 162 613T165 598Q165 588 160 575T155 552V447L201 453Q202 457 212 463T226 472Q237 498 248 515T271
559V579L286 600Q286 606 294 622T313 656T331 690T340 715Q340 722 348 732T361 747Q378 747 395 749T429 752H440L445 747V715L435 694Q434 686 430 679T424 663Q420 657 418 651T414 637Q412 630 406 621T398 606L387 579Q387 576 384 569T378 553T371 536T367
522Q358 510 348 491T328 452T309 416T294 393L349 308Q351 305 355 292T365 264T374 237T381 221Q382 213 385 205T390 189Q391 187 392 185T394 180Q396 176 396 174L399 163Q400 161 400 157Q402 151 405 143T409 129Q409 124 413 118T417 106Q417 101 422 93T427
79Q427 74 434 63T441 46Q441 38 443 31T445 15V9L441 5H431Q415 5 405 5T386 7T367 8T341 9Q337 11 331 15T323 23Q323 37 321 51T318 79Q318 86 316 92T313 106Q313 127 307 155T289 213T263 267T233 308L154 337Q153 272 152 209T149 82L144 77L149 72Q151 62
153 52T155 31Q155 23 153 16T149 1H50L40 6L35 16Q35 21 33 26T30 36Q30 47 32 56T35 77V229Q35 248 37 267T40 305Q40 414 42 525T45 745ZM303 444Q307 444 307 450L303 455Q299 455 299 450L303 444ZM299 440Q302 440 302 445L299 450Q295 450 295 445L299 440ZM250
348Q254 348 254 353L250 358Q246 358 246 353L250 348ZM133 124Q137 124 137 130L133 135Q129 135 129 130L133 124ZM129 120Q132 120 132 125L129 130Q125 130 125 125L129 120ZM80 28Q84 28 84 33L80 38Q76 38 76 33L80 28Z" />
<glyph unicode="L" glyph-name="L" horiz-adv-x="584" />
<glyph unicode="M" glyph-name="M" horiz-adv-x="697" d="M45 275Q45 292 45 309T46 343L48 388Q48 405 48 421T49 455Q49 471 54 488T60 522V667Q60 687 64 706T69 745L73 749H108Q127 749 135 748T156 745L160 739Q161 736 164 732T170 725Q176 713 179 707T184
696T188 683T194 662Q195 660 196 657T199 652Q200 641 207 626T223 595T239 564T247 537Q252 533 253 526T257 513Q259 507 268 498T277 483Q277 470 281 460T286 440Q286 435 291 426T303 408T314 390T320 377V353L329 348V344L325 334L329 329L339 324H353Q354
325 362 341T381 377T399 413T407 431L416 444Q416 449 420 454T426 464Q426 469 428 473T431 483Q435 491 438 498T446 512L474 571Q478 579 481 585T489 600Q489 606 498 623T518 662T539 702T552 730Q557 730 561 732T571 735H600Q614 735 623 733T643 730L648
725L663 720L667 715V687Q667 638 663 590T658 493L654 488Q654 462 651 434T643 382Q642 379 645 366T648 348Q648 340 646 331T643 314L639 305Q641 298 639 290T634 275L639 271Q639 264 639 258T640 244L642 226Q642 219 642 213T643 199V112L639 102V44Q639
36 637 30T634 15L624 10Q613 9 605 8T585 6Q571 6 559 7T533 10Q533 19 531 27T528 44Q528 94 535 143T542 242V324Q542 341 544 358T547 392Q547 399 545 406T542 420L537 426L522 420Q519 417 517 409T513 396L504 392H494L489 387Q489 364 485 344L426 286L416
281V247L402 227Q401 224 398 220T392 213L388 203Q387 198 381 191T373 179Q363 168 359 150T344 121Q336 113 330 101T315 78H301Q297 86 294 93T286 107Q286 113 283 124T275 148T268 173T262 194Q260 205 254 211T247 223L242 227V238L247 247V251L242 257Q242
261 237 279T226 318T213 357T204 382Q199 382 195 380T185 377Q180 374 180 368Q178 366 174 356T170 344Q170 308 167 273T159 201T150 130T146 58Q146 50 144 42T141 25L136 15Q132 15 127 11T117 6Q105 4 93 3T69 1Q62 1 55 2T40 6L30 15V175Q30 193 32 211T35
247Q35 253 37 258T40 271L45 275ZM513 444Q517 444 517 450L513 455Q509 455 509 450L513 444ZM509 440Q512 440 512 445L509 450Q505 450 505 445L509 440ZM460 348Q464 348 464 353L460 358Q456 358 456 353L460 348Z" />
<glyph unicode="N" glyph-name="N" horiz-adv-x="495" d="M40 722V741L51 750H66Q89 750 108 746T148 741Q153 739 157 736T165 731Q167 720 171 705T175 679Q175 664 184 644T195 607L201 603Q202 598 205 593T211 584V569L216 565L227 541L232 537Q233 527 237
517T248 499Q249 486 256 468T273 432T290 399T300 376Q307 362 310 348T320 319L335 305L341 314Q343 340 344 364T346 414Q346 456 350 496T355 579Q355 611 353 643T351 707V716L355 726L366 735H372Q392 735 416 733T460 726L465 716V697Q465 672 460 648T455
598Q455 563 452 530T449 461L444 452V7H413L403 2H362Q358 4 355 5T346 7Q344 9 340 15T331 27T324 40T320 49Q307 76 300 106T279 163Q278 168 273 175T268 187Q268 197 263 208T252 232T239 255T232 276Q221 299 215 326T195 376Q195 377 191 386T183 407T174
427T169 437Q162 438 157 441T144 446Q142 436 140 425T138 404V26L134 21Q129 19 120 18T101 15T82 13T66 12Q52 12 47 12T30 21V30Q30 129 35 226T40 423Q40 448 42 472T45 522V645Q45 665 43 683T40 722Z" />
<glyph unicode="O" glyph-name="O" horiz-adv-x="521" d="M485 300Q484 259 479 211T456 124Q453 121 449 115T441 101T432 86T426 75Q425 72 417 63T397 45T375 29T361 21L350 17Q336 16 321 10T292 4L201 7Q195 7 178 13T143 28T110 46T95 61Q81 81 69 104T46
148Q46 162 38 176T31 204Q33 250 32 295T32 386Q34 429 39 479T56 572Q59 584 65 595T75 617Q79 628 86 647T105 676Q128 697 150 713T204 742Q221 742 238 746T272 750Q281 750 292 748T315 742T338 734T357 727Q363 726 372 721T385 711Q397 700 415 689T441
664Q450 650 457 634T472 603Q474 600 477 576T483 522T488 467T490 436L485 300ZM349 168Q349 172 351 175T355 183Q354 201 359 214T364 235L370 435Q371 464 364 494T356 555L351 567Q351 575 349 582T347 598Q343 601 339 605T334 615Q329 619 322 626T313
642Q306 642 298 647T284 653L253 654Q247 654 242 649T230 644Q228 644 223 641T213 633T204 625T199 619Q183 594 171 553T152 466T140 376T135 302Q135 296 139 275T148 229T158 186T165 164Q180 149 190 139T211 122T235 112T270 108H276Q283 110 294 113T312
117Q323 121 327 127T334 140T339 154T349 168Z" />
<glyph unicode="P" glyph-name="P" horiz-adv-x="665" />
<glyph unicode="Q" glyph-name="Q" horiz-adv-x="841" />
<glyph unicode="R" glyph-name="R" horiz-adv-x="682" />
<glyph unicode="S" glyph-name="S" horiz-adv-x="609" />
<glyph unicode="T" glyph-name="T" horiz-adv-x="496" d="M30 742L35 747H103Q191 747 277 742T451 737Q455 734 460 730T466 718Q462 700 462 685T461 650Q457 643 454 636T451 621Q436 618 420 618Q397 618 374 622T325 626H320L301 607Q301 519 296 433T291
258V224L311 200V195H306Q302 195 301 197T296 200H291Q284 152 283 104T282 7Q274 7 265 5T248 2H195Q191 2 188 4T180 7L175 11V147Q175 260 180 369T190 592Q190 596 188 604T185 616L161 636Q135 636 113 634T64 631H45L40 636Q32 662 33 689T30 742ZM192 645Q196
645 196 650L192 655Q186 655 188 650L192 645ZM181 640L186 630L192 625H207L186 645L181 640Z" />
<glyph unicode="U" glyph-name="U" horiz-adv-x="535" d="M44 314Q43 329 42 360T40 431T38 515T35 599T33 671T30 720Q33 724 39 730T52 740Q79 742 104 742T158 743Q167 745 168 739L170 707Q170 707 170 685T171 629T172 552T173 467T174 388T173 326Q174 304
175 277T178 224T182 182T185 164Q200 151 210 142T230 126T253 117T286 114H292Q298 116 309 120T326 124Q336 128 340 134T347 147T351 161T360 174Q360 178 362 182L365 189Q363 206 367 219T371 239V429H378L369 442V455L368 481V494Q368 531 374 567T380 642Q380
659 385 676T391 711Q391 716 397 724T403 739L414 745H454Q458 743 462 741T471 739Q482 736 491 726T505 705V625Q505 576 502 529T494 433L495 299Q494 279 494 256T491 210T484 165T472 124Q470 121 466 115T458 101T450 86T444 74Q444 71 436 62T417 44T396
27T382 19L371 14Q357 13 343 6T314 -1H224Q218 -1 201 4T166 18T133 34T117 49Q103 68 91 90T66 134Q65 147 57 161T49 189Q49 221 48 251T45 314H44ZM47 625L43 620H47L57 625H47ZM152 526H162L157 531L142 536L152 526ZM393 260L387 265H372L393 245L398 250L393
260ZM387 245Q383 245 383 240L387 235Q393 235 391 240L387 245Z" />
<glyph unicode="V" glyph-name="V" horiz-adv-x="660" />
<glyph unicode="W" glyph-name="W" horiz-adv-x="990" />
<glyph unicode="X" glyph-name="X" horiz-adv-x="646" />
<glyph unicode="Y" glyph-name="Y" horiz-adv-x="626" />
<glyph unicode="Z" glyph-name="Z" horiz-adv-x="632" />
<glyph unicode="a" glyph-name="a" horiz-adv-x="351" d="M30 24Q30 38 35 48T40 68L43 75Q43 79 45 89T51 110T56 131T60 146Q65 160 70 179T81 220T90 260T98 295Q101 311 104 329T115 363Q115 369 117 377T123 394T128 411T131 424Q131 433 134 439T138 450Q138
460 143 480T148 515L152 522L155 525H185Q194 525 211 524T236 518Q239 517 243 511Q243 505 245 500T247 487Q247 471 248 449T251 405T258 361T270 325Q270 299 276 276T287 227Q289 220 291 213T294 197Q295 193 295 189T294 180Q294 177 296 168T300 147T305
126T308 112Q314 86 317 57T321 1H257Q255 1 250 3T243 7L239 13L233 71L230 78Q222 78 215 80T199 82H138Q137 82 133 81T128 78Q125 76 121 71T115 62V34Q108 22 100 15T77 7Q65 7 53 10T30 13V24ZM146 183Q155 173 166 166T192 159H209L216 162V207Q216 214
214 224T209 241Q204 263 202 289T199 338L192 346Q187 340 185 328T182 308L179 305L176 295L172 291Q166 274 164 254T159 217Q157 209 152 202T146 183ZM115 288Q118 288 118 290Q118 291 118 292Q118 293 118 294Q117 294 117 294T115 295H113Q112 294 112
294Q111 293 111 292Q111 291 112 290Q114 288 115 288ZM108 285Q108 282 110 280T115 274L126 275L112 288L108 285Z" />
<glyph unicode="b" glyph-name="b" horiz-adv-x="515" />
<glyph unicode="c" glyph-name="c" horiz-adv-x="502" />
<glyph unicode="d" glyph-name="d" horiz-adv-x="392" d="M44 477Q44 485 44 494T45 512L53 518Q63 520 72 521T91 523Q101 523 120 521T150 517Q154 517 157 516T164 514Q171 513 176 514T188 515Q196 514 205 511T222 507Q233 502 248 497T275 491Q281 484 291
472T310 456Q313 452 320 445T334 431T346 417T352 405Q352 400 352 394T353 382Q353 380 354 377T357 372Q361 360 361 343T361 313Q361 299 361 288T358 265V261L356 252V247V209V202L353 188V181L350 171Q350 166 349 157T345 137T341 118T337 104Q337 103 335
98T331 87T327 76T325 71Q323 66 315 57T303 45L293 42Q288 32 284 29T269 20Q263 20 251 16T225 9L218 6H207Q182 6 157 7T106 7Q101 7 98 6T90 4L38 3L30 6V20Q30 48 34 75T38 130Q37 182 42 234T46 342Q46 354 47 366T48 391Q47 412 46 433T44 477ZM115 424Q115
423 115 409T116 379T115 347T108 327Q110 285 109 247T108 167Q109 149 108 135T107 104V97Q110 93 110 88T113 79Q116 76 122 74T136 71T151 68T162 67L196 68Q202 68 208 69T221 72L227 75Q230 75 235 80T246 92T256 105T261 113L264 122Q264 124 265 126T267
132Q268 148 272 162T277 193V197L273 207V211Q273 215 276 218T279 225L277 327Q277 332 276 337T274 348Q274 354 274 360T276 372L269 379Q269 381 267 385T263 393T259 401T255 406Q252 412 241 423T223 438Q219 438 217 439T210 441L206 444Q195 447 185 448T165
454H151L144 456H141Q135 452 131 450T121 445L118 428L115 424ZM101 81Q104 81 104 84L101 88Q97 88 99 84L101 81ZM94 77L97 70L101 67H112L97 81L94 77Z" />
<glyph unicode="e" glyph-name="e" horiz-adv-x="362" d="M38 503Q38 508 38 511T40 518L48 524H62Q114 524 166 521T272 518Q285 518 298 516T324 514L328 510Q330 505 331 500T332 489Q332 478 330 465T324 440L321 435H314Q291 435 269 437T225 440L218 443Q198
445 179 451T140 457V450Q137 446 132 439T126 426Q126 417 124 410T122 393V326Q122 323 121 320T119 312V308Q126 301 136 298Q144 298 149 298T162 294L168 287L171 294H317L321 291Q324 270 324 248Q324 239 323 233T314 220H278L272 223H171L168 227Q154 227
140 230T111 234Q113 223 111 213T108 192Q108 184 109 178T111 163L115 160V153L104 141V135L108 132V85Q110 83 113 81T119 78Q141 78 163 76T208 74H214L226 71H232H237L248 74H253H260L267 71H314Q319 67 321 60T324 46Q324 37 323 28T321 11L310 4Q302 4 295
2T278 0H267L260 4Q231 4 202 6T144 8H108Q92 8 76 6T44 4H40L34 8L30 14V22Q30 35 32 48T34 74Q34 125 37 175T40 277V433Q40 450 39 467T38 503ZM115 291Q118 291 118 294L115 298Q111 298 113 294L115 291ZM140 287Q143 287 143 291L140 294Q137 294 137 291L140
287ZM108 287L111 280L115 277H126L111 291L108 287Z" />
<glyph unicode="f" glyph-name="f" horiz-adv-x="423" />
<glyph unicode="g" glyph-name="g" horiz-adv-x="355" d="M30 268Q30 312 35 354T41 442Q43 446 47 459T55 476Q62 482 71 491T91 507T113 520T137 526H204Q210 521 218 521T232 515Q236 513 239 509T246 502Q251 498 260 493T280 481T299 468T307 452Q318 436
321 426T325 396Q325 387 324 380T322 365H293Q289 365 274 368T250 372L246 375Q243 380 243 385T240 396Q235 415 223 432T190 458Q187 458 183 460L178 462H167Q159 462 155 459T145 455L134 446L131 439Q131 436 130 434T127 428Q126 414 123 400T120 372Q120
353 118 334T116 295V148Q116 143 118 140T120 131Q125 126 127 118T134 104Q134 102 140 98T149 91Q153 89 167 87T185 85Q192 85 206 90T225 101Q237 112 240 125T243 154H208L196 160V215L202 217Q224 217 243 217T284 215Q289 217 297 217T313 217L319 215Q319
213 322 211T325 207V111Q325 107 323 100T318 88Q318 84 315 81T311 74Q306 70 304 65T297 55Q289 47 281 38T264 21Q257 15 244 11T217 5T188 2T163 1Q152 1 142 6T123 11Q104 19 91 31T62 57Q52 66 46 79T36 107T31 137T30 165V268ZM297 155Q300 155 300 160L297
163Q294 163 294 160L297 155ZM294 153Q296 153 296 156L294 160Q291 160 291 156L294 153ZM260 88Q262 88 262 92L260 95Q257 95 257 92L260 88Z" />
<glyph unicode="h" glyph-name="h" horiz-adv-x="414" d="M40 522L44 525H103Q107 525 111 524T121 522Q124 513 124 504Q124 487 121 472T118 440V435L121 424V419Q121 412 118 403T114 386V305L117 308L152 309L159 306L257 309L260 307Q271 307 281 307T300
305Q301 347 301 387T304 468L307 472L304 475Q302 482 301 489T300 504Q300 509 301 514T304 525H370L377 522L380 515Q380 513 381 511L383 504Q384 503 384 500Q384 493 382 487T380 472V365Q380 352 379 339T377 312Q377 236 375 159T373 4L370 1H311Q306 1
302 2T293 4Q289 12 289 22Q289 38 292 54T296 86V91L293 102V107Q293 114 296 123T300 139V239Q299 238 298 238Q293 237 286 237T270 240L262 247L260 240L116 234L113 237Q113 146 110 57L106 54L110 50Q112 43 113 36T114 22Q114 17 113 12T110 1H44L37 4L34
11Q34 15 32 18T30 25Q30 33 32 39T34 54V160V174L37 201V214Q37 290 38 367T40 522ZM101 312Q104 312 104 315L101 319Q97 319 99 315L101 312ZM94 308L97 301L101 298H112L97 312L94 308ZM294 248Q291 248 291 246Q290 245 290 244Q290 243 291 243Q293 241 295
241Q297 241 297 243Q297 244 297 245Q297 246 297 247Q296 247 296 247T294 248Z" />
<glyph unicode="i" glyph-name="i" horiz-adv-x="154" d="M40 522L44 525H103Q107 525 111 524T121 522Q124 513 124 504Q124 487 121 472T118 440V435L121 424V419Q121 412 118 403T114 386Q114 305 113 222T110 57L106 54L110 50Q112 43 113 36T114 22Q114 17
113 12T110 1H44L37 4L34 11Q34 15 32 18T30 25Q30 33 32 39T34 54V160V174L37 201V214Q37 290 38 367T40 522ZM52 25Q55 25 55 28L52 31Q49 31 50 28L52 25ZM45 21L48 14L52 11H63L48 25L45 21Z" />
<glyph unicode="j" glyph-name="j" horiz-adv-x="251" />
<glyph unicode="k" glyph-name="k" horiz-adv-x="351" d="M41 522L44 525H106Q111 525 115 524T125 522Q128 513 128 504Q128 487 125 472T121 440Q121 437 122 435L124 424Q125 423 125 419Q125 412 121 403T117 386V313L150 317Q150 320 157 324T167 330Q175
348 183 361T199 391V405L209 420Q209 425 215 436T228 459T241 483T247 500Q247 505 253 512T262 523H274L297 526H309H317L321 523V500L314 486Q313 480 310 475T306 464Q304 461 302 455L299 446Q297 441 293 434T288 424L280 405Q279 401 274 387T266 365Q260
356 253 343T239 316T226 291T215 275L253 216Q255 214 258 205T264 186T271 166T276 155Q276 150 278 144T282 132Q283 130 283 129T285 126Q286 125 286 122L288 114Q289 113 289 110Q290 107 292 98T296 86L300 78Q301 76 301 74Q301 72 302 70L307 59Q308 57
308 55Q308 54 310 50L316 37Q318 33 318 32V27L321 16V11V6L318 4H311Q300 4 293 4T280 5T266 5T248 6Q245 8 241 11T235 16V26L232 45V55Q232 60 230 64T228 74Q228 89 224 109T211 149T193 187T172 216L117 236Q116 191 116 146T113 57L110 54L113 50Q115 43
116 36T117 22Q117 17 116 12T113 1H44L37 4L34 11Q34 15 32 18T30 25Q30 33 32 39T34 54V160V174L37 201V214Q37 290 39 367T41 522ZM221 311Q224 311 224 315L221 319Q218 319 218 315L221 311ZM218 308Q220 308 220 312L218 315Q216 315 216 312L218 308ZM184
244Q187 244 187 247L184 251Q181 251 181 247L184 244ZM102 87Q105 87 105 91L102 95Q99 95 99 91L102 87ZM99 84Q101 84 101 88L99 91Q97 91 97 88L99 84ZM65 20Q68 20 68 23L65 27Q62 27 62 23L65 20Z" />
<glyph unicode="l" glyph-name="l" horiz-adv-x="427" />
<glyph unicode="m" glyph-name="m" horiz-adv-x="506" d="M40 193Q40 224 41 255T43 319Q43 330 47 342T51 365V467Q51 481 54 494T57 522L60 524H85Q98 524 104 523T118 522L121 517Q122 515 124 512T128 507Q132 498 134 494T138 487T141 478T145 463Q148 460
148 456Q149 449 154 439T165 417T176 395T182 376Q185 373 186 368T189 359Q190 355 196 348T203 338Q203 329 206 322T209 308Q209 304 213 298T221 286T229 273T233 264V247L239 244V241L236 234L239 230L246 227H256Q257 228 263 239T276 264T288 289T294 302L300
311Q300 314 302 318T307 325Q307 327 308 328L310 335Q311 336 311 338Q314 343 316 348T321 358L341 400Q343 405 346 410T351 420Q351 424 357 436T372 464T387 492T395 511Q399 511 402 513T409 515H429Q439 515 445 514T459 511L463 507L473 504L476 500V481Q476
446 473 413T470 345L467 342Q467 304 459 267Q458 265 460 256T463 244Q463 238 461 232T459 220L456 214Q459 204 453 193L456 190V177L459 152V139V78L456 71V31V26L453 16V11L446 7Q438 6 433 5T419 4Q409 4 400 5T382 7Q382 13 381 18T379 31Q379 66 383 100T388
169V227Q388 239 390 251T392 274Q392 279 390 284T388 294L385 298L374 294Q372 292 371 287T368 277L362 274H355L351 271Q351 263 351 256T349 241L307 200L300 197V173L290 159Q290 157 288 154T283 149L281 142Q280 139 276 134T270 125Q263 117 260 105T250
85Q244 79 240 71T230 55H220Q217 60 215 65T209 75Q209 80 207 87T202 104T196 121T192 136Q190 144 187 148T182 156L178 159V167L182 173V176L178 180Q178 183 175 195T167 222T158 250T152 267Q148 267 145 266T139 264Q135 263 135 258Q133 256 131 250T128
241Q128 190 120 141T111 41Q111 35 110 29T108 18L104 11Q102 11 99 8T91 4Q75 1 57 1Q52 1 47 2T37 4L30 11V122Q30 127 30 131T31 141L33 154Q33 159 33 163T34 173Q34 178 35 181T37 190L40 193ZM368 311Q371 311 371 315L368 319Q365 319 365 315L368 311ZM365
308Q367 308 367 312L365 315Q363 315 363 312L365 308ZM331 244Q334 244 334 247L331 251Q328 251 328 247L331 244Z" />
<glyph unicode="n" glyph-name="n" horiz-adv-x="365" d="M37 505V519L45 525H55Q71 525 85 522T113 519Q121 515 124 512Q126 504 128 494T131 475Q131 464 137 450T146 425L150 422Q150 419 152 415T157 409V398L160 396L168 379L171 376Q173 361 183 349Q183
340 188 328T200 303T212 280T219 263Q224 254 226 244T233 223L243 214L248 220Q251 256 251 290Q251 319 254 347T257 405V428L255 473V495V501L257 508L265 515H269Q283 515 300 514T331 508L335 501V488Q335 471 332 454T328 419Q328 394 326 371T323 323L320
316V5H298L291 1H262Q256 5 251 5Q248 8 241 19T233 34Q224 53 219 74T204 114Q204 118 201 123T197 131Q197 138 194 146T186 163T177 179T171 193Q163 210 160 229T146 263Q146 264 143 270T137 285T130 299T127 306Q122 307 119 309T110 312Q108 305 107 298T106
283V18L103 15Q96 12 80 10T55 8Q46 8 42 9T30 15V21Q30 90 33 158T37 296V313L40 348V365V451Q40 465 39 478T37 505Z" />
<glyph unicode="o" glyph-name="o" horiz-adv-x="383" d="M349 210Q347 181 344 147T328 87Q324 83 317 71T307 53Q307 50 301 44T287 32T272 20T262 15L254 12Q244 11 234 7T213 3L150 5Q146 5 134 9T109 20T86 32T76 43Q65 57 57 73T41 104Q41 113 36 123T31
143V175V238Q31 279 34 320T48 400Q50 409 54 416T62 432Q64 440 69 453T83 473Q99 488 114 499T152 519Q164 519 175 522T199 525Q212 524 230 519T259 509Q263 508 269 504T279 498Q287 490 299 482T318 465Q324 455 329 444T339 422Q340 420 342 403T347 366T350
327T352 305L349 210ZM253 118Q253 120 254 123T257 128Q257 141 260 150T264 165L268 305Q269 325 264 346T258 389L255 397Q255 402 253 408T252 419Q249 421 246 424T243 431Q240 433 235 438T228 449Q223 449 218 453T208 457L186 458Q182 458 179 454T170
451Q167 451 159 443T148 433Q137 416 129 387T115 326T107 263T104 211Q104 207 106 192T112 160T119 130T124 115Q135 105 142 98T156 86T173 79T198 76H202Q207 78 214 80T227 82Q235 85 238 89T243 98T247 108T253 118Z" />
<glyph unicode="p" glyph-name="p" horiz-adv-x="484" />
<glyph unicode="q" glyph-name="q" horiz-adv-x="607" />
<glyph unicode="r" glyph-name="r" horiz-adv-x="495" />
<glyph unicode="s" glyph-name="s" horiz-adv-x="444" />
<glyph unicode="t" glyph-name="t" horiz-adv-x="365" d="M30 519L34 523H81Q142 523 202 520T325 516Q327 514 331 511T335 503Q333 490 333 479T332 455Q325 445 325 435Q302 430 281 434T236 438H233L220 425Q220 364 217 303T213 181V157L227 140V137H223Q221
137 220 138T216 140H213Q208 107 207 73T206 5Q201 5 195 3T183 1H146Q144 1 143 2L138 4Q137 5 135 5L131 8V103Q131 182 135 258T142 414Q142 417 141 423T139 431L122 445H105L71 442H54H40L37 445Q32 463 32 482T30 519ZM143 451Q146 451 146 455L143 458Q140
458 141 455L143 451ZM136 448L139 441L143 438H154L139 451L136 448Z" />
<glyph unicode="u" glyph-name="u" horiz-adv-x="393" d="M40 220Q39 231 39 252T37 302T36 360T34 419T32 469T30 504Q32 506 36 511T45 518Q65 520 82 520T120 520Q126 522 127 517L128 495Q128 495 128 480T129 440T129 386T130 327T131 271T130 228Q131 213
132 194T134 157T136 128T139 115Q150 106 156 99T170 88T186 82T209 80H213Q218 82 225 84T237 87Q244 90 247 94T251 103T255 113T261 122Q261 124 261 125T262 127L264 132Q263 144 266 153T269 167V300H274L267 309V346Q267 372 271 397T275 449Q275 452 276
460T279 477T283 495T286 505L288 510Q291 515 291 517L299 522H327Q332 517 339 517Q347 515 353 508T363 493V438Q363 403 360 370T355 303L356 209Q354 181 352 147T339 87Q336 83 330 70T320 52Q320 50 314 44T301 31T286 19T276 13L269 10Q259 9 249 4T229
-1H166Q162 -1 150 3T125 12T102 24T91 34Q81 48 72 63T55 94Q55 103 49 112T43 132Q43 155 42 176T40 220ZM42 438L39 434H42L49 438H42ZM115 368H122L119 372L108 375L115 368ZM284 182L280 186H269L284 172L288 175L284 182ZM280 172Q277 172 277 168L280 165Q283
165 283 168L280 172Z" />
<glyph unicode="v" glyph-name="v" horiz-adv-x="480" />
<glyph unicode="w" glyph-name="w" horiz-adv-x="711" />
<glyph unicode="x" glyph-name="x" horiz-adv-x="470" />
<glyph unicode="y" glyph-name="y" horiz-adv-x="456" />
<glyph unicode="z" glyph-name="z" horiz-adv-x="460" />
</font>
</defs>
</svg>
